<?xml version="1.0" encoding="UTF-8"?>
<svg width="340px" height="250px" viewBox="0 0 340 250" version="1.1" xmlns="http://www.w3.org/2000/svg" xmlns:xlink="http://www.w3.org/1999/xlink">
    <!-- Generator: Sketch 45.2 (43514) - http://www.bohemiancoding.com/sketch -->
    <title>ill_02</title>
    <desc>Created with Sketch.</desc>
    <defs>
        <path d="M255.712819,21.9204763 C256.371023,22.3507681 256.980071,23.261289 256.371023,23.945428 C255.764475,24.6287348 254.648861,25.6158259 255.206251,26.2741641 C255.764475,26.93167 255.48453,27.1855172 255.357055,27.7173479 C255.231246,28.2491787 255.991931,29.3120078 255.560349,29.9195765 C255.1296,30.5271453 255.661995,31.210452 255.78947,31.7672513 C255.915279,32.3240506 255.433707,32.3748201 255.433707,33.1596657 C255.433707,33.9436791 255.535354,34.4505412 255.256242,34.7035562 C254.97713,34.9565711 255.661995,36.8042459 254.97713,37.083894 C254.29393,37.3618775 254.774669,38.8291976 254.774669,39.5890747 C254.774669,40.3489517 254.497224,40.3739203 253.736539,40.3231509 C252.976688,40.2723814 250.999576,40.7534427 250.518003,40.2723814 C250.036431,39.7921524 249.655672,39.7405507 249.352398,40.2723814 C249.048291,40.8033799 248.971639,41.4875189 248.971639,41.7663347 C248.971639,42.0451505 248.718356,42.3239663 247.883519,42.8041953 C247.046183,43.2852566 246.514621,43.4367326 247.426109,44.4487923 C248.33843,45.4616843 249.250751,46.8291301 249.32657,48.5502975 C249.403222,50.2714648 249.859799,50.4479094 250.188068,50.8282641 C250.345537,51.0088701 250.420522,51.3101577 250.458015,51.6588855 C250.49884,52.0458984 250.493008,52.4920037 250.493008,52.9048175 C250.493008,53.6888309 250.567993,55.0304758 250.264719,55.0304758 C249.960612,55.0304758 249.47904,54.8789998 248.946644,55.4857363 C248.414249,56.0941373 248.135137,57.0046581 248.135137,57.0046581 C248.135137,57.0046581 247.527756,57.2834739 247.325295,56.6001671 C247.122002,55.9168604 246.514621,55.0304758 245.981392,55.1827842 C245.450663,55.3342602 245.247369,55.8161538 245.272364,56.5751986 C245.297359,57.3342433 245.65229,59.131981 244.841615,59.131981 C244.030941,59.131981 243.575197,59.1561173 243.575197,60.220611 C243.575197,61.2834402 242.763689,62.3462693 240.93988,62.5485148 C239.925912,62.5485148 238.507023,63.1053141 239.317698,63.7386837 C240.128372,64.371221 240.964042,65.6113271 240.711591,66.0424512 C240.305837,66.9030349 239.595976,66.0915561 239.317698,66.5226802 C239.038586,66.952972 238.277901,67.0794795 237.213943,66.9787729 C236.149985,66.8780663 235.770059,66.5226802 235.3893,66.0424512 C235.009375,65.5613899 234.04623,65.6113271 233.894593,66.3204347 C233.742956,67.0287101 233.184732,69.307509 232.551523,70.3195687 C232.139104,70.9787392 231.265108,72.011606 230.420274,72.820588 C229.966196,73.2550412 229.518784,73.6262408 229.155522,73.8384737 C228.116559,74.4460424 226.241926,76.8754851 225.810344,78.5217467 C225.380428,80.1663437 224.948846,79.8384231 224.240651,79.9141611 C223.529957,79.9898991 223.166695,79.7959765 222.963402,80.1663437 C222.761774,80.5383755 222.086073,80.6399144 221.64616,80.7073296 C221.207912,80.7747447 221.376213,81.4488964 221.376213,81.4488964 C219.213303,82.2595429 217.322007,83.8791713 217.152873,85.8034164 C216.917086,86.6481867 216.510499,86.2761549 216.207225,86.8163084 C215.903118,87.356462 214.956637,87.0185539 214.821663,87.5587075 C214.68669,88.0988611 213.841855,88.1662762 213.706882,88.4700606 C213.571908,88.773845 213.064508,88.6390147 213.064508,88.2004 C213.064508,87.760953 212.72624,87.3897535 213.064508,87.356462 C213.402775,87.3223383 213.571908,87.2207994 213.672722,86.8504322 C213.774368,86.4784003 214.010156,86.5791069 214.450069,86.5116918 C214.88915,86.4442766 215.328231,84.2512031 212.929534,83.9132951 C212.793727,83.5079718 212.996188,83.2724349 213.402775,83.3057263 C213.807695,83.33985 213.706882,83.0701894 213.672722,82.5300358 C213.638562,81.9898822 213.774368,81.8550519 214.145129,81.6186827 C214.518389,81.3814812 215.666498,80.0315134 216.003932,78.8837911 C216.341366,77.7360688 216.139738,76.9270868 215.531524,76.5217636 C214.922477,76.1164403 214.179289,76.0490251 214.044316,75.8126559 C213.909342,75.577119 213.706882,75.577119 213.470261,75.9141948 C213.234474,76.2512706 212.72624,76.1164403 212.28716,75.9141948 C211.848912,75.7119493 211.206538,75.8467797 210.530004,76.7581328 C209.855136,77.6694859 209.178602,79.1551163 208.976142,79.9308068 C208.772848,80.7073296 208.098814,81.2807746 207.185659,81.753513 C206.923211,81.8891756 206.576612,82.0739431 206.21335,82.3019895 C205.313526,82.8662793 204.308723,83.6993976 204.212075,84.757233 C204.076268,86.2420311 203.638021,88.0647374 202.69154,88.0314459 C201.745892,87.9981545 201.305978,87.6261227 200.225356,89.1791682 C199.843764,88.0356073 199.290539,87.8500076 198.819798,88.0081419 C198.456536,88.1296557 198.142431,88.4559117 197.995793,88.7055975 C197.656693,89.2807071 197.521719,90.0563976 197.489226,90.4284294 C197.455066,90.7987967 196.981825,91.0010422 197.150959,91.9132276 C197.165956,91.9956239 197.190951,92.0721942 197.220112,92.1454354 C197.478394,92.8037735 198.230747,93.1158808 198.715652,93.5711412 C198.772308,93.6235752 198.826464,93.6776738 198.873954,93.7351015 C199.381355,94.3426702 200.090383,94.7138698 200.393657,94.3093788 C200.698597,93.9032233 200.935217,94.106301 201.509271,94.4775006 C202.084159,94.8487001 202.658213,94.7812849 202.624053,94.2752551 C202.590726,93.7683929 202.894,93.3980257 203.536374,93.5669797 C204.177915,93.7351015 204.280395,94.6805783 204.617829,94.9161153 C204.956096,95.1524845 204.888609,95.7941769 204.719476,96.5357437 C204.550342,97.2789751 204.076268,98.966851 206.610772,99.3380505 C207.455606,99.3380505 209.043629,98.7978969 209.043629,98.1570367 C209.043629,97.5153443 209.043629,97.0767296 209.652676,96.8403604 C210.259224,96.6039912 210.360871,96.1986679 210.429191,95.7600532 C210.496677,95.3214385 211.577299,94.1737162 212.625427,94.1395925 C213.672722,94.106301 214.72085,95.4221451 215.159097,94.8828238 C215.599011,94.3426702 215.903118,94.950239 215.970605,95.35473 C216.038092,95.7600532 216.645473,95.2540234 217.187033,95.2540234 C217.726927,95.2540234 218.437622,95.3214385 218.437622,94.950239 C218.437622,94.5790395 218.977516,94.3426702 219.281623,94.9843627 C220.768831,94.8828238 221.579506,94.5116243 221.579506,94.950239 C221.579506,95.3888537 221.781966,96.1986679 221.274566,96.367622 C220.768831,96.5357437 220.768831,97.0767296 221.207912,97.1441447 C221.64616,97.2115599 221.308726,98.0554979 220.802158,98.3925737 C220.294758,98.7304818 219.855677,98.1903282 219.78819,97.8524201 C219.720704,97.5153443 218.943356,97.7517135 218.369302,98.3251585 C217.794414,98.8994358 215.328231,100.822849 214.754177,100.891096 C214.179289,100.958511 214.72085,102.07211 214.72085,102.07211 C214.72085,102.07211 213.571908,101.768325 213.571908,102.611431 C213.571908,103.455369 214.145962,104.097062 213.368615,104.231892 C212.591267,104.367554 211.408165,105.311367 211.408165,105.717522 C211.408165,106.122013 211.442325,107.471981 211.037405,108.350043 C210.632484,109.227272 209.78765,108.416626 209.246089,109.327979 C208.95198,109.824853 208.627877,110.323393 208.420417,110.902664 C208.247951,111.384557 208.156302,111.923879 208.232954,112.568068 C208.976142,113.006683 209.92179,112.635483 210.259224,113.311299 C210.598324,113.985451 210.902431,114.22182 212.32132,114.22182 C213.740209,114.22182 214.212616,114.897636 214.518389,115.876405 C214.821663,116.854341 216.071418,118.069478 216.375526,118.880125 C216.679633,119.689939 219.045003,122.458122 218.369302,122.693659 C217.692767,122.93086 218.234328,123.909629 219.450756,124.044459 C220.667185,124.179289 221.84862,124.179289 221.612833,125.967872 C224.38229,125.867165 224.41645,127.891284 224.41645,128.127654 C224.41645,128.127654 222.660128,127.790578 221.98526,127.554209 C222.154393,128.364855 223.774909,128.701931 224.349797,128.701931 C224.923851,128.701931 224.78971,129.443498 224.180663,129.511745 C223.572449,129.579993 220.937132,128.870885 220.937132,127.925408 C219.78819,127.891284 219.889837,128.330731 219.078329,127.317839 C218.538435,126.508025 218.538435,127.857161 218.943356,128.465562 C219.34911,129.073131 220.497218,128.465562 221.241239,129.139713 C221.447032,129.32781 221.621165,129.485112 221.783633,129.621607 C222.206883,129.974496 222.546816,130.152605 223.132535,130.152605 C223.944043,130.152605 225.769518,131.300328 225.836172,132.515465 C224.728056,132.736853 223.39915,133.502556 222.441837,134.317364 C221.648659,134.992348 221.112098,135.701456 221.173752,136.160878 C219.552403,136.566201 218.943356,136.767614 218.943356,136.767614 C218.943356,136.767614 220.159784,137.3086 220.227271,138.118414 C220.294758,138.929061 221.173752,138.32066 221.64616,137.3086 C221.64616,137.3086 222.745111,136.008569 223.708256,136.566201 C224.670567,137.122168 224.670567,138.08429 225.481242,138.08429 C226.291916,138.08429 227.001777,137.882045 227.255061,138.286536 C226.49521,139.097182 226.394396,140.160012 226.85014,140.008536 C227.305884,139.856227 227.508344,140.666874 227.407531,141.274442 C227.305884,141.882011 227.863275,142.287334 227.712471,142.741763 C226.950954,142.236565 226.74766,141.476688 226.596856,141.982718 C226.444386,142.488748 225.532065,141.882011 225.076321,143.097149 C226.291916,142.94484 226.596856,144.514532 226.49521,145.17287 C226.394396,145.830376 225.785349,145.982684 226.394396,146.589421 C227.001777,147.196989 226.90013,147.753789 226.90013,147.753789 C225.836172,147.400067 225.735358,147.855327 225.836172,148.766681 C225.328771,148.968926 224.873027,148.716743 224.873027,147.703851 C224.163166,149.070465 223.302502,150.032588 223.302502,150.387141 C223.302502,150.740863 222.592641,152.259785 222.694288,152.968892 C222.763441,153.454947 222.570978,154.534422 222.084407,155.215232 C221.860284,155.528172 221.57534,155.75705 221.223742,155.803658 C221.274566,156.86732 220.718008,157.272643 220.514715,157.37335 C220.312254,157.474888 220.768831,159.297595 220.058137,158.842334 C219.34911,158.386242 218.791719,157.778673 218.486779,158.335472 C218.183505,158.892271 218.486779,159.196056 219.045003,159.399134 C219.602393,159.601379 219.602393,160.309654 219.602393,161.17107 C219.602393,162.031654 219.552403,163.85436 219.094993,164.258851 C218.639249,164.664174 219.045003,166.081557 220.159784,165.018728 C220.565538,164.612573 220.970459,165.423219 220.463891,165.828542 C219.956491,166.233866 218.994179,166.183096 218.538435,165.727004 C218.081858,165.270911 217.473644,165.980019 217.524467,166.334572 C217.57529,166.689126 218.436788,167.904264 217.828574,167.955033 C217.22036,168.00497 216.258049,167.346632 216.308039,167.955033 C216.358862,168.562602 217.0179,169.979985 216.460509,170.030754 C215.903118,170.081524 215.750648,170.587554 215.700658,171.19429 C215.649001,171.802691 215.193257,172.663275 214.787503,172.004937 C214.382583,171.346598 213.706882,172.579214 213.030348,172.072352 C212.35548,171.566322 212.861214,173.320781 212.827887,173.962473 C212.793727,174.603333 212.017213,174.570042 211.983886,175.110195 C211.949726,175.650349 211.780592,175.852594 211.307352,175.885886 C210.834944,175.919177 210.496677,176.865486 210.02427,176.696532 C209.686003,177.844255 208.908655,177.505514 208.841168,178.518406 L208.841168,178.520071 C208.771182,179.529634 206.610772,178.081456 206.848225,179.632837 C206.780739,180.442651 206.070878,181.388128 205.326857,181.522959 C205.292697,182.670681 205.226043,183.210834 205.226043,183.210834 C205.226043,183.210834 203.975455,182.974465 203.840481,183.345665 C203.705508,183.716032 202.92816,183.817571 202.590726,184.324433 C202.253292,184.830463 201.814212,184.93117 201.814212,184.93117 C201.239324,184.054772 201.036031,184.021481 199.583815,184.088064 C200.461977,184.695633 201.272651,185.505447 200.529463,185.472155 C199.786276,185.438032 199.516329,185.674401 199.279708,185.26991 C199.043088,184.864587 198.772308,184.42514 198.198253,184.897878 C197.624199,185.370617 196.914338,185.472155 196.880178,186.214554 C196.846851,186.956954 196.103664,186.855415 196.036177,186.315261 C195.967857,185.77594 196.441098,185.235786 195.90037,185.370617 L194.768925,185.927416 C194.768925,185.927416 195.731237,187.091784 194.717269,187.750122 C194.109888,186.383509 193.654144,186.534985 193.349203,187.041847 C194.211534,187.700185 194.159878,188.560769 193.602487,188.763014 C193.045096,188.96526 192.893459,188.40846 192.740989,188.104676 C192.589352,187.801724 191.930315,187.244092 191.930315,187.750122 C191.930315,188.256152 191.524561,188.763014 191.524561,188.763014 C191.524561,188.763014 191.677031,187.649415 190.96717,187.041847 C190.865523,186.180431 190.663896,186.028955 190.359789,186.028955 C190.054849,186.028955 189.649095,185.77594 189.649095,185.319847 C189.649095,184.864587 189.143361,184.357725 188.686784,184.965293 C188.231039,185.572862 188.4335,185.827542 188.736774,186.028955 C189.041714,186.232032 189.649095,186.838769 189.649095,187.395568 C189.649095,187.952368 189.497458,188.609873 190.004859,188.96526 C190.510593,189.319813 190.510593,190.028089 190.106505,190.028089 C189.700752,190.028089 188.83842,189.065966 188.686784,189.674367 C188.534313,190.281104 187.876109,191.09175 187.774462,190.63649 C187.673649,190.179565 186.962955,189.421352 186.912964,190.63649 C186.862141,191.851627 186.608857,192.306888 186.25476,191.800858 C185.89983,191.293996 185.342439,191.699319 185.239959,192.408426 C185.139145,193.11587 183.922717,192.864519 183.871893,192.002271 C183.669433,192.76298 183.61861,193.522025 183.009562,193.065932 C182.403015,192.60984 181.338223,192.205349 181.13493,193.471256 C180.983293,193.571962 180.527549,193.015163 180.425902,193.825809 C180.325088,194.636456 179.31112,195.141654 178.80372,194.939408 C178.297152,194.737163 178.397966,194.939408 177.841408,195.191591 C177.284017,195.44627 176.473343,194.888639 175.560189,195.496207 C174.647867,196.102944 173.076508,197.420452 172.671588,197.621866 C172.266667,197.825776 171.759267,197.875713 171.759267,198.533219 C171.759267,199.191557 171.65762,199.445404 172.064207,199.394635 C172.469127,199.343865 173.431439,199.191557 173.128165,199.64765 C172.824058,200.103742 172.723244,200.913557 173.330625,200.812018 C173.93884,200.710479 174.09131,201.521125 173.887183,201.976386 C173.685556,202.432478 172.874048,202.938508 172.16502,202.938508 C171.455159,202.938508 170.695308,203.039215 170.746132,202.483248 C170.796122,201.925616 171.354346,201.925616 170.746132,201.521125 C170.137918,201.116634 169.83381,199.496174 169.225596,199.496174 C169.225596,199.496174 168.938153,198.061313 169.275586,197.655989 C169.613854,197.251498 169.343073,196.508267 169.951287,196.576515 C170.560335,196.64393 170.863609,195.394668 170.188741,195.597746 C170.167078,195.603572 170.147082,195.610231 170.126253,195.617721 C169.486378,195.829122 169.07146,196.257749 169.005639,195.800824 C168.938153,195.328086 168.768186,194.854515 168.532399,195.360545 C168.296612,195.867407 167.755884,196.238606 166.606943,196.171191 C166.167029,196.609806 165.593808,196.509099 165.727948,196.003069 C165.862922,195.496207 165.694621,195.023469 165.188054,195.462916 C164.74814,195.665994 164.54568,195.665994 164.54568,195.26067 C164.54568,194.855347 164.54568,194.450024 164.241573,194.685561 C163.937466,194.92193 163.802492,195.800824 163.666685,195.26067 C163.531712,194.719685 162.620224,193.707625 162.65355,194.483315 C162.68771,195.26067 162.654384,195.699285 162.484417,195.699285 C162.315283,195.699285 162.146983,195.05676 161.910363,195.05676 C161.673742,195.05676 161.267989,195.125008 161.302982,195.699285 C161.234662,195.901531 160.929722,196.1379 160.794748,195.7667 C160.659774,195.394668 160.381496,196.102944 159.8491,196.433361 C159.317537,196.761282 159.190062,194.685561 157.771174,195.647683 C157.062146,196.053007 156.048178,195.699285 155.490787,195.344731 C154.933396,194.990177 154.375172,194.433378 153.564498,194.078824 C152.753823,193.724271 152.196432,193.167471 152.196432,192.711379 C152.196432,192.255286 151.842335,191.851627 151.436581,191.699319 C151.030828,191.547843 151.233288,190.433412 151.739855,190.382642 C152.246423,190.332705 152.348069,190.028089 152.348069,189.623598 C152.348069,189.218274 152.957117,189.36975 152.602186,188.91449 C152.246423,188.45923 151.334935,188.003137 150.828367,188.45923 C150.320967,188.91449 150.119339,189.269044 149.712752,188.661475 C149.306999,188.053074 148.750441,187.547877 148.24304,188.206215 C147.736473,188.864553 147.381542,188.45923 147.330719,188.256152 C147.279896,188.053074 146.925798,187.750122 146.418398,187.801724 C145.926827,187.849164 145.722701,187.705179 145.71187,187.234937 C145.71187,187.220788 145.70937,187.209136 145.70937,187.193323 C145.70937,186.688125 145.201969,186.787999 144.847872,186.28197 C144.492942,185.77594 144.542932,185.640277 144.104684,186.147139 C143.664771,186.653169 143.42815,186.923662 142.719123,186.923662 C142.009262,186.923662 141.908448,187.362277 141.908448,187.935722 C141.908448,188.509167 141.502694,188.846243 141.502694,189.28569 C140.657027,188.91449 140.151292,189.252398 140.117966,189.522059 C140.083806,189.791719 139.508918,190.500827 139.306458,190.129628 C139.103997,189.757596 139.036511,189.892426 138.867377,189.184983 C137.887569,188.846243 137.246028,190.062212 137.651782,191.243226 C137.246028,191.41218 136.671141,191.209102 136.502007,190.838735 C136.333707,190.467536 135.691333,188.880366 135.353066,189.690181 C135.015632,190.500827 134.744852,190.737196 134.575718,190.400121 C134.407418,190.062212 133.86669,189.083444 133.258476,190.129628 C132.650262,191.175811 131.941234,191.749256 131.737941,191.310641 C131.53548,190.872027 130.893106,190.433412 130.420699,190.231166 C129.947458,190.028089 129.271757,189.218274 128.798516,190.129628 C128.325276,191.040981 127.143841,191.986458 126.872227,191.78338 C126.60228,191.581134 126.36566,191.581134 125.994066,191.78338 C125.621639,191.986458 125.385852,190.568242 124.811798,191.310641 C124.237743,192.05304 123.899476,193.201595 124.06861,193.673501 C124.237743,194.14624 125.149231,194.820391 125.048418,195.530331 C124.946771,196.238606 124.676824,198.162852 125.115071,198.297682 C125.554985,198.433344 126.095713,198.703005 125.655799,199.074205 C125.216718,199.445404 124.541017,199.546111 124.371884,199.209035 C124.203583,198.871127 123.764503,198.263558 123.290429,198.802879 C122.818021,199.343865 122.074834,199.040913 122.176481,198.465804 C122.277294,197.892359 122.311454,197.487035 122.007347,197.217375 C121.70324,196.947714 122.040674,195.563623 121.50078,195.631038 C120.960052,195.699285 119.911924,196.204483 119.641977,196.846175 C119.37203,197.487035 118.729656,197.757528 118.358062,197.521159 C117.986468,197.28479 117.649034,196.508267 117.378254,196.879467 C117.108307,197.251498 116.499259,197.859067 116.161826,197.55445 C115.824392,197.251498 116.263472,196.238606 115.891878,196.238606 C115.520285,196.238606 114.945397,195.833283 115.047044,195.226547 C115.148691,194.618978 115.587771,193.841623 115.080371,193.841623 C114.573803,193.841623 113.763129,193.639377 113.357375,193.537839 C112.951621,193.437132 110.891191,193.808331 110.857865,193.403008 C110.823705,192.99935 111.026165,192.05304 111.466079,191.952334 C111.904326,191.851627 112.10762,191.446304 112.140947,190.939442 C112.175107,190.433412 111.566892,189.454644 112.175107,189.184983 C112.783321,188.91449 113.695642,187.969013 112.816648,187.801724 C111.938486,187.631937 111.431919,187.564522 110.857865,187.564522 C110.282977,187.564522 109.70809,187.462983 109.70809,186.485047 C109.70809,185.505447 109.269009,184.863754 109.438976,184.42514 C109.607276,183.987357 109.370656,183.817571 108.830762,183.582034 C108.289201,183.345665 108.458335,182.839635 108.931575,182.467603 C109.403983,182.096404 110.248817,180.611605 109.607276,181.185051 C108.965735,181.758496 108.492495,181.62533 107.917607,181.522959 C107.343553,181.422252 105.957991,181.285757 105.417264,181.62533 C104.876536,181.961573 103.491808,182.738928 103.086054,182.738928 C102.6803,182.738928 102.309539,181.860034 102.849434,181.657789 C103.390161,181.455543 103.491808,180.982805 103.491808,180.612438 C103.491808,180.240406 103.592621,179.227514 102.883594,179.294929 C102.173733,179.362344 102.376193,177.607886 102.91692,177.54047 C103.457648,177.473055 104.200836,177.236686 103.930888,177.000317 C103.660941,176.763948 103.390161,175.54881 103.965048,175.177611 C104.539103,174.806411 105.31645,174.907118 105.620557,174.064012 C105.924664,173.220074 106.329585,172.579214 106.600365,172.579214 C106.870313,172.579214 107.17442,172.781459 107.546847,172.207182 C107.917607,171.634569 107.884281,171.19429 108.425008,171.532198 C108.965735,171.870106 109.336496,171.329953 109.099876,171.160999 C108.864089,170.992045 108.154228,170.756508 108.222548,170.216354 C108.289201,169.6762 108.593308,169.54137 108.830762,169.54137 C109.066549,169.54137 109.370656,168.292109 109.370656,167.346632 C109.370656,166.401988 109.472303,162.486914 109.403983,161.845222 C109.336496,161.205194 108.898249,161.205194 108.729115,160.833162 C108.559982,160.461963 108.221714,160.327132 108.086741,160.900577 C107.951767,161.474855 107.37688,161.811098 107.343553,161.238486 C107.310226,160.66504 107.039446,159.921809 106.768666,159.449903 C106.597033,159.148615 106.602865,158.478625 106.551208,157.935975 C106.522047,157.625532 106.473724,157.356704 106.363745,157.221874 C106.059638,156.849842 106.059638,156.412059 105.417264,156.446183 C104.775723,156.479474 104.471616,156.54689 104.505776,156.040027 C104.539103,155.533998 104.065862,155.466582 103.863402,155.500706 C103.660941,155.533998 103.356834,155.466582 103.356834,156.108275 C103.356834,156.749135 102.815274,157.119502 102.612813,157.119502 C102.410353,157.119502 101.937946,156.984672 101.870459,156.512766 C101.802139,156.040027 101.363058,155.972612 101.126438,156.243105 C100.889818,156.512766 100.552384,156.208982 100.14663,156.17569 C99.7417091,156.141566 99.4376021,156.411227 99.4376021,155.97178 C99.4376021,155.533998 98.5244476,155.433291 97.9503934,155.871073 C97.3763392,156.311353 96.8356118,156.005904 97.1738789,155.568121 C97.5113128,155.129507 98.2886605,154.015908 98.6944143,154.083323 C99.099335,154.150738 99.065175,153.54317 98.8293879,153.204429 C98.5927676,152.867353 98.7610679,151.82117 98.2886605,152.057539 C97.8154199,152.293908 97.0722321,152.66594 97.0380722,152.867353 C97.0047454,153.070431 96.5656647,152.631817 96.5656647,152.226493 C96.5656647,151.82117 96.7006383,151.653048 97.0722321,151.584801 C97.443826,151.518218 98.6944143,150.774987 97.9162334,150.80911 C97.1397189,150.842402 96.9030986,150.505326 96.9030986,150.201542 C96.9030986,149.897757 96.5656647,149.189482 95.5516967,149.661388 C94.5385619,150.134126 93.2879735,150.707571 93.2879735,151.349264 C93.2879735,151.990124 92.5447858,152.158246 92.2406787,151.82117 C91.9365716,151.484094 91.4966578,151.416679 91.429171,151.112895 C91.3616842,150.80911 90.9559304,151.484094 90.5176829,151.011356 C90.0777691,150.53945 89.1321211,149.45831 88.793854,150.066711 C88.4564201,150.67428 87.7807191,150.572741 87.5782588,150.572741 C87.3757985,150.572741 86.9025579,150.876525 86.1926969,151.787879 C85.482836,152.699232 84.5705147,153.036307 83.6590266,153.103723 C82.7458722,153.17197 81.5636038,153.070431 81.3611435,153.914369 C81.1586832,154.757475 79.7048013,155.736243 78.3533994,155.871073 C78.8608,156.81655 78.7591533,157.424951 77.9826387,157.424951 C77.0703175,158.03252 76.4954301,157.964273 76.2588098,157.795319 C76.0221895,157.627197 75.6847556,157.288456 75.2790017,157.727903 C74.8740811,158.166518 74.4341673,157.727903 73.8601131,157.762027 C73.2852257,157.795319 72.5428711,157.762027 72.9477918,157.424951 C73.3527125,157.087043 73.556006,156.412059 72.9819518,156.344644 C72.4078976,156.277229 71.866337,156.479474 71.7655234,155.938489 C71.6638767,155.399167 70.7857154,155.399167 70.5824219,155.905197 C70.3799615,156.412059 69.7042606,156.277229 69.7375874,155.736243 C69.7717474,155.668828 68.3186987,154.927261 66.86565,155.264337 C66.9672968,153.712124 65.0751675,152.935601 63.7912524,153.914369 C62.6764708,153.914369 62.2707169,154.452858 61.9324499,154.89397 C61.595016,155.331752 58.6555918,158.234766 58.4531315,158.470302 C58.2506712,158.706672 58.0132177,158.234766 58.1148645,157.424951 C58.2165112,156.614305 58.9596989,156.208982 58.8922122,155.568121 C58.8247254,154.927261 58.5881051,153.407507 57.3041899,153.947661 C56.0202748,154.487814 54.97298,154.757475 54.6013861,154.622645 C54.2297923,154.487814 53.6890649,153.981784 53.317471,154.791599 C52.303503,155.061259 51.9327423,154.452858 51.4595017,154.452858 C50.986261,154.452858 50.5130204,154.825722 49.7356727,153.881078 C48.9591582,152.934769 46.7962486,150.909817 46.9653821,153.239385 C46.3913279,153.509046 46.0530609,153.204429 46.0530609,153.103723 C46.0530609,153.003016 45.6139802,152.934769 45.7147938,152.3272 C45.8164406,151.719631 44.9041193,151.484094 44.9041193,152.057539 C44.9041193,152.631817 44.8707925,152.901477 44.3642251,152.834062 C43.8568245,152.766647 43.3502571,152.191537 43.4177438,151.484094 C43.4852306,150.774987 43.5527174,150.268957 42.8436896,150.370496 C42.1338287,150.471202 41.1540207,150.774987 40.68078,150.437911 C40.2075394,150.100835 39.5993252,149.559849 40.1400526,149.222773 C40.68078,148.884865 40.9507272,147.906097 40.0725659,148.209881 C39.1944046,148.514498 38.4845436,148.209881 37.9104894,147.534897 C37.3356021,146.859913 36.1874937,146.150806 36.2549805,145.240285 C36.3224672,144.328932 36.1533337,143.451703 35.3426592,143.451703 C34.5311515,143.451703 34.0245841,143.722195 33.8221238,143.991024 C33.6196634,144.260684 33.113096,144.159978 33.078936,143.619824 C33.044776,143.079671 32.2674283,140.244905 30.1728387,140.244905 C29.3288374,138.388075 28.2807094,137.376847 27.4700349,137.410139 C26.9626343,137.410139 27.0976079,136.835862 27.1659278,136.262417 C27.2334146,135.688139 27.0309542,135.418479 26.4227401,135.282816 C25.8145259,135.147986 24.8347178,134.101802 24.5639376,134.641956 C24.2939905,135.182109 23.7191031,134.608664 23.6857763,135.351063 C23.6516163,136.093462 22.9759153,136.397247 22.6384815,136.599492 C22.3002144,136.801738 21.8952937,136.532077 21.8952937,135.82297 C21.8952937,135.114694 21.6586734,135.114694 21.2195928,134.540417 C20.779679,133.966972 19.7323841,133.08891 19.0233564,132.853373 C18.3134955,132.616172 18.5834426,131.94202 18.5501158,131.638236 C18.516789,131.334451 18.2460087,130.997376 17.8402548,130.658635 C17.4353342,130.321559 16.8946068,129.579993 16.4888529,129.579993 C16.0839323,129.579993 15.4415581,129.81553 15.1707778,129.005715 C14.9008307,128.195069 14.5292368,126.103534 13.9885094,126.237532 C13.4486152,126.373195 13.143675,126.57544 12.7729143,126.94664 C12.4004872,127.317839 11.7931062,127.049011 12.0288934,126.407319 C12.2655137,125.765626 13.0087014,125.528425 12.6029476,124.888397 C12.1980269,124.245872 12.5354608,124.145165 12.8062411,123.538429 C13.0761882,122.93086 12.9078878,122.795198 12.6371075,122.323291 C12.3671604,121.849721 11.8939198,121.411106 11.8939198,119.79231 C11.9280798,119.2172 11.9947334,119.049079 12.6029476,119.08237 C13.2119949,119.115661 13.7860491,119.014955 13.7860491,119.520985 C13.7860491,120.027015 14.191803,121.242984 14.6642104,121.108154 C15.137451,120.972491 15.0024775,120.533877 15.778992,120.399046 C16.5563397,120.264216 17.2995274,120.331631 17.4353342,120.027015 C17.5703077,119.724062 17.7386081,119.352031 17.5028209,119.115661 C17.2662006,118.880125 16.7937932,117.967939 17.4011742,117.461909 C18.0093884,116.955879 17.9419016,116.888464 17.0629071,116.517265 C16.185579,116.146065 15.4757181,115.234712 15.8473119,114.593852 C16.2189058,113.952159 16.8604468,113.71579 16.454693,113.108221 C16.0497723,112.501485 14.9516541,111.809855 15.9147987,111.252224 C16.8646126,110.702915 17.909408,110.49734 17.1103978,109.762432 C17.0987334,109.752445 17.0912349,109.744122 17.0804037,109.733302 C16.2189058,108.974257 15.778992,107.944719 15.137451,107.911428 C14.4950769,107.876472 14.2251298,107.944719 14.191803,106.72875 C14.157643,105.514445 13.8535359,104.029646 14.0226694,103.387954 C14.191803,102.746261 14.7316972,101.734202 13.8193759,101.869864 C12.9078878,102.004695 8.17714798,100.856972 8.21130795,98.2577433 C6.89323285,98.56236 6.41999223,98.5282363 6.41999223,98.122913 C6.41999223,97.7175898 6.38666543,97.5827594 6.04923153,97.380514 C5.71096447,97.1774362 4.96694357,96.7055301 5.60931772,96.3334982 C6.25169187,95.963131 6.41999223,95.0509456 6.38666543,94.106301 C6.35250545,93.1616565 5.64347769,92.1487645 4.39288937,92.1828882 C4.5286961,90.8995033 3.37975452,90.0222739 2.1291662,90.3934734 C1.62259878,89.516244 0.946897822,89.0093819 0.372843621,89.6851981 C-0.0670701933,89.2807071 0.20371009,88.334398 0.710277513,88.2336914 C1.21684494,88.1329848 1.75757233,87.356462 2.02835262,87.9640308 C2.29829973,88.5707672 2.53408687,88.9760905 2.9065139,88.773845 C3.27810777,88.5707672 4.42704934,88.503352 3.85216197,87.8624919 C3.27810777,87.2207994 3.00816066,86.8163084 3.4139145,86.0397856 C3.818002,85.2632629 3.71718842,84.4875724 3.54888805,84.2853269 C3.37975452,84.0822491 3.34642772,82.731449 3.9879687,82.3943732 C4.62950968,82.0572974 4.5620229,81.6186827 3.85216197,81.0785291 C3.14313421,80.5383755 1.45429842,79.2566552 1.04854457,80.2004674 C0.777764291,80.6399144 0.000416585052,80.6732059 0.000416585052,79.5596073 C0.000416585052,78.4460087 -0.0329102191,78.176348 0.338683647,77.9058551 C0.710277513,77.6353622 1.14935816,77.4664081 0.60863076,77.0960409 C0.0687365335,76.7248413 0.0345765593,74.8338877 0.744437487,75.0028417 C1.45429842,75.1709635 2.1291662,74.6990573 2.09583939,73.990782 C2.06251259,73.2816744 2.16332617,72.3029061 2.9065139,72.0324132 C3.64970164,71.7627525 3.92048192,71.5272156 4.22375584,71.964998 C4.5286961,72.404445 4.69699646,72.5051516 5.30521063,71.8975828 C6.15004512,71.0203535 7.06319955,71.6279222 7.06319955,71.2225989 C7.06319955,70.818108 7.50144702,69.8726311 7.87304089,70.5143236 C8.24463476,71.1551838 8.95449568,71.2567227 9.39357633,70.7839842 C9.83265697,70.3112458 10.812465,70.2446629 10.846625,70.547615 C10.880785,70.8513994 10.9141118,71.6279222 10.7116514,71.7627525 C10.5091911,71.8975828 10.5758447,72.5725667 11.0157585,72.5725667 C11.4548392,72.5725667 11.8597598,72.6399819 12.0630533,72.404445 C12.2655137,72.1672435 12.4346472,72.0998283 12.9412146,72.4718601 C13.4486152,72.8430597 13.9210227,72.9104748 14.1243162,72.5725667 C14.3267765,72.2354909 16.1172591,70.6150302 16.2189058,70.1090003 C16.3197194,69.6029705 17.1987139,69.1976472 17.8744148,69.8726311 C18.5501158,70.547615 19.0566832,70.1422918 19.7323841,70.5817388 C20.6447054,70.4469084 21.4553799,70.4801999 21.7261602,70.7165691 C21.9961073,70.952106 22.0302673,71.0536449 22.5709947,70.5143236 C23.1117221,69.97417 24.2265037,68.6233699 25.6453924,68.3537093 C27.064281,68.0840486 28.2807094,67.5771865 28.5848165,67.8485117 C30.0720251,67.7469728 30.2061655,67.5097713 30.443619,67.2742344 C30.6802393,67.0378652 31.2201335,66.6333742 31.7608609,67.0711566 C32.3015883,67.5097713 32.740669,67.5097713 32.740669,67.0711566 C32.740669,66.6333742 32.7073422,63.0220855 33.6871502,62.9879618 C34.0579109,62.9205466 35.1393657,62.8864229 34.8019318,62.4810996 C34.4636647,62.0766087 34.5311515,61.4349162 35.1393657,61.5031637 C35.748413,61.5705788 36.4232808,61.3333773 36.2208205,60.9280541 C36.0183601,60.5235631 35.8492266,60.0508247 36.1533337,59.4773797 C36.4574408,58.9039346 35.7134199,56.6426137 35.7817398,55.5290151 C35.8492266,54.4145842 35.8492266,53.1994468 36.4232808,52.7608321 C36.9981682,52.3222174 36.9306814,51.849479 36.4574408,51.444988 C35.9842002,51.0396647 35.2076856,51.1736628 34.8694186,51.3775728 C34.5311515,51.5798183 34.3628511,49.9252338 35.9500402,49.7904035 C36.3224672,49.8578187 37.065655,49.9252338 37.403922,49.7562798 C37.7413559,49.588158 38.1129498,49.8245272 38.8561375,49.8919424 C39.5993252,49.9593576 40.0725659,49.7562798 40.4108329,49.6214495 C40.7482668,49.4866192 42.8095297,49.1836671 42.8095297,49.7229884 C42.8095297,50.2639742 43.4852306,50.9040021 43.8568245,50.6343415 C44.2284183,50.3646808 45.005766,50.1624353 45.1748996,50.7691718 C45.3431999,51.3775728 45.7831138,51.5456946 46.1880344,51.0729562 C46.5937883,50.60105 46.8295754,49.6555732 46.3913279,49.419204 C45.9514141,49.1836671 45.1407396,48.9131741 45.6139802,48.2381902 C46.0863877,47.5632063 46.661275,46.8882224 46.6946018,46.4496077 C46.7287618,46.0101608 47.5735963,44.4579475 48.1143237,43.7496721 C48.6550511,43.0405645 49.7015127,41.4542275 49.7015127,40.8466587 C49.7015127,40.23909 50.3438869,38.821707 51.0870746,39.799643 C51.8302624,40.7784113 53.5199313,41.8928422 54.3980926,41.7913033 C55.2770871,41.6905967 57.0342428,41.8587185 56.8317825,42.7034887 C56.628489,43.5465944 57.2367032,43.4450555 57.7774306,42.8716104 C58.318158,42.2973331 59.0613457,42.3314569 59.5345863,42.3314569 C60.0069938,42.3314569 60.953475,41.6905967 60.8859882,40.6777047 C60.8185014,39.6648127 60.5818811,37.2345377 60.8859882,36.5262624 C61.1900953,35.8171548 61.7983095,34.3323566 62.4740104,34.3323566 C63.1488782,34.3323566 65.244301,34.5346021 65.7508684,34.0285723 C66.258269,33.5225424 66.5623761,32.8134348 66.4265694,32.476359 C66.2915958,32.1384509 66.4948893,31.0581437 67.4405374,31.0581437 C68.3870187,31.0581437 68.7919393,31.02402 68.9952328,31.3960518 C69.1976932,31.7672513 69.5018003,31.463467 69.9750409,31.1263912 C70.4474483,30.7884831 71.7655234,30.9233134 71.224796,31.2953452 C70.6840686,31.6657125 71.0898225,32.0710357 70.6499087,32.4430675 C70.210828,32.8142671 70.4807751,33.454295 70.9540157,33.4875864 C71.4272564,33.5225424 71.5289031,34.3664804 71.0223357,34.4338955 C70.5149351,34.5004784 71.190636,35.075588 72.1371173,35.480079 C73.0827654,35.8845699 73.1169253,36.4255558 73.1844121,37.1338311 C73.2518989,37.8429388 74.5691408,38.0451842 74.8065943,38.5845055 C75.0432146,39.1254914 75.6505956,39.3610283 76.1238362,38.7542919 C76.5970768,38.1467231 76.9686707,38.5845055 77.0028307,39.3610283 C77.0361575,40.1383834 77.1711311,40.1716748 77.9826387,40.0709682 C78.7933132,39.9694294 79.0632604,40.1716748 78.9957736,40.5428744 C78.9957736,41.4542275 80.0089084,40.8799502 79.9755816,41.3868123 C79.9422548,41.8928422 79.9422548,43.8503787 80.7529293,44.9298536 C81.5636038,46.0101608 82.2734648,47.3268371 81.3944703,49.014713 C80.9895496,49.6214495 81.1245232,49.9252338 81.3611435,50.3305571 C81.5969306,50.7358804 81.19201,51.6131097 80.3130155,52.1532633 C79.4348542,52.6934169 79.0974203,55.1578156 80.5837958,56.000089 C82.0710044,56.8448592 83.0499793,56.7100289 83.3207596,57.181935 C84.7054883,57.7229209 87.4091253,57.9584578 88.152313,57.9584578 C88.8955007,57.9584578 92.0715452,58.2289507 92.8147329,60.6583934 C93.6262406,60.7258086 93.9636745,60.6583934 94.4027551,61.2318384 C94.8418358,61.8061157 96.6664783,63.3250376 97.2072057,63.2576224 C97.7479331,63.1902073 98.3561473,62.5485148 98.423634,63.1902073 C98.4911208,63.8310674 97.9845534,64.7424206 98.5927676,64.8098357 C99.2001486,64.8772509 99.5384156,64.6408817 99.5725756,65.6878974 C99.6067356,66.7340808 100.34909,68.6233699 100.34909,69.0295255 C100.581545,70.1855706 102.561157,71.3432804 102.388691,72.5950385 C102.385358,72.6216716 102.382025,72.6474725 102.376193,72.6741056 C103.775086,72.3994513 104.85904,72.2554658 106.011314,72.416097 C106.418734,72.4726924 106.835319,72.567573 107.276066,72.7073971 C108.965735,73.2483829 114.945397,74.2604426 116.432606,73.8209957 C117.918981,73.3832133 118.324735,73.1135526 119.270383,73.5180436 C120.216864,73.9225345 121.331646,74.3619815 122.717208,74.159736 C124.101937,73.955826 125.318365,74.2612749 125.723286,75.1043806 C126.129039,75.9483185 126.669767,76.5558873 128.156976,76.7922565 C129.643351,77.0277934 132.007888,77.3657015 134.103311,78.9512062 C136.43452,78.4460087 137.718436,77.6686536 137.616789,78.1422243 C137.515142,78.6141304 137.515975,79.4247769 138.29249,79.5254835 C139.069838,79.6270224 139.441431,79.998222 140.320426,79.2558229 C141.198587,78.5134238 147.178249,74.4635204 151.808175,74.395273 C156.437268,74.3278578 158.327731,74.3619815 158.801805,73.7535805 C159.275046,73.146844 160.389827,72.6066905 161.267989,72.5725667 C162.146983,72.5392753 162.822684,71.7627525 163.464225,70.547615 C164.106599,69.3333098 164.781467,67.9492183 166.132869,67.374941 C167.485104,66.801496 169.478047,65.6878974 168.938153,64.8439594 C168.397425,64.0000215 166.302836,62.1440238 166.404482,61.5031637 C166.505296,60.8614712 166.91105,60.3554413 166.87689,59.61221 C166.843563,58.8706432 167.722557,57.0138133 168.769019,57.1145199 C169.816314,57.2152265 170.357041,57.3508891 171.268529,58.0599967 C172.180851,58.768272 174.749514,58.9713498 175.391055,58.5660265 C176.033429,58.1615356 177.958885,56.60849 178.871207,54.7857838 C179.141987,54.0433847 179.243634,53.8752629 179.952661,53.9759695 C180.662522,54.0775084 182.722952,53.9085544 183.838567,53.0646164 C184.953348,52.2206785 185.392429,52.018433 185.392429,51.0729562 C185.392429,50.1283116 185.798183,46.6859769 189.750742,47.1578831 C189.819062,46.5503143 189.581608,45.1670551 190.021522,45.6056698 C190.461436,46.0434522 190.79887,46.3821926 191.338764,45.842039 C191.880325,45.3018854 192.927619,44.2215783 193.669974,44.4238237 C194.413995,44.6260692 194.583128,44.3564086 194.784755,44.1541631 C194.988049,43.9519176 195.832883,43.6473009 196.576071,44.255702 C197.319259,44.8624384 199.482169,44.1882868 199.516329,43.4791792 C199.549655,42.7709038 199.516329,41.1504431 195.224669,38.213306 C194.616455,37.9436454 193.56916,37.9103539 193.265053,37.1671226 C192.961779,36.4255558 192.285245,36.4255558 191.677031,36.5262624 C191.068817,36.6278013 189.649095,37.066416 188.80426,39.0913677 C188.6018,39.6648127 187.994419,39.6981041 187.892772,39.2603217 C187.791959,38.821707 186.912964,38.0784757 185.933156,38.4496752 C184.953348,38.821707 184.277647,38.7875833 183.838567,38.7875833 C183.399486,38.7875833 183.095379,39.4958586 183.061219,39.799643 C183.027892,40.1042597 182.689625,40.3739203 182.351358,40.0368445 C182.013924,39.6981041 179.986821,38.213306 181.13493,37.2345377 C181.439037,36.9648771 181.777304,37.0322922 181.709817,35.9519851 C181.64233,34.8725102 181.743977,34.5687258 182.216384,34.0285723 C182.183058,32.6111893 183.162866,29.3369764 183.567786,28.3582081 C183.97354,27.3794398 184.277647,26.8900557 185.071658,27.4135636 C185.86567,27.9370714 187.352045,27.7339936 187.722806,28.037778 C188.096066,28.3415624 188.703447,28.3582081 188.87258,27.8854697 C189.041714,27.4135636 190.88302,24.9999343 191.930315,24.9658106 C192.97761,24.9325192 193.68747,24.3415961 193.805781,23.6840902 C193.924091,23.0249198 193.872434,22.6370745 193.365867,22.3674139 C192.860133,22.0977532 192.665171,21.3886456 193.222562,20.8318463 C193.779952,20.275047 193.805781,19.8447552 193.754957,19.4402642 C193.704134,19.0341086 193.704134,18.7561251 194.134883,17.9463109 C194.565632,17.1356644 194.79392,13.6167594 196.087,12.7828089 C197.378414,11.9471938 197.353419,10.2251942 196.745205,10.0479173 C196.441098,9.8456718 196.618563,7.28888937 195.250498,7.94722755 C194.185706,8.42828883 193.831609,8.45325741 193.805781,7.92225897 C193.779952,7.39042825 194.514808,6.65635205 194.743097,6.12452133 C194.971386,5.59269061 195.959525,3.36549342 196.998488,3.36549342 C197.355085,3.36549342 197.843323,3.12995649 198.383217,2.82117841 C199.421347,2.23108767 200.651939,1.37383315 201.5351,1.39131115 C202.87817,1.41627973 203.76383,0.73214068 204.143755,0.505758903 C204.524514,0.276880267 206.298333,-0.355657052 207.667232,0.682203523 C209.035297,1.7200641 210.606656,1.7200641 211.26486,1.18823338 C211.923898,0.656402659 214.129299,0.935218451 215.775643,3.06170905 C217.42282,5.18819964 218.234328,5.8715064 218.310147,6.63055118 C218.385965,7.39042825 220.869645,9.59182458 220.996287,10.6305174 C221.072105,12.6305006 223.758246,13.9713132 223.758246,14.9084672 C223.758246,15.8447889 223.784074,16.3258502 224.873027,16.275913 C224.594749,18.0212167 226.115284,19.9204932 227.407531,19.9962312 C228.699778,20.0719692 228.953061,19.5917402 229.307992,19.2629873 C229.662089,18.933402 230.118666,18.4273722 230.929341,19.1614484 C231.741682,19.8946923 232.222421,20.0470006 232.906454,19.5659394 C233.589653,19.0857104 233.767118,19.2629873 234.628616,20.1477072 C235.490947,21.0349241 236.859013,21.9454449 237.797162,21.3129076 C238.734478,20.6803703 239.469334,20.7303074 239.064414,21.3886456 C238.65866,22.0461515 238.532018,22.6295839 239.291869,22.9583369 C240.05172,23.2870898 240.78741,24.0469669 240.483302,24.9832886 C240.178362,25.9196103 240.711591,26.0461177 241.218159,26.6536865 C241.724726,27.2612552 241.952181,28.0203 242.611219,27.4385321 C243.269423,26.8567643 243.701839,26.7552254 244.512513,26.7552254 C245.323188,26.7552254 246.362151,25.6915639 247.604407,25.6915639 C248.186793,25.6158259 248.085147,25.4393813 248.110142,24.9325192 C248.135137,24.4264893 249.022463,22.4007053 251.076227,22.4772756 C251.81025,20.5280619 255.28207,18.6795548 255.332893,19.8197866 C255.382883,20.959186 255.053781,21.4893522 255.712819,21.9204763 Z M176.70888,204.10246 C177.249608,204.10246 176.844687,205.284306 177.114634,205.520675 C177.385414,205.756212 177.147961,206.532735 176.236473,206.701689 C176.236473,206.701689 175.796559,207.984242 175.087531,208.219779 C174.37767,208.456148 174.20937,208.963842 174.749264,209.535623 C175.289991,210.110732 174.952558,210.178148 174.613457,210.582639 C174.276023,210.987962 174.545971,210.987962 174.445157,211.662946 C173.803616,211.629654 172.283081,212.777377 172.317241,213.552235 C172.350567,214.32959 171.911487,214.126512 171.269113,214.093221 C170.627572,214.059097 170.660898,214.32959 170.356791,214.801496 C170.053517,215.274234 169.545284,215.543895 169.342823,215.106113 C169.140363,214.666666 168.430502,214.734081 167.620661,214.734081 C166.809153,214.734081 165.930159,214.160636 165.423591,214.059097 C164.917857,213.95839 164.680403,213.82356 164.78205,213.48482 C164.883697,213.147744 164.275483,212.034145 164.241323,211.292578 C164.207996,210.549347 164.275483,209.738701 164.173836,209.266794 C164.072189,208.794056 164.98451,207.883535 165.896832,207.377505 C166.809153,206.869811 167.045773,206.297198 167.755634,206.228951 C168.464662,206.161536 169.005389,205.31843 169.107036,204.8124 C169.208683,204.304706 170.222651,204.980522 170.424278,204.946398 C170.627572,204.913107 171.100812,204.60849 171.168299,204.744153 C171.235786,204.879815 171.674033,204.913107 172.283081,204.169875 C172.891295,203.426644 173.532836,203.901047 173.770289,204.136584 C174.00691,204.372953 174.445157,204.372121 174.445157,203.8328 C174.445157,203.292646 175.155018,203.460768 175.628259,203.8328 C176.101499,204.203999 176.168986,204.10246 176.70888,204.10246 Z M231.917814,165.996997 C232.289408,166.064412 232.593515,166.63869 232.019461,167.009889 C231.44624,167.380256 231.61454,168.461396 231.951974,168.797639 C232.289408,169.135547 232.221921,170.384809 231.917814,170.958254 C231.61454,171.531699 231.78284,171.49924 231.715354,172.443884 C231.647867,173.389361 231.715354,176.122588 231.58038,177.439264 C231.44624,178.754276 230.329792,180.612771 229.857384,181.15126 C229.384144,181.692246 229.619931,182.738429 229.789064,183.143752 C229.958198,183.547411 229.890711,184.189103 229.857384,185.033041 C229.114197,185.403409 229.01255,185.269411 229.01255,184.661842 C229.01255,184.054273 228.302689,183.27775 227.931095,182.839136 C227.560334,182.400521 226.8838,182.501227 226.173939,182.232399 C225.464911,181.961906 225.565725,181.522459 225.532398,180.646062 C225.499071,179.768 224.383457,179.49834 224.383457,179.092184 C224.383457,178.687693 224.585917,177.371017 224.180996,176.662742 C223.775242,175.954466 225.261618,173.085577 225.565725,171.937854 C225.869832,170.790132 225.802345,169.91207 226.44472,169.608286 C227.08626,169.304502 227.119587,168.966593 227.187074,168.056073 C227.254561,167.145552 227.322881,166.604566 228.302689,166.401488 C229.282497,166.199243 229.282497,165.62663 229.552444,165.253766 C229.823224,164.883399 230.363952,165.05152 230.768872,165.457676 C231.174626,165.862167 231.54622,165.929582 231.917814,165.996997 Z M226.850473,136.701114 C226.850473,136.701114 228.70761,136.632867 228.538476,137.545052 L226.850473,137.545052 L226.850473,136.701114 Z" id="path-1"></path>
    </defs>
    <g id="Page-1" stroke="none" stroke-width="1" fill="none" fill-rule="evenodd">
        <g id="ill_02">
            <g id="Group-12" transform="translate(39.000000, 14.000000)">
                <g id="Group-19" transform="translate(130.500000, 111.000000) rotate(1.000000) translate(-130.500000, -111.000000) translate(2.000000, 3.000000)">
                    <mask id="mask-2" fill="white">
                        <use xlink:href="#path-1"></use>
                    </mask>
                    <use id="Mask" fill="#FFFFFF" xlink:href="#path-1"></use>
                    <g mask="url(#mask-2)" fill="#26BDE9">
                        <g transform="translate(161.586791, 125.572741) rotate(20.000000) translate(-161.586791, -125.572741) translate(-69.913209, -46.427259)">
                            <rect id="Rectangle" x="0" y="0" width="3.64022663" height="344"></rect>
                            <rect id="Rectangle-Copy" x="7.28045326" y="0" width="3.64022663" height="344"></rect>
                            <rect id="Rectangle-Copy-3" x="14.5609065" y="0" width="3.64022663" height="344"></rect>
                            <rect id="Rectangle-Copy-2" x="21.8413598" y="0" width="3.64022663" height="344"></rect>
                            <rect id="Rectangle-Copy-7" x="29.121813" y="0" width="3.64022663" height="344"></rect>
                            <rect id="Rectangle-Copy-6" x="36.4022663" y="0" width="3.64022663" height="344"></rect>
                            <rect id="Rectangle-Copy-5" x="43.6827195" y="0" width="3.64022663" height="344"></rect>
                            <rect id="Rectangle-Copy-4" x="50.9631728" y="0" width="3.64022663" height="344"></rect>
                            <rect id="Rectangle-Copy-15" x="58.2436261" y="0" width="3.64022663" height="344"></rect>
                            <rect id="Rectangle-Copy-14" x="65.5240793" y="0" width="3.64022663" height="344"></rect>
                            <rect id="Rectangle-Copy-13" x="72.8045326" y="0" width="3.64022663" height="344"></rect>
                            <rect id="Rectangle-Copy-12" x="80.0849858" y="0" width="3.64022663" height="344"></rect>
                            <rect id="Rectangle-Copy-11" x="87.3654391" y="0" width="3.64022663" height="344"></rect>
                            <rect id="Rectangle-Copy-10" x="94.6458924" y="0" width="3.64022663" height="344"></rect>
                            <rect id="Rectangle-Copy-9" x="101.926346" y="0" width="3.64022663" height="344"></rect>
                            <rect id="Rectangle-Copy-8" x="109.206799" y="0" width="3.64022663" height="344"></rect>
                            <rect id="Rectangle-Copy-31" x="116.487252" y="0" width="3.64022663" height="344"></rect>
                            <rect id="Rectangle-Copy-30" x="123.767705" y="0" width="3.64022663" height="344"></rect>
                            <rect id="Rectangle-Copy-29" x="131.048159" y="0" width="3.64022663" height="344"></rect>
                            <rect id="Rectangle-Copy-28" x="138.328612" y="0" width="3.64022663" height="344"></rect>
                            <rect id="Rectangle-Copy-27" x="145.609065" y="0" width="3.64022663" height="344"></rect>
                            <rect id="Rectangle-Copy-26" x="152.889518" y="0" width="3.64022663" height="344"></rect>
                            <rect id="Rectangle-Copy-25" x="160.169972" y="0" width="3.64022663" height="344"></rect>
                            <rect id="Rectangle-Copy-24" x="167.450425" y="0" width="3.64022663" height="344"></rect>
                            <rect id="Rectangle-Copy-23" x="174.730878" y="0" width="3.64022663" height="344"></rect>
                            <rect id="Rectangle-Copy-22" x="182.011331" y="0" width="3.64022663" height="344"></rect>
                            <rect id="Rectangle-Copy-21" x="189.291785" y="0" width="3.64022663" height="344"></rect>
                            <rect id="Rectangle-Copy-20" x="196.572238" y="0" width="3.64022663" height="344"></rect>
                            <rect id="Rectangle-Copy-19" x="203.852691" y="0" width="3.64022663" height="344"></rect>
                            <rect id="Rectangle-Copy-18" x="211.133144" y="0" width="3.64022663" height="344"></rect>
                            <rect id="Rectangle-Copy-17" x="218.413598" y="0" width="3.64022663" height="344"></rect>
                            <rect id="Rectangle-Copy-16" x="225.694051" y="0" width="3.64022663" height="344"></rect>
                            <rect id="Rectangle-Copy-63" x="232.974504" y="0" width="3.64022663" height="344"></rect>
                            <rect id="Rectangle-Copy-62" x="240.254958" y="0" width="3.64022663" height="344"></rect>
                            <rect id="Rectangle-Copy-61" x="247.535411" y="0" width="3.64022663" height="344"></rect>
                            <rect id="Rectangle-Copy-60" x="254.815864" y="0" width="3.64022663" height="344"></rect>
                            <rect id="Rectangle-Copy-59" x="262.096317" y="0" width="3.64022663" height="344"></rect>
                            <rect id="Rectangle-Copy-58" x="269.376771" y="0" width="3.64022663" height="344"></rect>
                            <rect id="Rectangle-Copy-57" x="276.657224" y="0" width="3.64022663" height="344"></rect>
                            <rect id="Rectangle-Copy-56" x="283.937677" y="0" width="3.64022663" height="344"></rect>
                            <rect id="Rectangle-Copy-55" x="291.21813" y="0" width="3.64022663" height="344"></rect>
                            <rect id="Rectangle-Copy-54" x="298.498584" y="0" width="3.64022663" height="344"></rect>
                            <rect id="Rectangle-Copy-53" x="305.779037" y="0" width="3.64022663" height="344"></rect>
                            <rect id="Rectangle-Copy-52" x="313.05949" y="0" width="3.64022663" height="344"></rect>
                            <rect id="Rectangle-Copy-51" x="320.339943" y="0" width="3.64022663" height="344"></rect>
                            <rect id="Rectangle-Copy-50" x="327.620397" y="0" width="3.64022663" height="344"></rect>
                            <rect id="Rectangle-Copy-49" x="334.90085" y="0" width="3.64022663" height="344"></rect>
                            <rect id="Rectangle-Copy-48" x="342.181303" y="0" width="3.64022663" height="344"></rect>
                            <rect id="Rectangle-Copy-47" x="349.461756" y="0" width="3.64022663" height="344"></rect>
                            <rect id="Rectangle-Copy-46" x="356.74221" y="0" width="3.64022663" height="344"></rect>
                            <rect id="Rectangle-Copy-45" x="364.022663" y="0" width="3.64022663" height="344"></rect>
                            <rect id="Rectangle-Copy-44" x="371.303116" y="0" width="3.64022663" height="344"></rect>
                            <rect id="Rectangle-Copy-43" x="378.583569" y="0" width="3.64022663" height="344"></rect>
                            <rect id="Rectangle-Copy-42" x="385.864023" y="0" width="3.64022663" height="344"></rect>
                            <rect id="Rectangle-Copy-41" x="393.144476" y="0" width="3.64022663" height="344"></rect>
                            <rect id="Rectangle-Copy-40" x="400.424929" y="0" width="3.64022663" height="344"></rect>
                            <rect id="Rectangle-Copy-39" x="407.705382" y="0" width="3.64022663" height="344"></rect>
                            <rect id="Rectangle-Copy-38" x="414.985836" y="0" width="3.64022663" height="344"></rect>
                            <rect id="Rectangle-Copy-37" x="422.266289" y="0" width="3.64022663" height="344"></rect>
                            <rect id="Rectangle-Copy-36" x="429.546742" y="0" width="3.64022663" height="344"></rect>
                            <rect id="Rectangle-Copy-35" x="436.827195" y="0" width="3.64022663" height="344"></rect>
                            <rect id="Rectangle-Copy-34" x="444.107649" y="0" width="3.64022663" height="344"></rect>
                        </g>
                    </g>
                </g>
                <g id="Group-20" transform="translate(150.000000, 91.000000)" fill="#FFFFFF">
                    <path d="M0.729754849,31.3124402 C1.27791918,36.7391526 5.86121385,40.9745518 11.4344086,40.9745518 C16.5841779,40.9745518 20.9466047,37.1934767 22.0028796,32.3595599 C22.0475109,32.2336767 22.0841315,32.2920407 22.105875,32.3572712 C23.0992083,37.2735842 27.4433248,40.9745518 32.6526025,40.9745518 C37.4167113,40.9745518 41.4541304,37.8778238 42.8686004,33.5874938 C43.7852593,31.4520562 43.6353438,29.032809 43.0551365,27.0427092 C39.6688771,15.4122414 25.936159,4.8437704 22.0520885,0.966566321 C18.1657293,4.8437704 4.43301117,15.4122414 1.04675176,27.0427092 C0.658802472,28.3724941 0.496298641,29.8602052 0.729754849,31.3124402" id="Fill-10"></path>
                    <path d="M32.4129666,45.4072443 L32.4129666,44.1507006 C27.3112618,44.0408389 23.0838734,40.3787807 22.1054172,35.5391419 C22.0848182,35.4739115 22.0470532,35.4155475 22.0024219,35.5414307 C20.966746,40.2815073 16.7508016,44.0065071 11.7326375,44.1495562 L11.7326375,45.4072443 L32.4129666,45.4072443 Z" id="Fill-12"></path>
                </g>
            </g>
        </g>
    </g>
</svg>