<?xml version="1.0" encoding="UTF-8"?>
<svg width="340px" height="250px" viewBox="0 0 340 250" version="1.1" xmlns="http://www.w3.org/2000/svg" xmlns:xlink="http://www.w3.org/1999/xlink">
    <!-- Generator: Sketch 45.2 (43514) - http://www.bohemiancoding.com/sketch -->
    <title>ill_03</title>
    <desc>Created with Sketch.</desc>
    <defs>
        <polygon id="path-1" points="3.04361103e-15 102.308485 3.04361103e-15 0.107669279 86.7462733 0.107669279 86.7462733 102.308485"></polygon>
        <polygon id="path-3" points="0.035748512 23.4984831 65.9084618 23.4984831 65.9084618 0.127161463 0.035748512 0.127161463"></polygon>
    </defs>
    <g id="Page-1" stroke="none" stroke-width="1" fill="none" fill-rule="evenodd">
        <g id="ill_03">
            <g id="Group-5" transform="translate(20.000000, 49.000000)">
                <g id="Page-1">
                    <path d="M174.710559,78.4182303 L182.769241,78.4182303 C185.043063,78.4182303 186.887368,76.8963193 186.887368,75.0211074 C186.887368,73.1450463 185.043063,71.6239846 182.769241,71.6239846 L174.710559,71.6239846 L174.710559,64.0122801 C174.710559,61.7383441 173.189497,59.8931531 171.313436,59.8931531 C169.438224,59.8931531 167.916313,61.7383441 167.916313,64.0122801 L167.916313,71.6239846 L159.299014,71.6239846 C157.025192,71.6239846 155.180888,73.1450463 155.180888,75.0211074 C155.180888,76.8963193 157.025192,78.4182303 159.299014,78.4182303 L167.916313,78.4182303 L167.916313,87.4813002 C167.916313,89.7552362 169.438224,91.5996333 171.313436,91.5996333 C173.189497,91.5996333 174.710559,89.7552362 174.710559,87.4813002 L174.710559,78.4182303 Z" id="Combined-Shape" fill="#26BDE9"></path>
                    <g transform="translate(213.054830, 0.000000)">
                        <g id="Group-3" transform="translate(0.000000, 0.084941)">
                            <mask id="mask-2" fill="white">
                                <use xlink:href="#path-1"></use>
                            </mask>
                            <g id="Clip-2"></g>
                            <path d="M86.2495642,72.8839545 L46.8198801,2.1296367 C46.1243635,0.881520554 44.8049814,0.107611496 43.3735001,0.107611496 C41.9412483,0.107611496 40.6218662,0.881520554 39.9263497,2.1296367 L0.496665479,72.8839545 C-0.535919503,74.7368677 0.0914129514,77.0726554 1.91504933,78.1634088 L41.3447335,101.748181 C41.9689842,102.121653 42.6710495,102.308485 43.3735001,102.308485 C44.0751802,102.308485 44.7776308,102.121653 45.4016888,101.748181 L84.831373,78.1634088 C86.6548168,77.0726554 87.2821492,74.7368677 86.2495642,72.8839545 M62.008375,52.6683251 C60.8879596,49.4355501 58.9452899,46.5829884 56.4290262,44.3606482 C56.426137,44.3577591 56.4230552,44.3550625 56.4197808,44.352366 C56.1131449,44.081363 55.797071,43.8203757 55.4740632,43.5688264 C55.4607731,43.5590033 55.4482534,43.5487949 55.4353485,43.5385866 C55.119082,43.2941638 54.7953037,43.0589864 54.4642063,42.8338247 C54.4424413,42.8189937 54.4206763,42.80397 54.3991039,42.7889464 C54.0733995,42.5691778 53.7415316,42.359425 53.4023445,42.1589174 C53.3732603,42.1415825 53.3439835,42.1242475 53.3143215,42.1069126 C52.979757,41.9112203 52.6384512,41.7249659 52.2911744,41.5483421 C52.2565045,41.5308145 52.2218346,41.5134796 52.1865869,41.4961446 C51.8412362,41.3231804 51.4906851,41.1600393 51.1343556,41.0071065 C51.0960262,40.990542 51.0569262,40.9749406 51.0184041,40.9583761 C50.7073381,40.8275935 50.3929978,40.7014336 50.0736495,40.5862525 L50.0724939,40.5920309 C49.2042057,40.2780757 48.309915,40.0182441 47.3900072,39.8275597 C46.6827414,41.1773742 45.6985016,42.3680924 44.6245054,43.3954769 C46.2954016,43.5260669 47.8892537,43.9234224 49.3733177,44.5332273 C50.2454581,44.8910976 51.078306,45.3246639 51.8637717,45.8262217 C51.9044125,45.8522241 51.9465942,45.87553 51.9866572,45.9019176 C52.1917874,46.0353967 52.389791,46.1781211 52.5879872,46.3208455 C52.6787068,46.3861404 52.771545,46.4485462 52.8605311,46.5153821 C53.0383106,46.649439 53.2103118,46.7900447 53.3821204,46.9312282 C53.485167,47.0157842 53.5891767,47.0986067 53.6897194,47.1856667 C53.8493935,47.3235758 54.0040597,47.4666854 54.1577629,47.6105655 C54.2635061,47.7095673 54.3690567,47.8081839 54.4724885,47.9100749 C54.6167538,48.0527992 54.7571669,48.1989906 54.8958464,48.3471081 C55.0004339,48.4588222 55.1036732,48.5711141 55.2049863,48.68591 C55.3355762,48.8338349 55.463277,48.9834933 55.5884739,49.1360408 C55.6892092,49.2595041 55.7874405,49.3848936 55.8849014,49.5110535 C56.0023939,49.663601 56.1181528,49.816919 56.2298669,49.9737039 C56.3261721,50.1085313 56.41824,50.2460552 56.5101152,50.3841569 C56.6139322,50.5401715 56.7183271,50.696186 56.8167511,50.8558601 C56.9076633,51.0032071 56.9924119,51.1542138 57.0783162,51.3046426 C57.1686505,51.4627758 57.2605258,51.6195608 57.3458522,51.7807758 C57.4311787,51.9439169 57.5091859,52.1112955 57.5893119,52.2779035 C57.6642374,52.4331476 57.7426299,52.5864656 57.8129327,52.7444062 C57.9019188,52.9466473 57.9806965,53.1540888 58.0615929,53.3605673 C58.4874547,54.4478536 58.8025656,55.590034 58.9768781,56.7795966 L58.9791894,56.7792113 L59.4736206,58.655623 C59.6812547,59.4362734 61.6300879,66.3467535 66.1215726,68.6748369 C71.2746744,71.3463447 78.1025246,74.6910264 80.7861669,75.9986592 L45.3448687,97.1981431 L45.3448687,82.6545082 C45.3448687,80.3622504 49.9116641,77.6784155 52.0174749,76.7315422 L52.1434421,76.6629728 L52.1438274,76.6643211 C52.5814385,76.4468638 53.0080708,76.2103381 53.4264208,75.961678 L53.601889,75.8657579 L53.5963033,75.8540087 C54.5169815,75.2948603 55.3864254,74.661557 56.1998196,73.9641143 L56.2042497,73.9739374 C56.2801382,73.9086425 56.3523672,73.8398805 56.4269074,73.7734299 C56.5110782,73.6994674 56.5940934,73.6249272 56.6765307,73.5494238 C56.9340509,73.3142464 57.1854077,73.0736759 57.430023,72.8254009 C57.4648855,72.7905384 57.5005185,72.7574094 57.5349957,72.7223543 C57.8027244,72.4461508 58.0602446,72.1599316 58.3116013,71.8687045 C58.3878751,71.7808741 58.4614523,71.691888 58.5359926,71.6025167 C58.7363075,71.362524 58.9306515,71.1175234 59.1196025,70.8679002 C59.172763,70.7970195 59.2284274,70.7284502 59.2808175,70.6571843 C59.5071348,70.3493927 59.7232438,70.0340893 59.931841,69.7133928 C59.953606,69.6798785 59.9780675,69.6488683 59.9992547,69.6155466 L59.9955951,69.6116944 C60.2800808,69.167342 60.5508912,68.7139368 60.7993588,68.2464711 C59.7459719,66.9771678 58.9090792,65.5797785 58.2584408,64.2684861 C57.9729921,65.080532 57.619937,65.860412 57.2106396,66.6052369 C57.0340158,66.9268964 56.846991,67.2420072 56.6487948,67.5499915 C56.6218293,67.5914027 56.5925525,67.6320435 56.5650092,67.6736474 C56.393008,67.9352125 56.2129172,68.1909993 56.0258923,68.4413929 C55.9723466,68.5134293 55.9174526,68.5848878 55.8627512,68.655961 C55.6751486,68.8990355 55.4802267,69.1363317 55.2787561,69.3674643 C55.2425454,69.409646 55.2074903,69.453176 55.1703164,69.4947798 C53.8761664,70.9495671 52.3164064,72.1639764 50.5651916,73.0600005 L50.229664,73.2329648 C49.3303655,73.6351355 41.4019388,77.214802 41.4019388,82.6545082 L41.4019388,97.1981431 L5.83794773,75.926045 C8.13193899,74.508239 14.8105161,70.5362249 20.3089685,68.8054268 C22.4440561,68.1328309 27.0264529,70.9975271 29.6132121,73.1316516 L29.7694193,73.2703312 L29.7632557,73.2745686 C30.1041763,73.5995026 30.4603132,73.906909 30.8228062,74.2066109 L30.9526257,74.3219846 L30.9574409,74.3163989 C31.7769987,74.981483 32.6504874,75.5824278 33.5715509,76.1111437 L33.5715509,76.1115289 L33.5719361,76.1115289 C33.775718,76.2286361 33.9829669,76.3415059 34.1913715,76.4514865 C34.2316271,76.4728663 34.2726531,76.4940534 34.3129087,76.5148554 C34.90769,76.8234174 35.5198062,77.101547 36.1482944,77.3498219 C36.2370878,77.3846845 36.3253034,77.4214731 36.4152525,77.4549873 C36.4784288,77.4790636 36.5398715,77.5066069 36.6036256,77.5297202 L36.6061296,77.5239419 C37.4988793,77.8513797 38.4199428,78.1191084 39.3673939,78.314608 C40.0844829,76.96306 41.0822054,75.7698379 42.1797001,74.7432238 C40.6436312,74.6290058 39.1709312,74.29213 37.7889507,73.7699629 C37.70921,73.739723 37.6288914,73.7110241 37.5491507,73.6796285 C37.3927509,73.617608 37.2380847,73.5509647 37.0838036,73.4841289 C37.0050259,73.4498442 36.925863,73.4171004 36.8478558,73.3816601 C36.6953082,73.3125129 36.5448794,73.2385505 36.3946432,73.164588 C35.3406785,72.6449248 34.3531643,72.0125845 33.4484727,71.2810498 L32.0337485,69.9980711 C31.9565117,69.934317 30.2326476,68.36223 27.8321427,66.9983549 C24.3127633,64.9988652 21.3827721,64.3455303 19.1217173,65.0568409 C14.420865,66.5368601 9.12465359,69.4067568 5.88918213,71.3014665 L41.4019388,7.5760843 L41.4019388,35.4847704 C41.4019388,36.4745958 39.9398324,39.0555768 35.0608154,41.2492179 L34.7206652,41.4300792 L34.7131534,41.41833 C34.2391389,41.650233 33.7776441,41.9025528 33.3261651,42.1702814 L33.2323637,42.2201676 L33.2344825,42.2253681 C32.3093741,42.7806642 31.4339593,43.4093449 30.6155573,44.1035132 L30.6155573,44.103128 C30.6095863,44.1081359 30.6041932,44.1137216 30.5980297,44.1187294 C30.0816409,44.5578814 29.5887506,45.0228432 29.1205144,45.5118813 C29.104913,45.5280606 29.0895041,45.5440473 29.0740953,45.5602265 C28.6141414,46.0436789 28.1784564,46.5508224 27.769159,47.0791531 C27.750861,47.1022663 27.7323704,47.1255722 27.714265,47.1490707 C27.5170319,47.4058205 27.3257696,47.6675782 27.1412488,47.9339586 C27.1192912,47.9659319 27.0982966,47.9980979 27.076339,48.0298786 C26.9066491,48.2779609 26.7423524,48.5298955 26.5838339,48.7862601 C26.566499,48.8138034 26.5487788,48.8413467 26.5314439,48.8686974 C26.3708067,49.1314181 26.2174887,49.3981837 26.0693712,49.6686089 C26.0337383,49.7331334 25.9990684,49.7980431 25.9643985,49.8627603 C25.827645,50.1195101 25.6945512,50.378186 25.5689691,50.641292 C25.5491302,50.6815476 25.5302544,50.7229588 25.5113786,50.7637923 C25.395427,51.0099485 25.2858316,51.2597644 25.1800885,51.5118915 C25.141759,51.6029963 25.1040073,51.6942937 25.0670261,51.7857837 C24.9620534,52.0467709 24.8615107,52.3094917 24.7677094,52.5754868 C24.7349656,52.6687103 24.7054962,52.7630894 24.673908,52.8565055 C24.6072648,53.0554722 24.5437033,53.2552093 24.4834162,53.4564873 C24.4502872,53.5676236 24.4160025,53.678182 24.3849923,53.7900887 C24.3127633,54.0472238 24.2461201,54.3066701 24.1846773,54.5680426 C24.1544375,54.6942025 24.1278572,54.821518 24.1001213,54.9488336 C24.0606361,55.131621 24.0244254,55.3157566 23.9905259,55.5000849 C23.9604787,55.6618777 23.9317797,55.8238632 23.9057773,55.9870043 C23.8711074,56.2063877 23.8395193,56.4269267 23.811976,56.6486214 C23.794641,56.7913458 23.7782691,56.9348406 23.7638233,57.0781429 C23.7439845,57.274413 23.7278052,57.4712609 23.7137446,57.6690719 C23.6998766,57.8651494 23.6892831,58.06219 23.6810008,58.2598084 C23.6763782,58.3813456 23.6692516,58.5019198 23.6663624,58.6242275 L23.6707925,58.6249979 C23.6675181,58.7731154 23.6580802,58.9202698 23.6580802,59.069543 C23.6580802,60.062065 23.7343539,61.0374446 23.8774635,61.9904815 C25.2700376,62.3211937 26.7438933,62.8814977 28.2892074,63.6710082 C27.8677756,62.296347 27.6314425,60.8415597 27.6062105,59.3353455 L27.6065958,59.3353455 C27.6050549,59.2469373 27.6015879,59.1589143 27.6015879,59.069543 C27.6015879,58.7153323 27.617382,58.3647811 27.6404952,58.0161561 C27.6464661,57.9240882 27.6539779,57.8325983 27.6616824,57.7405304 C27.6874922,57.4335093 27.7206212,57.128992 27.7639586,56.8269787 C27.7703147,56.7849896 27.7737817,56.7420375 27.7803304,56.7000484 C27.8313722,56.3627874 27.8960894,56.0299564 27.9681257,55.6996294 C27.9868089,55.6156512 28.0072256,55.5318656 28.0270645,55.44808 C28.0929373,55.1707209 28.1653589,54.8962509 28.2454848,54.6246701 C28.2630124,54.5649608 28.2788065,54.5039033 28.2971045,54.4445793 C28.3957211,54.1254236 28.5047386,53.8110833 28.6228089,53.5007877 C28.6499669,53.4297144 28.6790511,53.3597968 28.7075575,53.2889162 C28.8104115,53.0294698 28.9198143,52.7740682 29.0359584,52.5217485 C29.0654278,52.4579944 29.093549,52.3930846 29.1234036,52.3299084 C29.2668984,52.0292434 29.4190607,51.7335862 29.5808536,51.4437074 C29.6085895,51.3943991 29.6380589,51.3464391 29.66618,51.2971308 C29.8100601,51.0461593 29.9606815,50.7996178 30.1174665,50.5569286 C30.1550255,50.4989528 30.1920067,50.4403992 30.2307214,50.3830013 C30.4183241,50.1014047 30.6132459,49.8252012 30.8181835,49.5570874 C30.8310884,49.5397524 30.845149,49.5235732 30.8580539,49.5066234 C31.0531684,49.253148 31.2573355,49.0071844 31.4670884,48.7662286 C31.507344,48.7205799 31.5472143,48.6741608 31.5878552,48.6288973 C32.5464777,47.5550937 33.6491729,46.6124578 34.8680123,45.832963 L36.556436,45.0087826 C37.4561198,44.6069971 45.3448687,40.924284 45.3448687,35.4847704 L45.3448687,7.5760843 L81.128821,71.7891563 C77.9311012,70.2243885 72.3213199,67.4583088 67.9403937,65.1874308 C65.4331826,63.8875025 63.72935,59.3029869 63.2848049,57.6490404 L62.8019303,55.7240909 L62.7963446,55.7252466 C62.6158686,54.6797567 62.3521848,53.6620027 62.011842,52.6793039 L62.0122272,52.6789186 C62.0108789,52.6754517 62.0093381,52.6717921 62.008375,52.6683251" id="Fill-1" fill="#26BDE9" mask="url(#mask-2)"></path>
                        </g>
                        <g id="Group-6" transform="translate(10.208357, 127.978325)">
                            <mask id="mask-4" fill="white">
                                <use xlink:href="#path-3"></use>
                            </mask>
                            <g id="Clip-5"></g>
                            <path d="M65.7848894,2.18385657 C64.849958,0.781652001 63.0116832,0.127161463 61.3910583,0.127161463 C58.4618375,0.127161463 56.0312854,2.15284627 56.0312854,5.20649341 L56.0312854,15.9574346 C56.0312854,16.4249004 56.3117263,16.7675545 57.0284301,16.7675545 C57.7453264,16.7675545 58.0257673,16.4249004 58.0257673,15.9574346 L58.0257673,5.30010212 C58.0257673,3.11878802 59.6461996,1.87240536 61.3910583,1.87240536 C62.6376336,1.87240536 63.5101592,2.40208428 64.1334468,3.14999092 C64.4450907,3.52384793 64.849958,3.71087274 65.3798295,3.36802602 C65.9095084,3.0251793 66.03432,2.58910909 65.7848894,2.18385657 L65.7848894,2.18385657 Z M50.8200153,11.3767713 C50.8200153,13.8383337 49.2619888,15.1473148 47.3301053,15.1473148 C45.3978366,15.1473148 43.8398101,13.8383337 43.8398101,11.3767713 L43.8398101,1.06209291 C43.8398101,0.594627188 43.5593692,0.251973078 42.8426655,0.251973078 C42.1259618,0.251973078 41.8455208,0.594627188 41.8455208,1.06209291 L41.8455208,11.5324006 C41.8455208,15.0225032 44.4318949,16.8921735 47.3301053,16.8921735 C50.2279306,16.8921735 52.8143046,15.0225032 52.8143046,11.5324006 L52.8143046,1.06209291 C52.8143046,0.594627188 52.5338637,0.251973078 51.8171599,0.251973078 C51.1004562,0.251973078 50.8200153,0.594627188 50.8200153,1.06209291 L50.8200153,11.3767713 Z M32.8013014,21.7534703 C31.8041568,21.7534703 30.7756166,21.4106236 29.9654968,20.7563257 C29.498031,20.3822761 28.999555,20.4758848 28.6567083,20.911955 C28.3140542,21.3484104 28.3140542,21.8468864 28.8125302,22.2207434 C29.8720807,23.0620662 31.4301071,23.4985216 32.8013014,23.4985216 C36.1043792,23.4985216 38.62854,21.5042323 38.62854,17.8583078 L38.62854,5.48693432 C38.62854,1.99683175 36.0419734,0.127161463 33.1439555,0.127161463 C30.2459377,0.127161463 27.6597563,1.99683175 27.6597563,5.48693432 L27.6597563,11.5324006 C27.6597563,15.0225032 30.1837245,16.8921735 32.8635146,16.8921735 C34.4839469,16.8921735 35.8861515,16.1756624 36.6340581,15.1783251 L36.6340581,17.7334962 C36.6340581,20.257657 35.1696403,21.7534703 32.8013014,21.7534703 L32.8013014,21.7534703 Z M36.6340581,11.3767713 C36.6340581,13.8383337 35.0760316,15.1473148 33.1439555,15.1473148 C31.212072,15.1473148 29.6538529,13.8383337 29.6538529,11.3767713 L29.6538529,5.64275623 C29.6538529,3.18119382 31.212072,1.87240536 33.1439555,1.87240536 C35.0760316,1.87240536 36.6340581,3.18119382 36.6340581,5.64275623 L36.6340581,11.3767713 Z M22.7599373,11.3767713 C22.7599373,13.8383337 21.2017182,15.1473148 19.2698348,15.1473148 C17.3377587,15.1473148 15.7797322,13.8383337 15.7797322,11.3767713 L15.7797322,1.06209291 C15.7797322,0.594627188 15.4992913,0.251973078 14.7823949,0.251973078 C14.0656912,0.251973078 13.7852503,0.594627188 13.7852503,1.06209291 L13.7852503,11.5324006 C13.7852503,15.0225032 16.3716243,16.8921735 19.2698348,16.8921735 C22.1678526,16.8921735 24.7542266,15.0225032 24.7542266,11.5324006 L24.7542266,1.06209291 C24.7542266,0.594627188 24.4737857,0.251973078 23.757082,0.251973078 C23.0403782,0.251973078 22.7599373,0.594627188 22.7599373,1.06209291 L22.7599373,11.3767713 Z M5.45773457,15.1473148 C3.37002917,15.1473148 2.03003781,13.6202986 2.03003781,12.0932824 C2.03003781,10.5664589 2.93376635,9.72494353 4.49179283,9.35108652 L7.76386029,8.60317988 C8.32474212,8.47856087 8.69859913,8.32273897 8.88562394,8.10451125 L8.88562394,11.3767713 C8.88562394,13.9941556 7.14057266,15.1473148 5.45773457,15.1473148 L5.45773457,15.1473148 Z M0.035748512,5.30010212 C0.035748512,5.76737524 0.316189425,6.11041457 1.03270055,6.11041457 C1.74959689,6.11041457 2.03003781,5.76737524 2.03003781,5.30010212 L2.03003781,5.14428021 C2.03003781,3.39922893 3.46344527,1.87240536 5.45773457,1.87240536 C7.42101357,1.87240536 8.88562394,3.30562022 8.88562394,5.26889922 L8.88562394,6.04800876 C8.88562394,6.45306868 8.41815822,6.73350959 7.85727639,6.8583212 L4.02451971,7.73065424 C1.28213117,8.35394187 0.035748512,9.81855224 0.035748512,12.0932824 C0.035748512,14.6798491 2.34168162,16.8921735 5.45773457,16.8921735 C8.51157432,16.8921735 10.8799132,14.835671 10.8799132,11.4701874 L10.8799132,5.23769631 C10.8799132,2.24626237 8.54296983,0.127161463 5.45773457,0.127161463 C2.37269192,0.127161463 0.035748512,2.30847557 0.035748512,5.08187441 L0.035748512,5.30010212 Z" id="Fill-4" fill="#26BDE9" mask="url(#mask-4)"></path>
                        </g>
                    </g>
                    <g id="gnosis" transform="translate(0.000000, 37.000000)" fill-rule="nonzero" fill="#26BDE9">
                        <g id="Group" transform="translate(0.000000, 55.851163)">
                            <path d="M20.7267606,11.8683721 L20.7267606,20.1725581 C18.456338,21.8995349 15.0873239,23.112093 12.0112676,23.112093 C5.38309859,23.112093 0.21971831,18.1148837 0.21971831,11.6846512 C0.21971831,5.2544186 5.45633803,0.330697674 12.2676056,0.330697674 C15.4901408,0.330697674 18.6760563,1.54325581 20.9098592,3.49069767 L18.7492958,6.28325581 C17.028169,4.66651163 14.6112676,3.71116279 12.2676056,3.71116279 C7.69014085,3.71116279 4.10140845,7.20186047 4.10140845,11.6846512 C4.10140845,16.204186 7.72676056,19.6948837 12.3042254,19.6948837 C13.9887324,19.6948837 15.856338,19.1069767 17.4676056,18.1516279 L17.4676056,11.8683721 L20.7267606,11.8683721 Z" id="Shape"></path>
                            <polygon id="Shape" points="43.284507 22.9283721 31.3098592 6.76093023 31.3098592 22.9283721 27.5380282 22.9283721 27.5380282 0.404186047 31.2732394 0.404186047 43.3211268 16.6083721 43.3211268 0.404186047 47.056338 0.404186047 47.056338 22.9283721"></polygon>
                            <path d="M76.315493,11.647907 C76.315493,18.0781395 71.115493,23.0753488 64.4140845,23.0753488 C57.7126761,23.0753488 52.5126761,18.0781395 52.5126761,11.647907 C52.5126761,5.18093023 57.7126761,0.293953488 64.4140845,0.293953488 C71.1521127,0.293953488 76.315493,5.21767442 76.315493,11.647907 Z M56.3577465,11.647907 C56.3577465,16.1306977 60.056338,19.6581395 64.4507042,19.6581395 C68.8450704,19.6581395 72.4338028,16.1306977 72.4338028,11.647907 C72.4338028,7.16511628 68.8450704,3.71116279 64.4507042,3.71116279 C60.0197183,3.71116279 56.3577465,7.20186047 56.3577465,11.647907 Z" id="Shape"></path>
                            <path d="M97.0788732,2.53534884 L95.5042254,5.87906977 C93.0507042,4.40930233 90.6338028,3.78465116 88.9126761,3.78465116 C86.715493,3.78465116 85.2507042,4.62976744 85.2507042,6.13627907 C85.2507042,11.06 97.371831,8.4144186 97.3352113,16.5348837 C97.3352113,20.5767442 93.8197183,23.0386047 88.8760563,23.0386047 C85.3605634,23.0386047 82.028169,21.6055814 79.684507,19.4744186 L81.3323944,16.204186 C83.6394366,18.3353488 86.5323944,19.4744186 88.9492958,19.4744186 C91.5859155,19.4744186 93.1605634,18.4823256 93.1605634,16.7553488 C93.1605634,11.7213953 81.0394366,14.5506977 81.0394366,6.50372093 C81.0394366,2.6455814 84.3352113,0.220465116 89.2056338,0.220465116 C92.1352113,0.220465116 94.9915493,1.17581395 97.0788732,2.53534884 Z" id="Shape"></path>
                            <polygon id="Shape" points="103.230986 22.9283721 103.230986 0.404186047 107.002817 0.404186047 107.002817 22.9283721"></polygon>
                            <path d="M129.597183,2.53534884 L128.022535,5.87906977 C125.569014,4.40930233 123.152113,3.78465116 121.430986,3.78465116 C119.233803,3.78465116 117.769014,4.62976744 117.769014,6.13627907 C117.769014,11.06 129.890141,8.4144186 129.853521,16.5348837 C129.853521,20.5767442 126.338028,23.0386047 121.394366,23.0386047 C117.878873,23.0386047 114.546479,21.6055814 112.202817,19.4744186 L113.850704,16.204186 C116.157746,18.3353488 119.050704,19.4744186 121.467606,19.4744186 C124.104225,19.4744186 125.678873,18.4823256 125.678873,16.7553488 C125.678873,11.7213953 113.557746,14.5506977 113.557746,6.50372093 C113.557746,2.6455814 116.853521,0.220465116 121.723944,0.220465116 C124.653521,0.220465116 127.509859,1.17581395 129.597183,2.53534884 Z" id="Shape"></path>
                        </g>
                        <g id="Group" transform="translate(9.154930, 0.000000)">
                            <path d="M73.4957746,10.9865116 L71.884507,12.6032558 C73.1661972,14.624186 73.5690141,17.1595349 72.6901408,19.5846512 C71.2253521,23.7 66.684507,25.867907 62.5464789,24.3981395 C61.9605634,24.1776744 61.4112676,23.9204651 60.9352113,23.5897674 L55.771831,28.7706977 L51.2676056,24.2144186 C49.1802817,25.6106977 46.5070423,26.0148837 43.9802817,25.1330233 C39.7323944,23.5897674 37.5352113,18.9232558 39.0732394,14.6976744 C39.2929577,14.0362791 39.6225352,13.4483721 39.9887324,12.8972093 L38.0478873,10.9497674 L37.6816901,11.5744186 C35.6676056,14.8813953 34.5690141,18.7027907 34.5690141,22.6344186 C34.5323944,34.355814 44.0535211,43.9460465 55.7352113,43.9460465 L55.771831,43.9460465 C67.4535211,43.9460465 76.9380282,34.4293023 76.9746479,22.707907 C76.9746479,18.8130233 75.9126761,14.9916279 73.8985915,11.647907 L73.4957746,10.9865116 Z" id="Shape"></path>
                            <path d="M42.3690141,15.2855814 C41.8197183,16.0204651 41.4901408,16.9390698 41.4901408,17.9311628 C41.4901408,20.3195349 43.4309859,22.2669767 45.8112676,22.2669767 C46.8,22.2669767 47.715493,21.9362791 48.4478873,21.3483721 L42.3690141,15.2855814 Z" id="Shape"></path>
                            <path d="M63.571831,20.9809302 C64.2676056,21.4586047 65.0732394,21.715814 65.9887324,21.715814 C68.3690141,21.715814 70.3098592,19.7683721 70.3098592,17.38 C70.3098592,16.4981395 70.0535211,15.6530233 69.5774648,14.9548837 L63.571831,20.9809302 Z" id="Shape"></path>
                            <path d="M55.8450704,25.5372093 L38.3408451,7.9 L39.0366197,7.16511628 C43.3577465,2.57209302 49.2535211,0 55.5887324,0 L55.6253521,0 C62.0338028,0 68.1859155,2.75581395 72.4704225,7.53255814 L73.1295775,8.26744186 L55.8450704,25.5372093 Z M41.1971831,7.9 L55.8450704,22.6344186 L70.3098592,8.19395349 C66.428169,4.29906977 61.1549296,2.05767442 55.6619718,2.05767442 L55.6253521,2.05767442 C50.1690141,2.05767442 45.0788732,4.11534884 41.1971831,7.9 Z" id="Shape"></path>
                            <g transform="translate(0.000000, 16.902326)" id="Shape">
                                <path d="M36.5464789,19.9888372 L34.4957746,19.8418605 C25.7802817,19.2906977 13.7690141,17.1227907 6.0056338,10.1046512 C1.2084507,5.8055814 0.292957746,1.72697674 0.256338028,1.54325581 L0,0.293953488 L31.7126761,0.293953488 L31.5295775,1.46976744 C31.3830986,2.53534884 31.3098592,3.63767442 31.3098592,4.70325581 C31.3098592,9.55348837 32.7014085,14.2567442 35.3746479,18.2618605 L36.5464789,19.9888372 Z"></path>
                                <path d="M74.9239437,19.9888372 L76.0591549,18.2618605 C78.7323944,14.2567442 80.1239437,9.59023256 80.1239437,4.77674419 C80.1239437,3.6744186 80.0507042,2.53534884 79.9042254,1.46976744 L79.7577465,0.293953488 L111.470423,0.293953488 L111.214085,1.54325581 C111.177465,1.72697674 110.261972,5.8055814 105.501408,10.1046512 C97.7380282,17.1227907 85.6901408,19.2906977 76.9746479,19.8418605 L74.9239437,19.9888372 Z"></path>
                            </g>
                        </g>
                    </g>
                </g>
            </g>
        </g>
    </g>
</svg>