<?xml version="1.0" encoding="UTF-8"?>
<svg width="160px" height="160px" viewBox="0 0 160 160" version="1.1" xmlns="http://www.w3.org/2000/svg" xmlns:xlink="http://www.w3.org/1999/xlink">
    <!-- Generator: Sketch 45.2 (43514) - http://www.bohemiancoding.com/sketch -->
    <title>ic_finance_large</title>
    <desc>Created with Sketch.</desc>
    <defs></defs>
    <g id="Page-1" stroke="none" stroke-width="1" fill="none" fill-rule="evenodd">
        <g id="ic_finance_large">
            <g>
                <circle id="Oval-Copy" fill="#FFFFFF" cx="80" cy="80" r="80"></circle>
                <polyline id="Stroke-1" stroke="#2F4359" stroke-width="3.43660229" stroke-linejoin="round" points="122.767285 104.118088 122.767285 51.5438002 39.3758256 51.5438002 39.3758256 104.118088"></polyline>
                <path d="M115.546156,91.6196233 C112.171657,91.6196233 109.436874,94.3620319 109.436874,97.7447941 L52.6724224,97.7447941 C52.6724224,94.3620319 49.9376395,91.6196233 46.5631413,91.6196233 L46.5631413,63.5780941 C49.9376395,63.5780941 52.6724224,60.83454 52.6724224,57.4506323 L109.436874,57.4506323 C109.436874,60.83454 112.171657,63.5780941 115.546156,63.5780941 L115.546156,91.6196233 Z" id="Stroke-16" stroke="#2F4359" stroke-width="3.43660229" stroke-linejoin="round"></path>
                <g id="Group-18" transform="translate(27.000000, 44.226778)">
                    <path d="M4.90920569,59.890279 L4.90920569,3.01680223 C4.90920569,1.54364538 6.10296014,0.346562249 7.57316299,0.346562249 L101.008152,0.346562249 C102.48064,0.346562249 103.670967,1.54364538 103.670967,3.01680223 L103.670967,59.890279" id="Stroke-2" stroke="#2F4359" stroke-width="3.43660229"></path>
                    <path d="M68.7044715,59.8907373 C68.7044715,61.8919853 67.084621,63.5174982 65.086653,63.5174982 L43.5213932,63.5174982 C41.5234253,63.5174982 39.9047171,61.8919853 39.9047171,59.8907373 L0.189820285,59.8907373 L0.189820285,65.9826876 C0.189820285,67.4581355 0.189820285,70.8317334 8.40673488,70.8317334 L53.4449769,70.8317334 L53.6163292,70.8317334 L98.6522865,70.8317334 C106.871486,70.8317334 106.871486,67.4581355 106.871486,65.9826876 L106.871486,59.8907373 L68.7044715,59.8907373 Z" id="Stroke-4" stroke="#2F4359" stroke-width="3.43660229" stroke-linejoin="round"></path>
                    <path d="M66.5035082,34.1408491 C66.5035082,41.2843997 60.7266505,47.0785112 53.6029637,47.0785112 C46.4792769,47.0785112 40.7024192,41.2843997 40.7024192,34.1408491 C40.7024192,26.9961529 46.4792769,21.2043325 53.6029637,21.2043325 C60.7266505,21.2043325 66.5035082,26.9961529 66.5035082,34.1408491 Z" id="Stroke-6" stroke="#2F4359" stroke-width="3.43660229" fill="#18FFFF" stroke-linecap="round" stroke-linejoin="round"></path>
                    <path d="M52.8539256,41.6975938 L52.8539256,39.8177724 C51.7766907,39.7982983 50.6823206,39.4638024 50.0323242,38.9987155 L50.4778402,37.7512289 C51.1278367,38.1979872 52.0931214,38.5508117 53.1143811,38.5508117 C54.4497868,38.5508117 55.3408189,37.787886 55.3408189,36.7271214 C55.3408189,35.7030139 54.6177121,35.0706791 53.2434665,34.5116585 C51.3505947,33.7670613 50.1808295,32.8918732 50.1808295,31.2732336 C50.1808295,29.7279081 51.276342,28.5548812 52.9658758,28.2753708 L52.9658758,26.4138779 L54.1344986,26.4138779 L54.1344986,28.2192397 C55.2482886,28.2570423 56.0090929,28.5548812 56.5482815,28.8710486 L56.0844879,30.1002067 C55.6938046,29.8768275 54.9330004,29.4483978 53.7449577,29.4483978 C52.314737,29.4483978 51.7766907,30.3052573 51.7766907,31.068183 C51.7766907,32.0178307 52.4643847,32.5012461 54.0796658,33.1908576 C55.9919577,33.9721119 56.9561,34.9206141 56.9561,36.578202 C56.9561,38.0673963 55.9359826,39.4454738 54.0225484,39.7616412 L54.0225484,41.6975938 L52.8539256,41.6975938 Z" id="Fill-8" fill="#000000"></path>
                    <path d="M52.8539256,41.6975938 L52.8539256,39.8177724 C51.7766907,39.7982983 50.6823206,39.4638024 50.0323242,38.9987155 L50.4778402,37.7512289 C51.1278367,38.1979872 52.0931214,38.5508117 53.1143811,38.5508117 C54.4497868,38.5508117 55.3408189,37.787886 55.3408189,36.7271214 C55.3408189,35.7030139 54.6177121,35.0706791 53.2434665,34.5116585 C51.3505947,33.7670613 50.1808295,32.8918732 50.1808295,31.2732336 C50.1808295,29.7279081 51.276342,28.5548812 52.9658758,28.2753708 L52.9658758,26.4138779 L54.1344986,26.4138779 L54.1344986,28.2192397 C55.2482886,28.2570423 56.0090929,28.5548812 56.5482815,28.8710486 L56.0844879,30.1002067 C55.6938046,29.8768275 54.9330004,29.4483978 53.7449577,29.4483978 C52.314737,29.4483978 51.7766907,30.3052573 51.7766907,31.068183 C51.7766907,32.0178307 52.4643847,32.5012461 54.0796658,33.1908576 C55.9919577,33.9721119 56.9561,34.9206141 56.9561,36.578202 C56.9561,38.0673963 55.9359826,39.4454738 54.0225484,39.7616412 L54.0225484,41.6975938 L52.8539256,41.6975938 Z" id="Stroke-10" stroke="#000000" stroke-width="0.801873868"></path>
                    <path d="M31.8063783,32.2805017 C31.8063783,33.3069003 30.9747484,34.1408491 29.9500616,34.1408491 C28.9253747,34.1408491 28.0937448,33.3069003 28.0937448,32.2805017 C28.0937448,31.2518121 28.9253747,30.4178633 29.9500616,30.4178633 C30.9747484,30.4178633 31.8063783,31.2518121 31.8063783,32.2805017" id="Fill-12" fill="#000000"></path>
                    <path d="M78.8294512,32.2805017 C78.8294512,33.3069003 77.9978214,34.1408491 76.9731345,34.1408491 C75.9484477,34.1408491 75.1168178,33.3069003 75.1168178,32.2805017 C75.1168178,31.2518121 75.9484477,30.4178633 76.9731345,30.4178633 C77.9978214,30.4178633 78.8294512,31.2518121 78.8294512,32.2805017" id="Fill-14" fill="#000000"></path>
                </g>
            </g>
        </g>
    </g>
</svg>