<?xml version="1.0" encoding="UTF-8"?>
<svg width="160px" height="160px" viewBox="0 0 160 160" version="1.1" xmlns="http://www.w3.org/2000/svg" xmlns:xlink="http://www.w3.org/1999/xlink">
    <!-- Generator: Sketch 45.2 (43514) - http://www.bohemiancoding.com/sketch -->
    <title>ic_info_large</title>
    <desc>Created with Sketch.</desc>
    <defs></defs>
    <g id="Page-1" stroke="none" stroke-width="1" fill="none" fill-rule="evenodd">
        <g id="ic_info_large">
            <g>
                <circle id="Oval-4" fill="#FFFFFF" cx="80" cy="80" r="80"></circle>
                <g id="icon" transform="translate(37.333333, 37.333333)">
                    <path d="M22.908567,56.8888889 C23.8984064,56.8888889 24.7017544,57.6999677 24.7017544,58.6993326 L24.7017544,83.4167165 C24.7017544,84.4160815 23.8984064,85.2271602 22.908567,85.2271602 L1.79318742,85.2271602 C0.802152504,85.2271602 0,84.4160815 0,83.4167165 L0,58.6993326 C0,57.6999677 0.802152504,56.8888889 1.79318742,56.8888889 L22.908567,56.8888889 Z M86.2068126,32.5079365 C87.196652,32.5079365 88,33.3190153 88,34.3183802 L88,83.3584714 C88,84.3578363 87.196652,85.1689151 86.2068126,85.1689151 L65.091433,85.1689151 C64.1015936,85.1689151 63.2982456,84.3578363 63.2982456,83.3584714 L63.2982456,34.3183802 C63.2982456,33.3190153 64.1015936,32.5079365 65.091433,32.5079365 L86.2068126,32.5079365 Z M54.8149997,45.7142857 C55.8048392,45.7142857 56.6081871,46.3219617 56.6081871,47.0707053 L56.6081871,83.8124955 C56.6081871,84.5612391 55.8048392,85.1689151 54.8149997,85.1689151 L33.6996202,85.1689151 C32.7097807,85.1689151 31.9064327,84.5612391 31.9064327,83.8124955 L31.9064327,47.0707053 C31.9064327,46.3219617 32.7097807,45.7142857 33.6996202,45.7142857 L54.8149997,45.7142857 Z" id="Combined-Shape" fill="#18FFFF"></path>
                    <path d="M81.3046875,0.0124996869 C81.8429722,-0.0501190358 82.4039231,0.122534401 82.8172161,0.530459996 C83.4968783,1.20129535 83.5318998,2.2673556 82.9222808,2.97789132 L82.9222808,14.0031783 C82.9222808,15.0025432 82.1005299,15.813622 81.0880155,15.813622 C80.0742782,15.813622 79.2537502,15.0025432 79.2537502,14.0031783 L79.2537502,6.60738324 L45.6256529,39.7965693 C44.9090666,40.5038493 43.7485881,40.5038493 43.0320018,39.7965693 L29.7250184,26.662404 C30.4416047,27.369684 31.6020833,27.369684 32.3186696,26.662404 L13.9381084,44.8042565 C13.2215221,45.5115365 12.0610436,45.5115365 11.3444573,44.8042565 C10.627871,44.0969765 10.627871,42.9503622 11.3444573,42.2442892 L29.7250184,24.1024366 C30.4416047,23.3951566 31.6020833,23.3951566 32.3186696,24.1024366 L45.6256529,37.236602 C44.9090666,36.529322 43.7485881,36.529322 43.0320018,37.236602 L77.0922682,3.62088735 L68.7348501,3.62088735 C67.7223356,3.62088735 66.9005848,2.81101554 66.9005848,1.81044367 C66.9005848,0.809871803 67.7223356,0 68.7348501,0 L81.0880155,0 C81.1613192,0 81.233623,0.00424488068 81.3046875,0.0124996869 Z" id="Combined-Shape" fill="#2F4359"></path>
                </g>
            </g>
        </g>
    </g>
</svg>