<?xml version="1.0" encoding="UTF-8"?>
<svg width="160px" height="160px" viewBox="0 0 160 160" version="1.1" xmlns="http://www.w3.org/2000/svg" xmlns:xlink="http://www.w3.org/1999/xlink">
    <!-- Generator: Sketch 45.2 (43514) - http://www.bohemiancoding.com/sketch -->
    <title>ic_insurance_large</title>
    <desc>Created with Sketch.</desc>
    <defs></defs>
    <g id="Page-1" stroke="none" stroke-width="1" fill="none" fill-rule="evenodd">
        <g id="ic_insurance_large">
            <g>
                <circle id="Oval-4-Copy-2" fill="#FFFFFF" cx="80" cy="80" r="80"></circle>
                <g id="Group-11" transform="translate(32.000000, 29.333333)">
                    <path d="M49.2647784,16.1284179 C58.3103642,16.1284179 66.5010454,19.7607861 72.4292159,25.6336888 L83.1462783,15.0174237 C74.4751033,6.4279724 62.4966332,1.11498258 49.2656699,1.11498258 C36.0329237,1.11498258 24.0535621,6.4279724 15.3814956,15.0174237 L26.098558,25.6336888 C32.0267285,19.7607861 40.2183011,16.1284179 49.2647784,16.1284179" id="Fill-251" fill="#FFFFFF"></path>
                    <path d="M83.1217477,15.2380952 L72.4055767,25.8543603 C78.3346386,31.727263 82.0011897,39.8415832 82.0011897,48.8046041 C82.0011897,57.767625 78.3337471,65.8810621 72.4055767,71.7548479 L83.1128331,82.3631646 C91.7857911,73.7737133 97.1568027,61.9139826 97.1568027,48.8046041 C97.1568027,35.6961087 91.7938142,23.8284297 83.1217477,15.2380952" id="Fill-252" fill="#18FFFF"></path>
                    <path d="M16.2810882,48.8046041 C16.2810882,39.8415832 19.9485308,31.7281461 25.8784842,25.8543603 L15.1614217,15.2380952 C6.48935523,23.8284297 1.12547529,35.6961087 1.12547529,48.8046041 C1.12547529,61.9130994 6.49559541,73.7728302 15.1694448,82.3622815 L25.8775927,71.7539647 C19.9476393,65.8810621 16.2810882,57.7667418 16.2810882,48.8046041" id="Fill-253" fill="#18FFFF"></path>
                    <path d="M49.2567553,81.2366999 C40.2093866,81.2366999 32.0178139,77.6043317 26.0896435,71.7305459 L15.3814956,82.3388627 C22.3847598,89.2759529 31.5408859,94.0811354 41.7774545,95.6707932 L49.2576468,105.274093 L56.7369475,95.6707932 C66.9717333,94.0811354 76.1260765,89.2759529 83.1293407,82.3397458 L72.4211928,71.731429 C66.4921309,77.6043317 58.3023411,81.2366999 49.2567553,81.2366999" id="Fill-254" fill="#FFFFFF"></path>
                    <path d="M49.1071348,82.4268934 C67.9087954,82.4268934 83.2052581,67.2730383 83.2052581,48.6466639 C83.2052581,30.0202895 67.9087954,14.8664344 49.1071348,14.8664344 C30.3036913,14.8664344 15.0063371,30.0202895 15.0063371,48.6466639 C15.0063371,67.2730383 30.3036913,82.4268934 49.1071348,82.4268934 M17.6806997,48.6466639 C17.6806997,31.4810084 31.779048,17.5158641 49.1071348,17.5158641 C66.4343302,17.5158641 80.5308955,31.4810084 80.5308955,48.6466639 C80.5308955,65.8123193 66.4343302,79.7774636 49.1071348,79.7774636 C31.779048,79.7774636 17.6806997,65.8123193 17.6806997,48.6466639" id="Fill-255" fill="#153247"></path>
                    <path d="M55.6775552,94.8743136 L48.1982545,104.477613 C48.4523189,104.152617 48.8427758,103.962741 49.257302,103.962741 C49.6718282,103.962741 50.0622852,104.152617 50.3154582,104.477613 L42.8361574,94.8743136 C42.6266657,94.6058381 42.3226798,94.4274431 41.9848186,94.3753377 C19.2063808,90.8383489 2.67436261,71.6688414 2.67436261,48.7936648 C2.67436261,23.3503077 23.5709406,2.64942977 49.257302,2.64942977 C74.9400977,2.64942977 95.8357842,23.3503077 95.8357842,48.7936648 C95.8357842,71.6679583 79.3046574,90.8374658 56.528894,94.3753377 C56.1910328,94.4274431 55.8861555,94.6058381 55.6775552,94.8743136 M98.5101468,48.7936648 C98.5101468,21.8887056 76.4154544,0 49.257302,0 C22.0964754,0 0,21.8887056 0,48.7936648 C0,72.9811923 17.4823084,93.2519795 41.5702924,96.9920911 C41.2324313,96.9399857 40.927554,96.7615908 40.7189537,96.4931152 L48.1982545,106.096415 C48.4523189,106.421412 48.8427758,106.612171 49.257302,106.612171 C49.6718282,106.612171 50.0622852,106.421412 50.3154582,106.096415 L57.794759,96.4931152 C57.5861587,96.7615908 57.2812813,96.9399857 56.9434202,96.9920911 C81.0278384,93.2519795 98.5101468,72.9811923 98.5101468,48.7936648" id="Fill-256" fill="#153247"></path>
                    <path d="M24.988827,70.6320439 L14.272656,81.248309 C13.7502638,81.7649478 13.7502638,82.6039339 14.272656,83.1214558 C14.7941567,83.6389778 15.6410382,83.6389778 16.1634303,83.1214558 L26.8796013,72.5051907 C27.4019935,71.9885519 27.4019935,71.1495658 26.8796013,70.6320439 C26.3572092,70.114522 25.5112191,70.114522 24.988827,70.6320439" id="Fill-257" fill="#153247"></path>
                    <path d="M26.8804928,24.7558583 L16.1643218,14.1395933 C15.6419296,13.6220713 14.7950481,13.6220713 14.272656,14.1395933 C13.7502638,14.6562321 13.7502638,15.4952182 14.272656,16.0127401 L24.9897184,26.6290052 C25.5121106,27.1465271 26.3581006,27.1465271 26.8804928,26.6290052 C27.4028849,26.1123664 27.4028849,25.2724971 26.8804928,24.7558583" id="Fill-258" fill="#153247"></path>
                    <path d="M73.1875115,26.6298883 L83.9036824,16.0136232 C84.4260746,15.4961013 84.4260746,14.6571152 83.9036824,14.1395933 C83.3821817,13.6220713 82.5353002,13.6220713 82.0129081,14.1395933 L71.2967371,24.7567415 C70.7743449,25.2733803 70.7743449,26.1132495 71.2967371,26.6298883 C71.8191293,27.1474103 72.6651193,27.1474103 73.1875115,26.6298883" id="Fill-259" fill="#111416"></path>
                    <path d="M71.2967371,72.5051907 L82.0129081,83.1214558 C82.5353002,83.6389778 83.3821817,83.6389778 83.9045739,83.1214558 C84.4269661,82.604817 84.4269661,81.7658309 83.9045739,81.248309 L73.1875115,70.6320439 C72.6651193,70.114522 71.8191293,70.114522 71.2967371,70.6320439 C70.7743449,71.1486827 70.7743449,71.9885519 71.2967371,72.5051907" id="Fill-260" fill="#153247"></path>
                    <path d="M25.7535076,47.2456566 L27.3340559,47.2456566 C27.9981892,47.2456566 28.5606968,46.7634604 28.6578653,46.1125838 C28.8860776,44.5714989 29.2997124,43.0427779 29.8880722,41.5679287 C30.1314391,40.9576767 29.8880722,40.2626429 29.3130842,39.9341136 L27.9455934,39.1507656 C27.7681941,39.0500872 27.7031179,38.8928877 27.6799401,38.808106 C27.6576537,38.7233242 27.6335845,38.5546439 27.7361017,38.3797815 C27.7369932,38.3788984 29.0741745,36.0818428 29.0741745,36.0818428 C29.2301789,35.8124841 29.5823034,35.7188709 29.8568713,35.8751872 C29.8541969,35.8734209 31.2270364,36.6585353 31.2270364,36.6585353 C31.8002414,36.9861815 32.529451,36.8492942 32.9413028,36.3353049 C33.9317084,35.10332 35.0620724,33.9834944 36.3020851,33.0076211 C36.8209115,32.5987258 36.9590869,31.8763146 36.6274659,31.3075703 L35.8349631,29.9484128 C35.7333374,29.7744336 35.7582981,29.6048701 35.7805844,29.5200884 C35.8037622,29.4353066 35.8688384,29.277224 36.0435634,29.1783119 C36.0453463,29.1765456 38.3658016,27.8482982 38.3658016,27.8482982 C38.5423096,27.7476199 38.7116859,27.7705816 38.7981569,27.7935433 C38.8837365,27.816505 39.0433068,27.8800913 39.1440412,28.0540706 C39.1449326,28.0558369 39.934761,29.4105786 39.934761,29.4105786 C40.2654905,29.9784397 40.967065,30.2213041 41.5839513,29.980206 C43.0700055,29.3990977 44.6131127,28.9893193 46.1722661,28.7614683 C46.8292678,28.6660888 47.3151104,28.1088254 47.3151104,27.4508837 L47.3151104,25.8877202 C47.3151104,25.5803863 47.5763065,25.3207422 47.8865325,25.3207422 L50.564461,25.3207422 C50.8755785,25.3207422 51.137666,25.5803863 51.137666,25.8877202 L51.137666,27.4508837 C51.137666,28.1088254 51.6244,28.6660888 52.2805103,28.7614683 C53.8369893,28.9884361 55.380988,29.3990977 56.8688251,29.980206 C57.4857114,30.2213041 58.1863944,29.9784397 58.5180154,29.4105786 L59.3087352,28.0558369 C59.410361,27.8800913 59.5699313,27.816505 59.6555109,27.7935433 C59.7410905,27.7705816 59.9113583,27.7476199 60.0851919,27.847415 C60.0878662,27.8491813 62.4074301,29.1756625 62.4074301,29.1756625 C62.6757578,29.3284463 62.7711434,29.6834699 62.6169218,29.9501791 C62.6178133,29.9484128 61.8253105,31.3084535 61.8253105,31.3084535 C61.494581,31.8763146 61.6327564,32.5987258 62.1506912,33.0067379 C63.3969442,33.9887932 64.5273082,35.1086189 65.5114736,36.3353049 C65.9233254,36.8492942 66.652535,36.9861815 67.22574,36.6576522 L68.5976881,35.8734209 C68.8660158,35.719754 69.2252718,35.8151335 69.3803848,36.0818428 C69.3794934,36.0791933 70.7184576,38.3780152 70.7184576,38.3780152 C70.8717877,38.6429582 70.7772936,38.9979818 70.5089659,39.1507656 L69.1405837,39.9341136 C68.5664872,40.2617598 68.3222287,40.9567935 68.5647042,41.5670455 C69.1521726,43.0392453 69.5658073,44.5688494 69.7958025,46.1143501 C69.8938625,46.7643436 70.4563701,47.2456566 71.119612,47.2456566 L72.6992688,47.2456566 C72.9016289,47.2456566 73.0380214,47.3507507 73.1004232,47.4134539 C73.1637165,47.4752739 73.2689081,47.6103948 73.2689081,47.809102 C73.2689081,47.8117515 73.270691,50.4682464 73.270691,50.4682464 C73.270691,50.6678368 73.1654994,50.8020745 73.1022061,50.8638946 C73.0389129,50.9265977 72.9034119,51.0316918 72.6992688,51.0316918 L71.119612,51.0316918 C70.4563701,51.0316918 69.8938625,51.5130049 69.7958025,52.1629983 C69.5658073,53.7093821 69.1521726,55.2389862 68.5655957,56.7085366 C68.3222287,57.3196718 68.5664872,58.0147055 69.1405837,58.3432348 L70.5089659,59.1256997 C70.7755107,59.2784835 70.8726792,59.6335071 70.7175661,59.8993332 L69.3794934,62.1990382 C69.2252718,62.4630981 68.8651243,62.5584775 68.5959051,62.4056938 C68.599471,62.4074601 67.2310888,61.6205794 67.2310888,61.6205794 C66.6578837,61.2902838 65.9268913,61.427171 65.514148,61.9411604 C64.5255252,63.1704958 63.3951613,64.2912046 62.1506912,65.2714936 C61.6327564,65.6795058 61.4936895,66.401917 61.8253105,66.9697781 L62.6178133,68.3298187 C62.7711434,68.5938786 62.6739749,68.9497853 62.4047557,69.1043354 C62.4074301,69.1034522 60.0878662,70.4290502 60.0878662,70.4290502 C59.9122497,70.5297286 59.741982,70.5067668 59.6555109,70.4838051 C59.5699313,70.4608434 59.4094696,70.3963739 59.3096267,70.224161 C59.3078438,70.2215116 58.5171239,68.8685361 58.5171239,68.8685361 C58.1863944,68.3015581 57.4857114,68.0595769 56.8697165,68.2997918 C55.3800966,68.8809001 53.8360979,69.2915617 52.2787274,69.5194127 C51.6235086,69.6156753 51.137666,70.1729387 51.137666,70.8299973 L51.137666,72.3913945 C51.137666,72.6987284 50.8755785,72.9592557 50.564461,72.9592557 L47.8865325,72.9592557 C47.5763065,72.9592557 47.3151104,72.6987284 47.3151104,72.3913945 L47.3151104,70.8299973 C47.3151104,70.1729387 46.8301593,69.6156753 46.174049,69.5194127 C44.6148956,69.2906786 43.0708969,68.8809001 41.5830599,68.2997918 C40.9661735,68.0586937 40.2654905,68.3015581 39.9338696,68.8703024 L39.1458241,70.2232779 C38.9924939,70.4873377 38.6341293,70.5827172 38.3658016,70.4290502 C38.3649102,70.4290502 36.0444549,69.1034522 36.0444549,69.1034522 C35.7779101,68.9506684 35.6807416,68.5947617 35.8358546,68.3280524 C35.8340717,68.3307019 36.6265745,66.9733107 36.6265745,66.9733107 C36.9590869,66.4054496 36.8209115,65.6812721 36.3011937,65.2723768 C35.0665296,64.3009192 33.9370571,63.1802104 32.9413028,61.9420436 C32.529451,61.4280542 31.7984585,61.2902838 31.2252535,61.6196963 L29.8541969,62.4065769 C29.5885435,62.5575944 29.2292875,62.4630981 29.0741745,62.197272 C29.0750659,62.1990382 27.7361017,59.9019826 27.7361017,59.9019826 C27.5783143,59.6308577 27.671917,59.2828992 27.9464849,59.1256997 L29.3139756,58.3423516 C29.8880722,58.0138224 30.1314391,57.3187886 29.8880722,56.7076535 C29.2997124,55.2363368 28.8860776,53.7067327 28.6578653,52.1638814 C28.5606968,51.513888 27.9981892,51.0316918 27.3340559,51.0316918 L25.754399,51.0316918 C25.4450644,51.0316918 25.1838683,50.7729308 25.1838683,50.4673632 L25.1838683,47.8108683 C25.1838683,47.5044176 25.4441729,47.2456566 25.7535076,47.2456566 M22.5095057,47.8108683 L22.5095057,50.4673632 C22.5095057,52.2389486 23.9652504,53.6811215 25.754399,53.6811215 L27.3340559,53.6811215 C26.6708139,53.6811215 26.1074149,53.1989253 26.0111378,52.5480487 C26.2696595,54.2931398 26.737673,56.0214512 27.4018064,57.6835268 C27.1575479,57.0723916 27.4018064,56.3773579 27.9750114,56.0488286 L26.6075207,56.8321767 C25.0581733,57.7206188 24.5250837,59.6917945 25.4201037,61.2266975 C25.4201037,61.2266975 26.7590679,63.5237531 26.7590679,63.5237531 C27.6540879,65.0551235 29.6411393,65.5832432 31.1904867,64.7018662 C31.194944,64.6992168 32.5660006,63.9123362 32.5660006,63.9123362 C31.9919041,64.2417486 31.2618031,64.1048614 30.8490598,63.590872 C31.9705092,64.9871215 33.2443972,66.2517826 34.6386316,67.3477634 C34.1189138,66.9388681 33.9807384,66.2146906 34.3132508,65.6459464 L33.5198566,67.0033376 C32.6275109,68.5373574 33.1597091,70.50765 34.7045992,71.3969752 C34.7090565,71.3996247 37.0295118,72.7252227 37.0295118,72.7252227 C38.5770763,73.6092491 40.5650192,73.0820126 41.4618221,71.549759 C41.463605,71.5471096 42.2516505,70.1941341 42.2516505,70.1941341 C41.9200295,70.7619952 41.2193465,71.0048596 40.6024602,70.7646447 C42.2792856,71.419937 44.0220786,71.882704 45.7827006,72.1405819 C45.1265903,72.0443193 44.6407478,71.4870559 44.6407478,70.8299973 L44.6407478,72.3913945 C44.6407478,74.1647462 46.0964925,75.6086854 47.8865325,75.6086854 L50.564461,75.6086854 C52.3553925,75.6086854 53.8120286,74.1647462 53.8120286,72.3913945 L53.8120286,70.8299973 C53.8120286,71.4870559 53.3261861,72.0443193 52.6700758,72.1405819 C54.4289149,71.882704 56.1717079,71.419937 57.8503162,70.7646447 C57.2343213,71.0048596 56.5336383,70.7628784 56.2029088,70.1959004 L56.9936287,71.5488759 C57.4233096,72.2889499 58.1248841,72.819719 58.9646339,73.0422711 C59.8034923,73.2657064 60.6789004,73.1517809 61.425939,72.7234564 C61.4250475,72.7243396 63.7446114,71.3978584 63.7446114,71.3978584 C65.2930673,70.50765 65.824374,68.5382405 64.9338113,67.005987 C64.9329198,67.0051038 64.1413085,65.6450632 64.1413085,65.6450632 C64.4729295,66.2138075 64.3329711,66.9362187 63.8150362,67.3442308 C65.2172937,66.2403018 66.4929647,64.9774069 67.606391,63.590872 C67.1927562,64.1048614 66.4626552,64.2417486 65.8885587,63.9123362 L67.2578324,64.6992168 C68.8089627,65.5832432 70.7969056,65.0560067 71.6937085,63.5264026 C71.6963829,63.52287 73.0353471,61.2231649 73.0353471,61.2231649 C73.9268013,59.6917945 73.3946031,57.7223851 71.849713,56.8330598 C71.8461472,56.8312935 70.477765,56.0488286 70.477765,56.0488286 C71.05097,56.3764748 71.2961199,57.0715085 71.0518615,57.6826436 C71.7151034,56.0241006 72.1822254,54.2975555 72.44253,52.5489319 C72.3453615,53.1989253 71.7828539,53.6811215 71.119612,53.6811215 L72.6992688,53.6811215 C73.5639794,53.6811215 74.3778771,53.3464103 74.9911976,52.7388077 C75.606301,52.1312051 75.9450536,51.3240122 75.9450536,50.4673632 C75.9450536,50.4664801 75.9432707,47.8099852 75.9432707,47.8099852 C75.9450536,46.9568688 75.6071925,46.150559 74.9929805,45.5411902 C74.37966,44.9318213 73.5648709,44.5962269 72.6992688,44.5962269 L71.119612,44.5962269 C71.7828539,44.5962269 72.3453615,45.07754 72.44253,45.7275334 C72.1822254,43.9815592 71.7151034,42.2550141 71.0527529,40.5947048 C71.2961199,41.2049568 71.05097,41.8999905 70.477765,42.2285198 L71.8461472,41.4451717 C73.3928202,40.5611453 73.9268013,38.5917359 73.0362385,37.0559498 C73.0344556,37.0541835 71.6954914,34.7553616 71.6954914,34.7553616 C70.7969056,33.2195755 68.8080712,32.6932221 67.2605067,33.5790148 L65.8885587,34.3641291 C66.4626552,34.0355998 67.1918648,34.172487 67.6037166,34.6864764 C66.4947476,33.3034741 65.2199681,32.0405792 63.8150362,30.9340007 C64.3329711,31.3420129 64.472038,32.0644241 64.1413085,32.6331683 L64.9329198,31.2731277 C65.8261569,29.7373416 65.2930673,27.767049 63.7446114,26.8812563 L61.4250475,25.553892 C60.6789004,25.1255675 59.8043838,25.0116421 58.9637425,25.2341942 C58.1239926,25.4576294 57.4224182,25.9892816 56.9918458,26.7320051 C56.9927372,26.7302388 56.2020173,28.0849806 56.2020173,28.0849806 C56.5336383,27.5171195 57.2343213,27.2751382 57.8512076,27.5153532 C56.1717079,26.8600609 54.4289149,26.3972938 52.6682929,26.1411823 C53.3252946,26.2356786 53.8120286,26.7938251 53.8120286,27.4508837 L53.8120286,25.8877202 C53.8120286,24.1143685 52.3553925,22.6713124 50.564461,22.6713124 L47.8865325,22.6713124 C46.0964925,22.6713124 44.6407478,24.1143685 44.6407478,25.8877202 L44.6407478,27.4508837 C44.6407478,26.7938251 45.1274818,26.2356786 45.7844835,26.1411823 C44.0211871,26.3972938 42.2775027,26.8600609 40.6015688,27.5162363 C41.2184551,27.2751382 41.9200295,27.5171195 42.2507591,28.0858637 L41.4609306,26.731122 C41.0303582,25.9883985 40.3296752,25.4567463 39.4890339,25.2341942 C38.6501755,25.0116421 37.7747675,25.1255675 37.0268374,25.5547752 C37.0286203,25.553892 34.708165,26.8821395 34.708165,26.8821395 C33.9611264,27.3078145 33.4235795,28.0001988 33.1989331,28.8303535 C32.9725037,29.6622744 33.0866098,30.528638 33.5180737,31.2722446 C33.5189651,31.2740109 34.3123594,32.6331683 34.3123594,32.6331683 C33.9807384,32.0653072 34.1189138,31.3420129 34.6377401,30.9331176 C33.2390485,32.0343972 31.9651604,33.2972921 30.8490598,34.6855933 C31.2618031,34.172487 31.9901212,34.0355998 32.5642177,34.363246 L31.1913782,33.5781316 C29.638465,32.6949884 27.6514136,33.2248743 26.757285,34.7571279 C26.7563935,34.758011 25.4192122,37.0550666 25.4192122,37.0550666 C24.9868569,37.796907 24.8718593,38.6641536 25.0973973,39.4960746 C25.3229352,40.3262292 25.8595906,41.0194967 26.610195,41.446938 C26.6084121,41.4451717 27.9759029,42.2276367 27.9759029,42.2276367 C27.4018064,41.8999905 27.1575479,41.2040736 27.4018064,40.5938216 C26.737673,42.2576635 26.2687681,43.9859749 26.0111378,45.7292997 C26.1074149,45.0784231 26.6708139,44.5962269 27.3340559,44.5962269 L25.7535076,44.5962269 C23.964359,44.5962269 22.5095057,46.0383998 22.5095057,47.8108683" id="Fill-265" fill="#153247"></path>
                    <path d="M49.2125847,62.9439835 C56.9022687,62.9439835 63.1584943,56.745201 63.1584943,49.125441 C63.1584943,45.4330191 61.7080983,41.9631492 59.0747426,39.354344 C56.4404954,36.7446557 52.9388633,35.3077816 49.2125847,35.3077816 C41.5211179,35.3077816 35.2648923,41.5065642 35.2648923,49.125441 C35.2648923,56.745201 41.5211179,62.9439835 49.2125847,62.9439835 M37.9392549,49.125441 C37.9392549,42.9672831 42.9955831,37.9572114 49.2125847,37.9572114 C52.223917,37.9572114 55.0551756,39.1185448 57.1821853,41.2274909 C59.310978,43.336437 60.4841317,46.1413 60.4841317,49.125441 C60.4841317,55.2844821 55.4278035,60.2945538 49.2125847,60.2945538 C42.9955831,60.2945538 37.9392549,55.2844821 37.9392549,49.125441" id="Fill-266" fill="#153247"></path>
                </g>
            </g>
        </g>
    </g>
</svg>