<?xml version="1.0" encoding="UTF-8"?>
<svg width="160px" height="160px" viewBox="0 0 160 160" version="1.1" xmlns="http://www.w3.org/2000/svg" xmlns:xlink="http://www.w3.org/1999/xlink">
    <!-- Generator: Sketch 45.2 (43514) - http://www.bohemiancoding.com/sketch -->
    <title>ic_sport_large</title>
    <desc>Created with Sketch.</desc>
    <defs></defs>
    <g id="Page-1" stroke="none" stroke-width="1" fill="none" fill-rule="evenodd">
        <g id="ic_sport_large">
            <g>
                <circle id="Oval-4-Copy-4" fill="#FFFFFF" cx="80" cy="80" r="80"></circle>
                <g id="Page-1-Copy" transform="translate(25.000000, 25.000000)">
                    <path d="M54.6465485,0 C24.5147537,0 2.5051583e-05,24.5139771 2.5051583e-05,54.6462729 C2.5051583e-05,61.788229 1.39139003,68.6075207 3.8942938,74.8664085 L3.86924221,74.8756776 C3.91859383,75.0082004 4.18263753,75.6956159 4.70796925,76.7951299 C10.0885485,88.8782605 19.7218846,98.6581484 31.7028047,104.224861 C31.7679388,104.260935 31.8290647,104.298262 31.8946998,104.334336 L31.9044699,104.316299 C38.8344896,107.501859 46.5330919,109.292796 54.6465485,109.292796 C84.7780928,109.292796 109.292821,84.7785687 109.292821,54.6462729 C109.292821,24.5139771 84.7780928,0 54.6465485,0" id="Path-Copy" stroke="#18FFFF" stroke-width="12" fill="#18FFFF"></path>
                    <path d="M54.6465485,0 C24.5147537,0 2.5051583e-05,24.5139771 2.5051583e-05,54.6462729 C2.5051583e-05,61.788229 1.39139003,68.6075207 3.8942938,74.8664085 L3.86924221,74.8756776 C3.91859383,75.0082004 4.18263753,75.6956159 4.70796925,76.7951299 C10.0885485,88.8782605 19.7218846,98.6581484 31.7028047,104.224861 C31.7679388,104.260935 31.8290647,104.298262 31.8946998,104.334336 L31.9044699,104.316299 C38.8344896,107.501859 46.5330919,109.292796 54.6465485,109.292796 C84.7780928,109.292796 109.292821,84.7785687 109.292821,54.6462729 C109.292821,24.5139771 84.7780928,0 54.6465485,0" id="Path" fill="#153247"></path>
                    <path d="M67.8354559,103.591557 C68.2252586,100.385956 68.2292668,97.3381804 68.1851761,95.6188902 C71.2028899,94.2853944 78.5282236,90.4139226 83.865213,82.5715242 C85.7368169,82.2308226 90.253367,81.2187386 94.5647446,78.8223041 C94.9001853,80.6012171 95.1451898,83.1469591 94.6378952,85.7473135 C87.9616481,94.3129511 78.6058835,100.685824 67.8354559,103.591557" id="Path" fill="#FFFFFF"></path>
                    <path d="M33.5095249,100.707869 C32.7231557,100.269967 31.9623391,99.822546 31.2180565,99.3691123 C30.7022444,96.698864 30.9883335,93.6092521 31.2453628,91.8158092 C34.5150955,91.6657502 42.0373347,91.0953257 48.3621081,88.9869844 C50.5608856,90.6376332 56.5584854,94.6651764 64.2405536,96.0207176 C64.2766279,97.9301493 64.2375474,101.289567 63.7157229,104.513956 C60.7706587,105.048306 57.7431748,105.342412 54.6465485,105.342412 C47.1045186,105.342412 39.9487841,103.674728 33.5095249,100.707869" id="Path" fill="#FFFFFF"></path>
                    <path d="M7.1332131,36.9756371 C9.4342011,36.84111 11.5485548,37.0016907 12.9156197,37.1627724 C13.0366189,40.2588977 13.7232828,46.9955191 17.0413651,54.6455214 C13.5599465,60.1951988 12.9454311,67.1505206 12.8777918,70.589602 C10.216061,70.6063866 7.92258851,70.7617064 6.6286742,70.8704303 C4.90111696,65.7726835 3.95015883,60.3202062 3.95015883,54.6462729 C3.95015883,48.4337306 5.07898321,42.4812237 7.1332131,36.9756371" id="Path" fill="#FFFFFF"></path>
                    <path d="M33.9033358,8.40656007 C30.4181595,13.4211356 28.9769418,18.115051 28.4876844,20.0943766 C26.0416477,21.4118394 19.0099186,25.6716108 13.9226934,33.3063315 C12.7638071,33.1512622 10.9400518,32.9703898 8.82720121,32.9741475 C13.9903327,22.1020106 22.9132059,13.3565026 33.9033358,8.40656007" id="Path" fill="#FFFFFF"></path>
                    <path d="M57.9821669,4.07213499 C65.0820363,6.78346793 68.9464937,11.1669941 70.3253329,13.0072835 C68.809712,16.0079622 66.294533,21.8454823 65.2601531,24.2732314 C55.7555821,25.1805997 48.0973129,27.6091003 45.3256056,28.5836069 C43.2823984,26.9176766 38.073172,22.8868767 32.5307595,20.2922841 C33.3434329,17.4767366 35.6952756,11.1446982 41.3749708,5.72453748 C45.6076864,4.5751708 50.0545931,3.95013378 54.6465485,3.95013378 C55.7683584,3.95013378 56.8781436,3.99998643 57.9821669,4.07213499" id="Path" fill="#FFFFFF"></path>
                    <path d="M66.0289862,28.1682516 C72.6874467,33.2552263 78.0362105,40.9931596 79.4295796,43.1067617 C78.5607906,51.7049664 74.7855169,59.2642819 73.5479687,61.5439761 C70.6216931,62.1968203 60.8167536,64.3745546 53.8160885,65.8057515 C51.3505116,63.3975428 44.3558588,56.4342045 40.4177498,51.2362513 C40.990429,48.4647945 43.0506712,39.2530766 46.3667494,32.4092343 C48.6679879,31.5915506 56.4748131,29.0330323 66.0289862,28.1682516" id="Path" fill="#FFFFFF"></path>
                    <path d="M73.7887144,11.0412352 C73.0496926,9.99558204 71.5340718,8.10293487 69.1246105,6.06799469 C75.1389948,7.86394276 80.6854155,10.7478811 85.5404125,14.4918404 C80.6014927,12.2785329 75.7627792,11.3493696 73.7887144,11.0412352" id="Path" fill="#FFFFFF"></path>
                    <path d="M97.7467968,37.9508952 C97.5679285,31.8658655 96.4353464,27.367603 95.1274032,24.1675137 C101.135775,32.1276545 104.847919,41.9072919 105.288576,52.5196439 C103.363863,44.3403017 99.3293054,39.5637162 97.7467968,37.9508952" id="Path" fill="#FFFFFF"></path>
                    <path d="M30.1067683,87.9060085 C21.800164,82.9700949 17.5494112,73.8027182 16.8349401,72.1425497 C16.7835843,70.4921514 16.7497647,62.2085946 20.6237416,56.3903642 C23.0201762,55.9557192 29.3341774,54.8599629 37.4188246,53.8223263 C41.6204763,59.3101263 48.652957,66.2920028 51.1070102,68.682926 C50.1092056,71.9701948 47.6433782,80.3619745 46.9269028,85.3018963 C40.4255157,87.4252686 32.2817468,87.834361 30.1067683,87.9060085" id="Path" fill="#FFFFFF"></path>
                    <path d="M84.1763537,78.4745881 C83.1094067,75.7559902 80.511307,69.4512581 77.103039,63.2838086 C78.5397473,60.6325994 82.2543962,53.057752 83.2902792,44.1416427 C87.2539408,42.9890193 92.8680008,41.5798677 95.1927878,41.0044328 C96.7810582,42.7289839 100.70088,47.7312842 101.971997,56.1378442 C100.420302,66.2782244 95.3651427,73.0852408 94.4542671,74.242123 C90.8568596,76.7345051 86.5254408,77.9572729 84.1763537,78.4745881" id="Path" fill="#FFFFFF"></path>
                </g>
            </g>
        </g>
    </g>
</svg>