<?xml version="1.0" encoding="UTF-8"?>
<svg width="160px" height="160px" viewBox="0 0 160 160" version="1.1" xmlns="http://www.w3.org/2000/svg" xmlns:xlink="http://www.w3.org/1999/xlink">
    <!-- Generator: Sketch 45.2 (43514) - http://www.bohemiancoding.com/sketch -->
    <title>ic_traditional_large</title>
    <desc>Created with Sketch.</desc>
    <defs></defs>
    <g id="Page-1" stroke="none" stroke-width="1" fill="none" fill-rule="evenodd">
        <g id="ic_traditional_large">
            <g>
                <circle id="Oval-4-Copy-3" fill="#FFFFFF" cx="80" cy="80" r="80"></circle>
                <g id="Group-2" transform="translate(29.333333, 32.000000)">
                    <path d="M72.9318707,38.1910319 C85.0695639,64.0789337 85.5185268,89.3980047 73.9410139,94.7450154 C62.363501,100.092026 43.1379245,83.4381463 31.0002314,57.5529532 C18.8639029,31.6650514 18.4135753,6.34665761 29.9910882,0.998969707 C41.5706481,-4.34804102 60.7955422,12.30313 72.9318707,38.1910319 Z" id="Stroke-146" stroke="#153247" stroke-width="3.17922072" stroke-linejoin="round"></path>
                    <path d="M31.6338679,36.7307754 C45.3775255,11.6490052 65.5800626,-3.75777726 76.7541827,2.31967385 C87.9310241,8.39848047 85.8479096,33.6585008 72.1069733,58.7409488 C58.3639961,83.8247522 38.1607787,99.2295014 26.9846176,93.1554391 C15.8084565,87.0732437 17.8922513,61.8139011 31.6338679,36.7307754 Z" id="Stroke-147" stroke="#153247" stroke-width="3.17922072" stroke-linejoin="round"></path>
                    <path d="M103.888413,49.0042232 C103.608715,61.6253687 80.1269643,71.3542808 51.439826,70.7317222 C22.7520071,70.109838 -0.276509123,59.3718818 0.00250892319,46.7534342" id="Stroke-148" stroke="#153247" stroke-width="3.11688312"></path>
                    <path d="M0,46.8236326 C0.278337612,34.2014025 23.7621379,24.4753922 52.4486057,25.0959144 C81.1350735,25.7198089 104.162917,36.4548422 103.885941,49.0743744" id="Stroke-149" stroke="#153247" stroke-width="3.11688312"></path>
                    <path d="M41.9894019,47.2627453 C41.9894019,42.0378152 46.2473077,37.800649 51.4986564,37.800649 C56.7500051,37.800649 61.0072262,42.0378152 61.0072262,47.2627453 C61.0072262,52.4863129 56.7500051,56.7234791 51.4986564,56.7234791 C46.2473077,56.7234791 41.9894019,52.4863129 41.9894019,47.2627453" id="Fill-150" fill="#18FFFF"></path>
                </g>
            </g>
        </g>
    </g>
</svg>