<?xml version="1.0" encoding="UTF-8"?>
<svg width="93px" height="33px" viewBox="0 0 93 33" version="1.1" xmlns="http://www.w3.org/2000/svg" xmlns:xlink="http://www.w3.org/1999/xlink">
    <!-- Generator: Sketch 46 (44423) - http://www.bohemiancoding.com/sketch -->
    <title>logo_eng</title>
    <desc>Created with Sketch.</desc>
    <defs>
        <polygon id="path-1" points="0 17.1081721 0 0.0036663113 18.9928705 0.0036663113 18.9928705 17.1081721"></polygon>
    </defs>
    <g id="Page-1" stroke="none" stroke-width="1" fill="none" fill-rule="evenodd">
        <g id="logo_eng">
            <g id="Group" transform="translate(1.000000, 0.000000)">
                <path d="M28.63296,7.80648 L35.86788,7.80648 C37.36476,7.80648 38.5668,8.16936 39.45132,8.89512 C40.31316,9.62088 40.74408,10.6188 40.74408,11.88888 C40.74408,12.79608 40.4946,13.58988 40.01832,14.2476 C39.51936,14.83728 38.86164,15.2682 38.04516,15.54036 C39.11112,15.7218 39.9276,16.1754 40.51728,16.8558 C41.10696,17.5362 41.42448,18.39804 41.42448,19.48668 C41.42448,21.07428 40.85748,22.25364 39.74616,23.02476 C38.7936,23.6598 37.47816,24 35.82252,24 L28.63296,24 L28.63296,7.80648 Z M30.49272,9.3714 L30.49272,14.88264 L35.41428,14.88264 C36.54828,14.88264 37.41012,14.63316 37.9998,14.17956 C38.58948,13.70328 38.907,13.0002 38.907,12.07032 C38.907,11.16312 38.61216,10.48272 38.02248,10.02912 C37.4328,9.57552 36.57096,9.3714 35.43696,9.3714 L30.49272,9.3714 Z M30.49272,16.42488 L30.49272,22.43508 L35.66376,22.43508 C36.79776,22.43508 37.68228,22.20828 38.36268,21.80004 C39.15648,21.30108 39.56472,20.50728 39.56472,19.464 C39.56472,18.42072 39.20184,17.6496 38.52144,17.15064 C37.86372,16.65168 36.91116,16.42488 35.66376,16.42488 L30.49272,16.42488 Z M47.8656,11.95692 C49.61196,11.95692 51.01812,12.5466 52.0614,13.77132 C53.05932,14.928 53.55828,16.37952 53.55828,18.14856 C53.55828,19.89492 53.05932,21.34644 52.08408,22.48044 C51.01812,23.70516 49.61196,24.31752 47.8656,24.31752 C46.09656,24.31752 44.71308,23.70516 43.6698,22.48044 C42.67188,21.34644 42.17292,19.89492 42.17292,18.14856 C42.17292,16.37952 42.67188,14.928 43.6698,13.77132 C44.71308,12.5466 46.09656,11.95692 47.8656,11.95692 Z M47.8656,13.47648 C46.6182,13.47648 45.64296,13.95276 44.96256,14.90532 C44.32752,15.76716 44.03268,16.83312 44.03268,18.14856 C44.03268,19.44132 44.32752,20.50728 44.96256,21.36912 C45.64296,22.32168 46.6182,22.79796 47.8656,22.79796 C49.09032,22.79796 50.06556,22.32168 50.79132,21.36912 C51.40368,20.50728 51.7212,19.41864 51.7212,18.14856 C51.7212,16.83312 51.40368,15.76716 50.79132,14.90532 C50.06556,13.95276 49.09032,13.47648 47.8656,13.47648 Z M63.44676,7.48896 L65.26116,7.48896 L65.26116,24 L63.56016,24 L63.56016,22.0722 C62.74368,23.56908 61.42824,24.31752 59.6592,24.31752 C57.93552,24.31752 56.5974,23.68248 55.64484,22.45776 C54.76032,21.32376 54.3294,19.87224 54.3294,18.1032 C54.3294,16.37952 54.76032,14.97336 55.64484,13.83936 C56.5974,12.56928 57.89016,11.95692 59.56848,11.95692 C61.2468,11.95692 62.53956,12.7734 63.44676,14.42904 L63.44676,7.48896 Z M59.95404,13.4538 C58.66128,13.4538 57.68604,13.9074 57.051,14.8146 C56.46132,15.6084 56.18916,16.69704 56.18916,18.1032 C56.18916,19.50936 56.46132,20.62068 57.02832,21.43716 C57.66336,22.34436 58.61592,22.82064 59.886,22.82064 C61.06536,22.82064 61.97256,22.36704 62.63028,21.45984 C63.19728,20.64336 63.49212,19.5774 63.49212,18.26196 L63.49212,18.03516 C63.49212,16.67436 63.15192,15.56304 62.51688,14.72388 C61.85916,13.86204 60.99732,13.4538 59.95404,13.4538 Z M66.93948,7.48896 L66.93948,24 L68.75388,24 L68.75388,17.3094 C68.75388,16.22076 69.04872,15.29088 69.66108,14.56512 C70.25076,13.83936 70.9992,13.47648 71.9064,13.47648 C72.88164,13.47648 73.63008,13.77132 74.1744,14.361 C74.67336,14.95068 74.94552,15.78984 74.94552,16.87848 L74.94552,24 L76.75992,24 L76.75992,16.60632 C76.75992,15.10944 76.39704,13.95276 75.67128,13.15896 C74.94552,12.34248 73.87956,11.95692 72.51876,11.95692 C71.72496,11.95692 71.02188,12.13836 70.38684,12.50124 C69.70644,12.8868 69.16212,13.4538 68.75388,14.20224 L68.75388,7.48896 L66.93948,7.48896 Z M79.91244,7.85184 C79.52688,7.85184 79.20936,7.96524 78.9372,8.2374 C78.66504,8.4642 78.55164,8.78172 78.55164,9.18996 C78.55164,9.57552 78.66504,9.89304 78.9372,10.1652 C79.20936,10.41468 79.52688,10.55076 79.91244,10.55076 C80.298,10.55076 80.61552,10.41468 80.88768,10.1652 C81.15984,9.89304 81.29592,9.57552 81.29592,9.18996 C81.29592,8.78172 81.15984,8.4642 80.88768,8.2374 C80.61552,7.96524 80.298,7.85184 79.91244,7.85184 Z M79.00524,12.27444 L79.00524,24 L80.81964,24 L80.81964,12.27444 L79.00524,12.27444 Z" id="Bodhi" fill="#FFFFFF"></path>
                <g id="Page-1-Copy" transform="translate(0.000000, 5.000000)">
                    <path d="M14.0051546,19 L14.0051546,18.4628059 C11.7580588,18.4151495 9.89635415,16.8486221 9.46573023,14.7770679 C9.45647446,14.7492425 9.44010841,14.7240187 9.42024928,14.7783256 C8.96412765,16.8066342 7.10756511,18.4010387 4.89690722,18.4621685 L4.89690722,19 L14.0051546,19 Z" id="Fill-1" fill="#FFFFFF"></path>
                    <path d="M14.2074777,9.2948471 C14.5621481,9.06820443 14.8579876,8.80674705 15.0670411,8.53583105 C14.9811152,8.3309519 14.8741155,8.14193549 14.75054,7.97610574 C14.443178,8.98658252 13.4530144,9.41444237 12.4927054,9.82940725 C11.7479009,10.1512089 11.0444377,10.4551694 10.6548413,11.0151724 C10.615991,11.0711432 10.5291691,11.0939828 10.4554288,11.0674465 C10.3819214,11.0409797 10.3465655,10.9741792 10.3744488,10.9142688 C10.812841,9.97128671 12.0535605,8.33069157 13.9645556,8.02758151 C13.9431772,7.90208544 13.9103659,7.77823813 13.8676807,7.65671642 C12.9542859,7.85474022 12.2249464,8.17819068 11.6507214,8.64062226 C11.5779308,8.70606904 11.502273,8.77174144 11.4237122,8.83762211 C10.303719,9.77704635 9.80913,10.7837917 9.69587629,12.4824924 C10.7528452,10.6425371 13.2540499,9.81668582 14.7597149,9.73081187 C14.8444223,9.72628214 14.9187898,9.77659511 14.9249363,9.84382949 C14.9311008,9.91104651 14.8670909,9.9694644 14.7819894,9.97434124 C13.2408967,10.062211 10.9069384,10.9409439 9.95196945,12.6347503 C10.457848,12.2358217 11.1509714,11.9833891 11.9770784,11.9063837 C13.2082108,11.7913355 14.4927623,12.1015439 15.1816925,12.6666667 C15.4930686,12.3687111 15.7281955,11.9925874 15.8559105,11.6031174 C15.5399112,11.7941818 15.1095112,11.9330761 14.6698109,11.972785 C14.6638615,11.973323 14.65793,11.973566 14.6520881,11.973566 C14.5746025,11.973566 14.5077792,11.9275918 14.4987476,11.8653731 C14.4891067,11.7983817 14.5499268,11.7378812 14.6347237,11.7301928 C15.2534259,11.6743262 15.7557204,11.4141184 15.951101,11.1764551 C15.9719597,10.9970188 15.9677844,10.8197345 15.935439,10.650885 C14.9045614,11.7469407 13.0272736,11.8278857 11.6643226,11.5422524 C11.5818373,11.5249145 11.5327189,11.4580967 11.5545812,11.3929623 C11.5765151,11.3278105 11.6612224,11.2889 11.7435464,11.3062726 C12.1240394,11.3860028 13.7185514,11.6651973 14.9443077,11.0547598 C15.051182,10.8677219 15.131929,10.6736204 15.1891831,10.4765338 C14.7279251,10.7856835 13.8966572,10.9873866 12.6791798,11.0878737 C12.6737142,11.0883076 12.6682845,11.0885506 12.6629443,11.0885506 C12.5848136,11.0885506 12.5177395,11.0418822 12.5094605,10.9791776 C12.5005901,10.9121167 12.5621808,10.8521022 12.6470673,10.8450559 C14.2467222,10.7130169 15.1349216,10.4056201 15.2894986,9.93098773 C15.3204463,9.55717224 15.2770801,9.18625508 15.1769079,8.84541463 C14.9674423,9.07389696 14.7040737,9.29151489 14.4018189,9.4846445 C14.3732187,9.50293697 14.3388663,9.51182288 14.3047648,9.51182288 C14.2596962,9.51182288 14.2150757,9.49630725 14.1845223,9.46652558 C14.1308881,9.41407791 14.1411382,9.33722871 14.2074777,9.2948471" id="Fill-3" fill="#FFFFFF"></path>
                    <path d="M5.28865979,7.40584291 C5.80559331,7.51817805 6.26685242,7.6692795 6.67699248,7.86157335 C6.38353646,7.49210605 6.19118416,7.13247981 6.10280703,6.78580415 C6.08621638,6.72072665 6.1398524,6.65735767 6.22261068,6.64433875 C6.30528034,6.63143943 6.38591162,6.67345192 6.40248455,6.73851234 C6.53804577,7.27020356 6.94417996,7.84136157 7.61087247,8.43900163 C7.68898679,8.50185806 7.76458415,8.56703807 7.8374164,8.63483212 C8.59117438,9.2646436 9.0713284,9.92003162 9.34720116,10.7761023 L9.34720116,9.06044137 C9.34720116,8.10722426 9.34720116,6.51184308 8.60714465,5.60086057 C8.56169761,5.54492365 8.58254227,5.47062014 8.65367292,5.43487792 C8.72483902,5.39920403 8.81926039,5.41557165 8.86470743,5.47145731 C9.07817027,5.73422759 9.23370763,6.04611779 9.34720116,6.38064588 L9.34720116,4.71929876 C9.34720116,4.65292279 9.41561987,4.59912151 9.50000886,4.59912151 C9.58439785,4.59912151 9.65283429,4.65292279 9.65283429,4.71929876 L9.65283429,6.38064588 C9.76631009,6.04611779 9.92186518,5.73422759 10.1353103,5.47145731 C10.1807928,5.41552039 10.2752496,5.39920403 10.3463803,5.43487792 C10.4174755,5.47062014 10.4383378,5.54492365 10.3928908,5.60086057 C9.65283429,6.51184308 9.65283429,8.10722426 9.65283429,9.06044137 L9.65283429,10.7761194 C9.92868933,9.92003162 10.4088256,9.2646436 11.1626013,8.6348492 C11.2353981,8.56708933 11.31096,8.5019264 11.3890212,8.43912123 C12.05582,7.84139574 12.4620074,7.27020356 12.5975509,6.73851234 C12.6141593,6.67345192 12.6945601,6.63149069 12.777407,6.64433875 C12.8601653,6.65735767 12.9138191,6.72072665 12.8972107,6.78580415 C12.8088336,7.13246273 12.6164813,7.49210605 12.3229721,7.86162461 C12.7331476,7.66931367 13.1944067,7.51817805 13.7113402,7.40584291 C13.4128325,6.76755717 12.8440532,6.21348435 12.2296851,5.86487806 C12.4313431,7.27794315 11.0526174,8.42063505 10.3405133,8.74392108 C10.3164426,8.75483852 10.2901741,8.76001533 10.2642601,8.76001533 C10.2114217,8.76001533 10.1600899,8.73845382 10.1317476,8.69992671 C10.0895619,8.64241795 10.1146074,8.56895161 10.1877056,8.535738 C10.777879,8.26777383 11.665922,7.5030064 11.8889564,6.56617399 C11.8841706,6.55956202 11.8798634,6.55262543 11.8766729,6.54512504 C11.7665649,6.28792453 11.5636307,6.06311756 11.3139556,5.83198906 C10.8343688,6.11584247 10.5042573,6.7875981 10.5177284,7.44286652 C10.8082066,7.24343106 11.0526174,6.74514139 11.1273462,6.48074803 C11.1456739,6.41590972 11.2274573,6.37529821 11.3096661,6.38951309 C11.3920699,6.40388174 11.4440043,6.46807081 11.4256589,6.53284078 C11.4226456,6.54370696 11.0897513,7.62072338 10.4162347,7.75492758 C10.4038626,7.75738784 10.3912424,7.75860089 10.3787108,7.75860089 C10.3475324,7.75860089 10.3167794,7.75111758 10.2907768,7.73673185 C10.254334,7.71655423 10.2309015,7.68491245 10.2266121,7.6500074 C10.1294433,6.86053479 10.5115423,6.02081462 11.1123862,5.65131314 C11.0643159,5.60923231 11.0151466,5.56665601 10.9651442,5.52332796 C10.4180427,5.04947012 9.81071136,4.52287029 9.50000886,3.68656716 C9.18927092,4.52285321 8.5819928,5.04947012 8.03489124,5.52329379 C7.98487113,5.56663893 7.93571956,5.60921523 7.88764921,5.65129606 C8.48847541,6.02079754 8.87057442,6.8605177 8.77344112,7.6500074 C8.76913393,7.68491245 8.74570141,7.71655423 8.70924097,7.73673185 C8.68325604,7.75111758 8.65244989,7.75860089 8.6213247,7.75860089 C8.60877536,7.75860089 8.59617284,7.75738784 8.58378303,7.75492758 C7.9102841,7.62072338 7.57737211,6.54370696 7.57435885,6.53284078 C7.55603115,6.46807081 7.60798328,6.40388174 7.69035161,6.38951309 C7.77305672,6.37524696 7.85436155,6.41590972 7.87267153,6.48074803 C7.94740037,6.74514139 8.19181115,7.24343106 8.48230709,7.44286652 C8.49577813,6.7875981 8.16564897,6.11584247 7.68607988,5.83197198 C7.43640475,6.06311756 7.23347059,6.28794162 7.12338027,6.54512504 C7.12015431,6.55264252 7.11584712,6.55957911 7.11104363,6.56619108 C7.33409573,7.5030064 8.222121,8.26777383 8.81232989,8.535738 C8.88542802,8.56895161 8.9104558,8.64241795 8.86827017,8.69992671 C8.83996325,8.73845382 8.78861377,8.76001533 8.7357931,8.76001533 C8.70984362,8.76001533 8.68359281,8.75483852 8.65952219,8.74392108 C7.94740037,8.42063505 6.56865694,7.27794315 6.77035034,5.86487806 C6.1559822,6.21351852 5.5872029,6.76757425 5.28865979,7.40584291" id="Fill-5" fill="#FFFFFF"></path>
                    <path d="M7.02282409,11.906369 C7.84900561,11.9833741 8.54216731,12.2358232 9.04808342,12.6348025 C8.09312913,10.9409498 5.75914484,10.0622027 4.21801096,9.97435056 C4.13290911,9.96945639 4.06891695,9.9110387 4.0750635,9.84382191 C4.08119212,9.77658777 4.15514777,9.72686505 4.24028547,9.73082204 C5.74595576,9.8166957 8.24715112,10.6425267 9.30412371,12.4824409 C9.19086961,10.7837636 8.69629682,9.77703901 7.57631768,8.83763537 C7.49770285,8.77170287 7.42199105,8.70601334 7.34916436,8.64051472 C6.77493738,8.17815416 6.04563113,7.85470483 5.13228697,7.65671642 C5.08960164,7.77823771 5.05679021,7.90208459 5.0354117,8.02759758 C6.94643133,8.33070659 8.18717304,9.97126133 8.62556677,10.9142575 C8.65345022,10.9741677 8.61812999,11.0409854 8.5445865,11.0674347 C8.47106094,11.0939014 8.38411332,11.0710793 8.34517327,11.0151608 C7.95557557,10.4551771 7.25207405,10.1512003 6.50730288,9.82939972 C5.5469726,9.41443628 4.55676976,8.98659527 4.24944256,7.97610463 C4.12586657,8.14195116 4.01886653,8.33094957 3.93294035,8.53581065 C4.1419766,8.80674307 4.43781711,9.06821689 4.79252466,9.29484143 C4.85886432,9.33724024 4.86911454,9.41408918 4.81548012,9.46651931 C4.78498036,9.49631824 4.74032383,9.51181645 4.69523723,9.51181645 C4.66115348,9.51181645 4.62681885,9.50294793 4.59818277,9.48463817 C4.29589108,9.29150922 4.03253945,9.07389205 3.82307312,8.84544522 C3.72293642,9.18624978 3.67955222,9.55716566 3.71049997,9.93097985 C3.86505957,10.4056106 4.7532262,10.7130063 6.35295833,10.8450622 C6.43780931,10.8520911 6.49943602,10.9121055 6.49056565,10.979166 C6.48225079,11.0418705 6.41519432,11.0885387 6.33708125,11.0885387 C6.33172318,11.0885387 6.32629344,11.0882957 6.32082785,11.0878792 C5.10334624,10.9873924 4.27207546,10.7856726 3.81081587,10.476524 C3.86807012,10.6736099 3.94881743,10.8676761 4.05567411,11.0547133 C5.28143474,11.6651834 6.87593424,11.3860072 7.25644652,11.3062773 C7.33859158,11.2888006 7.42349632,11.3277284 7.44537658,11.3929493 C7.46727477,11.4580835 7.41815618,11.5249185 7.33565271,11.5422563 C5.97289404,11.8278192 4.09547433,11.7469786 3.06455735,10.6507878 C3.03221183,10.8196889 3.02803648,10.9970072 3.04891323,11.1764429 C3.24427656,11.4141227 3.74657284,11.6743296 4.36527714,11.7301961 C4.45007436,11.7378671 4.51089468,11.7983674 4.50125374,11.8653759 C4.49224001,11.9275944 4.42539858,11.973551 4.3479127,11.973551 C4.3420708,11.973551 4.33613929,11.9733081 4.33018987,11.97277 C3.89048798,11.9330613 3.46010447,11.7941674 3.1440861,11.6031037 C3.27178368,11.9925897 3.50692931,12.3687122 3.81830641,12.6666667 C4.50720317,12.1015458 5.79202796,11.7915468 7.02282409,11.906369" id="Fill-7" fill="#FFFFFF"></path>
                    <g id="Group-11">
                        <mask id="mask-2" fill="white">
                            <use xlink:href="#path-1"></use>
                        </mask>
                        <g id="Clip-10"></g>
                        <path d="M18.7858811,11.151208 C17.2863782,6.17943172 11.2068417,1.66090099 9.4870743,0.00365942621 C7.76728912,1.66090099 1.68777036,6.17943172 0.188267542,11.151208 C0.016732833,11.7199682 -0.0555598499,12.3562023 0.0477103189,12.9770138 C0.290985178,15.2973242 2.31979662,17.1081721 4.78658837,17.1081721 C7.06664184,17.1081721 8.99794015,15.4914149 9.46548987,13.4249579 C9.46711182,13.4205859 9.4686803,13.4169196 9.47024878,13.4135459 C9.46953583,13.4134598 9.46882289,13.4133565 9.46810994,13.4132705 C9.46622064,13.4130467 9.46433133,13.4128574 9.46245985,13.4125647 C9.45959024,13.4121516 9.45673846,13.411618 9.45388668,13.4110672 C9.45203302,13.4107058 9.45017936,13.4103615 9.4483257,13.4099484 C9.44732758,13.4097074 9.44627598,13.4095525 9.44524221,13.4092943 C9.4434242,13.408864 9.44165966,13.4082788 9.43985947,13.4077796 C9.43800582,13.4072632 9.43616998,13.4067468 9.43433415,13.406196 C9.43383508,13.4060239 9.43330038,13.4059034 9.43278349,13.4057313 C9.43228443,13.4055936 9.43176754,13.4054731 9.43125066,13.405301 C9.42964653,13.4047674 9.4281137,13.4041305 9.42656304,13.4035625 C9.42458462,13.4028396 9.42265966,13.4021338 9.42073471,13.4013593 C9.41845328,13.4004298 9.4162075,13.3994659 9.41399737,13.3984675 C9.41185854,13.3974864 9.40973752,13.3964708 9.40765216,13.3954209 C9.40668968,13.3949389 9.40565591,13.3945086 9.40469343,13.3940094 C9.40367749,13.3934758 9.4027863,13.3928562 9.40178818,13.3923054 C9.39972064,13.3911521 9.39768874,13.3899472 9.3956925,13.3887079 C9.39376754,13.3875202 9.39186041,13.3863153 9.39002458,13.3850416 C9.38826004,13.3838367 9.38653114,13.3825974 9.3848379,13.3813236 C9.38289512,13.3798778 9.38100582,13.3783975 9.37916998,13.3768828 C9.37770844,13.3756607 9.37630038,13.3744213 9.37491013,13.3731476 C9.373003,13.3714263 9.37116717,13.369705 9.36940263,13.3678977 C9.36819062,13.3666756 9.36703208,13.3654535 9.36587355,13.3641625 C9.36410901,13.3622347 9.36241576,13.3602553 9.36081163,13.3582414 C9.36024128,13.3575356 9.35959962,13.3568988 9.35902927,13.3561758 C9.24994859,13.2137577 8.72775159,13.0287209 8.15746642,13.0610636 C7.67111276,13.0893958 7.00898236,13.2784259 6.61670188,14.0185561 C6.59206961,14.0650132 6.53496266,14.0929667 6.4748257,14.0930356 C6.45509493,14.0930356 6.43506116,14.0900061 6.41570469,14.0836374 C6.33735197,14.0578527 6.30040356,13.9869879 6.33309212,13.9252631 C6.8093576,13.0267242 7.66638949,12.846834 8.13486604,12.8195862 C8.44496173,12.8015989 8.74022814,12.8361277 8.98753114,12.9003828 C8.38126004,12.3356159 7.5225349,12.1685836 7.00586323,12.1205257 C5.88199362,12.0161132 4.67417467,12.3046846 4.06350113,12.8124429 C4.19774878,12.9146521 4.34263715,13.0027985 4.49643734,13.0727683 C4.50878912,13.0783968 4.51966154,13.0852475 4.52919719,13.0929072 C5.4069045,13.1147845 6.41411839,12.9430187 6.92644109,12.595115 C6.44874972,12.5291386 5.90081538,12.5472292 5.19364465,12.8688146 C5.12013996,12.9022762 5.02612026,12.8823438 4.98373565,12.8244746 C4.94131538,12.7665538 4.96646454,12.6925391 5.03995141,12.6590947 C5.97581726,12.2333895 6.68799644,12.2913104 7.26127598,12.4043463 C7.31112871,12.4141576 7.35148143,12.4429545 7.36875253,12.4810807 C7.38602364,12.5192069 7.37794953,12.5616535 7.34727505,12.5940995 C6.69207805,13.2872389 4.68873659,13.5054274 3.52417561,13.2134135 C3.6582985,13.3938889 3.84849456,13.5873944 4.09995047,13.765856 C4.4998773,13.9752833 5.29716435,13.7557177 5.7449833,13.5519706 C5.81847017,13.5186124 5.9124364,13.538407 5.95487448,13.5962934 C5.99731257,13.6541626 5.97214559,13.728229 5.89865872,13.7616905 C5.60084353,13.8971547 5.12268874,14.0573364 4.67048518,14.087407 C5.16986792,14.3073168 5.81453114,14.4525578 6.62283321,14.428701 C6.70628349,14.4258609 6.77898612,14.4782909 6.78212308,14.5451451 C6.78531351,14.6120166 6.71913433,14.6681645 6.63429381,14.670712 C6.57201801,14.6725365 6.51061557,14.6734316 6.45010432,14.6734316 C5.30812589,14.6734316 4.47957617,14.3534125 3.91854146,13.9618401 C3.90857805,13.9564353 3.89866811,13.9509101 3.88895422,13.9451094 C3.87480225,13.9366923 3.86318124,13.9266401 3.8538773,13.9156412 C3.4460546,13.6160536 3.18976848,13.2812316 3.06544859,13.0180318 C3.04286604,12.9702148 3.0607788,12.9162873 3.11029287,12.8833594 C3.15977129,12.8504314 3.23026379,12.8454225 3.28631914,12.870949 C3.45753302,12.9488366 3.67753021,13.0060001 3.9259561,13.0430763 C3.30130882,12.6031706 2.87728443,11.9041272 2.78636604,11.218768 C2.78305084,11.2079412 2.78178537,11.1969423 2.78230225,11.1860466 C2.74610244,10.8772502 2.77795328,10.572103 2.89024221,10.2956493 C2.9087788,10.2500184 2.95971876,10.2172626 3.02019437,10.2121676 C3.08018874,10.2068661 3.13923846,10.2305164 3.16966341,10.271999 C3.30323377,10.4542818 3.45583977,10.6087317 3.62163527,10.7397894 C3.51749174,10.4717872 3.45746173,10.198931 3.43491482,9.92913869 C3.43325722,9.92220196 3.43156398,9.9152308 3.43010244,9.90820801 C3.42725066,9.89448947 3.42758931,9.88096026 3.43044109,9.86799908 C3.37395797,8.96887496 3.72936135,8.11130237 4.24772627,7.59402543 C4.28615403,7.55558941 4.35012308,7.53940944 4.40992139,7.55247391 C4.46964841,7.56571049 4.51342326,7.60595385 4.52089137,7.65451096 C4.55701989,7.88936144 4.62977598,8.09290196 4.73162026,8.27224139 C4.73395516,8.22356379 4.73787636,8.1750411 4.74347298,8.12669055 C4.74370469,8.12295539 4.74422158,8.1191858 4.74489887,8.115399 C4.77026191,7.90574796 4.82555084,7.6998665 4.9053651,7.50061195 C4.90609587,7.49673909 4.90705835,7.49284901 4.90828818,7.48897615 C4.91115779,7.48004274 4.91529287,7.47166014 4.92035478,7.46377671 C5.27370844,6.61720306 6.06703865,5.89521513 6.87828161,5.52620865 C6.93109306,5.50216246 6.99705835,5.50498535 7.04619812,5.53354127 C7.09535572,5.56202834 7.11840169,5.61074036 7.10503396,5.65764505 C7.0609561,5.81175061 7.03930038,5.96422096 7.03627036,6.11397171 C7.23689325,5.85522996 7.50797298,5.61993196 7.78980038,5.3753735 C8.42334165,4.82559893 9.14140263,4.20246371 9.33840732,3.09205335 C9.33847861,3.09170909 9.33860338,3.09136484 9.33867467,3.09100337 C9.33919156,3.08823212 9.3399045,3.08552972 9.3406531,3.08282732 C9.34102739,3.08158801 9.34129475,3.08031427 9.34168687,3.07907495 C9.3425424,3.0764414 9.343594,3.07384228 9.34468124,3.07126037 C9.3451803,3.07005548 9.34562589,3.06878174 9.3461606,3.06759406 C9.34739043,3.0649433 9.3487985,3.0623786 9.35024221,3.05981391 C9.35081257,3.05879835 9.35132946,3.05776559 9.35191764,3.05675004 C9.35382477,3.05361732 9.3559636,3.05055346 9.35820938,3.04754123 C9.35842326,3.04724861 9.3586015,3.046956 9.35881538,3.04666338 C9.381897,3.01635176 9.42146548,2.99416456 9.46933977,2.98889746 C9.47285103,2.98850157 9.47632664,2.98836387 9.47982008,2.98817453 C9.48035478,2.9881401 9.48087167,2.98808846 9.4814242,2.98807125 C9.48525629,2.98788191 9.48907054,2.9878647 9.4928848,2.98791634 C9.4945424,2.98791634 9.49618218,2.98791634 9.49783977,2.98796797 C9.50051332,2.98807125 9.50315122,2.9882778 9.50582477,2.98848436 C9.50783884,2.98863927 9.50985291,2.9886737 9.51190263,2.98889746 C9.51272251,2.98898353 9.51350675,2.98915565 9.51432664,2.98925893 C9.51578818,2.98944827 9.51721407,2.98970646 9.51867561,2.98991301 C9.52245422,2.99048103 9.52619719,2.99106627 9.52986886,2.99182363 C9.53013621,2.99189248 9.53042139,2.99196133 9.53067092,2.99201297 C9.5650349,2.99931116 9.59405178,3.01547392 9.61415685,3.03690376 C9.61429944,3.03704146 9.6144242,3.03719638 9.61453114,3.03733408 C9.61725816,3.04026025 9.61984259,3.04327247 9.62221313,3.04637076 C9.62296173,3.04733468 9.62358555,3.04835023 9.62428068,3.04934857 C9.62600957,3.05172392 9.62772064,3.05409928 9.62921782,3.05657791 C9.63000206,3.05788608 9.63066154,3.05922867 9.63139231,3.06055405 C9.63265779,3.06284335 9.63394109,3.06514985 9.63504615,3.06749078 C9.63565216,3.06879895 9.63611557,3.07019318 9.63668593,3.07151856 C9.63770188,3.07399719 9.63871782,3.07651025 9.63953771,3.07904052 C9.63994765,3.08029705 9.64023283,3.08160522 9.64058931,3.08287896 C9.6413379,3.08556415 9.64205084,3.08824933 9.64258555,3.09100337 C9.64263902,3.09136484 9.64276379,3.09169188 9.64281726,3.09205335 C9.83982195,4.20246371 10.5578829,4.82559893 11.1914242,5.37539071 C11.4732516,5.61996638 11.7443492,5.85524718 11.9449364,6.11398892 C11.9419242,5.96422096 11.9203041,5.81176782 11.8762084,5.65764505 C11.8628229,5.61074036 11.8858867,5.56202834 11.9350443,5.53354127 C11.9842375,5.50498535 12.0501137,5.50216246 12.1029608,5.52620865 C12.9141503,5.89519792 13.7074448,6.61716863 14.0607985,7.46372507 C14.0658961,7.47162572 14.070049,7.48002553 14.0729186,7.48897615 C14.0741484,7.49288344 14.0751109,7.49677351 14.0758595,7.5006808 C14.1554955,7.69950504 14.2107131,7.90492175 14.2361296,8.11410804 C14.2361296,8.11412526 14.2361475,8.11415968 14.2361475,8.11419411 C14.2369674,8.11842844 14.2374664,8.12262834 14.2377338,8.12681104 C14.2433304,8.17512717 14.2472338,8.22361543 14.2495687,8.2722586 C14.3514486,8.09291917 14.424169,7.88936144 14.4602976,7.65451096 C14.4677657,7.60595385 14.5115583,7.56571049 14.5712854,7.55247391 C14.631048,7.53928895 14.6949992,7.55565826 14.7334805,7.59402543 C15.2518276,8.11128516 15.607231,8.96880611 15.5507835,9.8678958 C15.5536353,9.88090862 15.5540096,9.89445504 15.55114,9.90820801 C15.5496784,9.9152308 15.5479674,9.92220196 15.5463098,9.9291559 C15.523745,10.1989482 15.4637328,10.4718216 15.3595893,10.739841 C15.525367,10.6087489 15.6780086,10.4542991 15.811579,10.271999 C15.8419326,10.2305164 15.900109,10.2068661 15.961048,10.2121676 C16.0215058,10.2172626 16.0724636,10.2500184 16.0910002,10.2956493 C16.2032713,10.5720685 16.2351221,10.877147 16.1989402,11.1858917 C16.1994927,11.1968562 16.1981737,11.2079584 16.1948407,11.2188885 C16.103851,11.9042133 15.6798623,12.6031706 15.0552685,13.0430763 C15.3037122,13.0060001 15.5237094,12.9488538 15.6949411,12.870949 C15.7510499,12.8454225 15.8215246,12.8504314 15.8709674,12.8833594 C15.9204458,12.9162873 15.9383764,12.9702148 15.9158116,13.0180318 C15.7915274,13.2811456 15.5352591,13.6158643 15.1275433,13.9154002 C15.1182216,13.9265024 15.1065114,13.9366407 15.0922525,13.9451094 C15.0823248,13.9510478 15.0722009,13.9566935 15.0619702,13.962236 C14.5009355,14.3535846 13.6725462,14.6733627 12.5311381,14.6734316 C12.4705199,14.6734316 12.4093135,14.6725365 12.3469308,14.670712 C12.2621081,14.6681645 12.1959289,14.6120166 12.1991193,14.5451451 C12.2022741,14.4783597 12.2749054,14.4259642 12.3584092,14.428701 C13.1673351,14.4525923 13.812034,14.3073685 14.3112919,14.0874414 C13.8589101,14.0574741 13.3805415,13.8972063 13.0826015,13.7616905 C13.0091146,13.728229 12.983912,13.6541626 13.0263501,13.5962934 C13.0687704,13.538407 13.1627366,13.5186124 13.2362591,13.5519706 C13.6846306,13.7559759 14.4832722,13.9757136 14.8827891,13.765047 C15.1335143,13.5868092 15.3231756,13.3935963 15.4570311,13.2134135 C14.292488,13.5052553 12.2890752,13.2873077 11.6339674,12.5940995 C11.603275,12.5616535 11.5952188,12.5192069 11.612472,12.4810807 C11.629761,12.4429545 11.6700959,12.4141576 11.7199486,12.4043463 C12.293139,12.2914997 13.0053538,12.2334412 13.9412197,12.6590947 C14.0147066,12.6925391 14.0399092,12.7665538 13.9974711,12.8244746 C13.955033,12.8823438 13.8610133,12.9022762 13.7875621,12.8688146 C13.0804448,12.5471087 12.5325996,12.5291386 12.0548013,12.595115 C12.567124,12.9429671 13.5743379,13.1147501 14.4520809,13.0928899 C14.4615987,13.0852303 14.4724533,13.0783968 14.4848051,13.0727683 C14.6385874,13.0027985 14.7834758,12.9146521 14.9177413,12.8124429 C14.3069964,12.3046158 13.0989458,12.0159928 11.9752722,12.1205945 C11.4586184,12.1685836 10.5999111,12.3356159 9.99367561,12.9004516 C10.2409964,12.8361277 10.5363341,12.8016678 10.8463942,12.8195862 C11.3148529,12.846834 12.1718848,13.0267242 12.6481503,13.9252631 C12.6808388,13.9869879 12.6438726,14.0578527 12.5655555,14.0836374 C12.5462347,14.0900061 12.5261475,14.0930356 12.5064167,14.0930356 C12.4462619,14.0930356 12.3891728,14.0650132 12.3645227,14.0185561 C11.97226,13.2784259 11.3101296,13.0893958 10.8237582,13.0610636 C10.2537938,13.0284799 9.73131163,13.2137577 9.62219531,13.3561758 C9.6216606,13.3568816 9.62101895,13.3575184 9.62044859,13.3582069 C9.61880882,13.3602553 9.61709775,13.3622691 9.61529756,13.3642314 C9.6141925,13.3654535 9.61306961,13.3666412 9.61192889,13.3678116 C9.61007523,13.3696878 9.60816811,13.3714952 9.60618968,13.3732853 C9.60487073,13.3744558 9.60355178,13.375609 9.60219719,13.3767623 C9.60027223,13.3783803 9.59825816,13.3799122 9.59620844,13.3814441 C9.59462214,13.382649 9.59301801,13.3838023 9.59139606,13.3849211 C9.58941764,13.3862809 9.58740356,13.3875719 9.58533602,13.3888456 C9.58346454,13.3899989 9.58157523,13.3911177 9.57963246,13.3921849 C9.57765403,13.3933209 9.57562214,13.3943881 9.57353677,13.3954381 C9.57351895,13.3954553 9.57350113,13.3954725 9.57346548,13.3954725 C9.57143358,13.3964881 9.56940169,13.3974692 9.56731632,13.3984159 C9.56610432,13.3989667 9.56494578,13.3996036 9.56369812,13.4001199 C9.56369812,13.4001372 9.5636803,13.4001372 9.56366248,13.4001372 C9.563306,13.4002921 9.56296735,13.4003953 9.56261088,13.4005503 C9.56188011,13.4008429 9.56113152,13.4011011 9.56040075,13.4013937 C9.55854709,13.4021338 9.55665779,13.4028396 9.55476848,13.4035281 C9.55316435,13.4041133 9.55163152,13.4047502 9.55000957,13.4052838 C9.54910056,13.4055936 9.54819156,13.4057829 9.54728255,13.4060755 C9.54712214,13.4061272 9.54697955,13.4061616 9.54683696,13.4062132 C9.5450546,13.4067641 9.54323659,13.4072632 9.54145422,13.4077624 C9.53961839,13.4082616 9.53785385,13.4088468 9.53600019,13.4092943 C9.53496642,13.4095525 9.53387917,13.4097246 9.53282758,13.4099656 C9.53104522,13.4103615 9.5292272,13.4107058 9.52744484,13.41105 C9.52453959,13.4116008 9.52163433,13.4121516 9.51872908,13.412582 C9.51689325,13.4128574 9.51502176,13.4130467 9.51316811,13.4132705 C9.5112788,13.4134942 9.50942514,13.4137868 9.50753583,13.413959 C9.50887261,13.4170917 9.51008462,13.4203793 9.51122533,13.4237186 C9.95086323,15.5255477 11.8738735,17.1081721 14.1799317,17.1081721 C16.2889852,17.1081721 18.0767319,15.7839452 18.7032507,13.9498601 C19.1085602,13.0367937 19.0426306,12.0025668 18.7858811,11.151208" id="Fill-9" fill="#F2F2F2" mask="url(#mask-2)"></path>
                    </g>
                    <path d="M6.63560471,9.62883935 C7.04827389,9.8037702 7.46871583,9.98208887 7.83505155,10.2089552 C7.25614164,9.4277883 6.28288915,8.53250217 4.99717541,8.31840796 C4.99093581,8.44446929 4.99708627,8.57166554 5.01733823,8.6992514 C5.01874659,8.70812752 5.01876442,8.71686814 5.01767695,8.72540548 C5.43027482,9.11775061 6.02269791,9.36900937 6.63560471,9.62883935" id="Fill-12" fill="#FFFFFF"></path>
                    <path d="M13.8847308,8.6992514 C13.904983,8.57166554 13.9111158,8.44446929 13.9048939,8.31840796 C12.6193033,8.53251911 11.645929,9.42783912 11.0670103,10.2089552 C11.4333338,9.98203806 11.8537643,9.8037702 12.2664754,9.62883935 C12.8793558,9.36902631 13.4718057,9.11775061 13.8843564,8.72542242 C13.8833046,8.71686814 13.8833046,8.70811058 13.8847308,8.6992514" id="Fill-14" fill="#FFFFFF"></path>
                </g>
            </g>
        </g>
    </g>
</svg>