<?xml version="1.0" encoding="UTF-8" standalone="no"?>
<svg width="104px" height="40px" viewBox="0 0 104 40" version="1.1" xmlns="http://www.w3.org/2000/svg" xmlns:xlink="http://www.w3.org/1999/xlink">
    <!-- Generator: Sketch 45.1 (43504) - http://www.bohemiancoding.com/sketch -->
    <title>Group 22</title>
    <desc>Created with Sketch.</desc>
    <defs></defs>
    <g id="Website_v1.0" stroke="none" stroke-width="1" fill="none" fill-rule="evenodd">
        <g id="Website_v1" transform="translate(-589.000000, -3512.000000)">
            <g id="Group-22" transform="translate(581.000000, 3502.000000)">
                <rect id="Rectangle-17" opacity="0" x="0" y="0" width="120" height="60"></rect>
                <g id="Group-24" transform="translate(64.000000, 19.000000)" fill="#000000">
                    <path d="M6.627411,4.60803462 C6.627411,4.17326538 6.590241,3.77830385 6.51627645,3.42211154 C6.44231191,3.06626538 6.31653464,2.76165 6.13856918,2.50826538 C5.96060373,2.25453462 5.72369191,2.05861154 5.42783373,1.91980385 C5.13197555,1.78134231 4.76215282,1.71211154 4.318741,1.71211154 C3.87007282,1.71211154 3.49574464,1.78965 3.195381,1.94541923 C2.89464191,2.10118846 2.65209827,2.30853462 2.46737464,2.56849615 C2.28227555,2.82845769 2.15199282,3.13238077 2.07540009,3.47957308 C1.99918282,3.82711154 1.96126191,4.19472692 1.96126191,4.58276538 C1.96126191,5.03415 1.99805645,5.44018846 2.072021,5.80018846 C2.14598555,6.16053462 2.27063645,6.46826538 2.44634918,6.72407308 C2.62206191,6.97988077 2.85784736,7.17476538 3.15370555,7.30907308 C3.44956373,7.44338077 3.82163918,7.51053462 4.26993191,7.51053462 C4.71822464,7.51053462 5.09255282,7.43368846 5.39329191,7.28034231 C5.69365555,7.12665 5.93619918,6.91826538 6.12129827,6.65380385 C6.30602191,6.38934231 6.43668009,6.08161154 6.51289736,5.72991923 C6.58911464,5.37857308 6.627411,5.00472692 6.627411,4.60803462 M8.54110282,4.51838077 C8.54110282,5.20480385 8.44836555,5.81853462 8.26364191,6.35991923 C8.07854282,6.90095769 7.80371009,7.36030385 7.43839282,7.73726538 C7.07307555,8.11457308 6.62140373,8.40222692 6.08300191,8.60057308 C5.54460009,8.79857308 4.921721,8.89791923 4.21436464,8.89791923 C3.51639464,8.89791923 2.90740736,8.81345769 2.38777827,8.64522692 C1.86739827,8.47699615 1.43412373,8.22015 1.08757918,7.87503462 C0.741034636,7.52957308 0.480844636,7.09065 0.307384636,6.55791923 C0.134300091,6.02518846 0.0475700909,5.39415 0.0475700909,4.66549615 C0.0475700909,3.99638077 0.139931909,3.39441923 0.324655545,2.85961154 C0.509754636,2.32480385 0.784587364,1.86995769 1.14990464,1.49472692 C1.51484645,1.11984231 1.96689373,0.832188462 2.50529555,0.631765385 C3.04407282,0.431688462 3.66920464,0.331303846 4.38106645,0.331303846 C5.06026373,0.331303846 5.66024009,0.414380769 6.18024464,0.580534615 C6.70024918,0.746688462 7.13465009,1.00249615 7.48344736,1.34761154 C7.83262009,1.69272692 8.09618918,2.12888077 8.27415464,2.65503462 C8.45174464,3.18153462 8.54110282,3.80253462 8.54110282,4.51838077" id="Fill-2"></path>
                    <path d="M14.8049236,2.92022308 C14.8049236,2.6478 14.7377173,2.41760769 14.60368,2.22999231 C14.4696427,2.04237692 14.2500018,1.91014615 13.9451327,1.8333 C13.8523955,1.81218462 13.7476436,1.79522308 13.6297509,1.78241538 C13.5118582,1.76960769 13.3489109,1.76303077 13.1409091,1.76303077 L12.3227936,1.76303077 L12.3227936,4.10960769 L13.2516682,4.10960769 C13.5107318,4.10960769 13.7371309,4.08087692 13.9312409,4.02341538 C14.1253509,3.96595385 14.2871718,3.88460769 14.4167036,3.78006923 C14.54586,3.67587692 14.6431027,3.55126154 14.7076809,3.40622308 C14.7726345,3.26118462 14.8049236,3.09953077 14.8049236,2.92022308 M17.1552691,8.53345385 C17.1552691,8.58053077 17.1458827,8.61964615 17.1274855,8.65183846 C17.1090882,8.68333846 17.06516,8.71033846 16.9957009,8.73145385 C16.9262418,8.75291538 16.8248691,8.7678 16.6908318,8.77645385 C16.5567945,8.78476154 16.3739482,8.78891538 16.1430436,8.78891538 C15.9489336,8.78891538 15.7938709,8.78476154 15.6786064,8.77645385 C15.5629664,8.7678 15.4713555,8.75187692 15.4045245,8.72833846 C15.3373182,8.70514615 15.2900109,8.67503077 15.2626027,8.63903077 C15.2348191,8.60268462 15.2115409,8.55906923 15.1931436,8.50783846 L14.38892,6.66041538 C14.2916773,6.45133846 14.1970627,6.26614615 14.1047009,6.10414615 C14.0119636,5.94214615 13.9090891,5.8068 13.7960773,5.69810769 C13.68269,5.58941538 13.5524073,5.50772308 13.4044782,5.45199231 C13.2561736,5.39660769 13.0853418,5.36891538 12.8912318,5.36891538 L12.3227936,5.36891538 L12.3227936,8.52064615 C12.3227936,8.56322308 12.3077755,8.60164615 12.2777391,8.63591538 C12.2473273,8.66983846 12.1977673,8.69753077 12.1286836,8.71864615 C12.0592245,8.74010769 11.9664873,8.75706923 11.8512227,8.76987692 C11.7355827,8.78303077 11.5876536,8.78891538 11.4074355,8.78891538 C11.2317227,8.78891538 11.08492,8.78303077 10.9670273,8.76987692 C10.8491345,8.75706923 10.7556464,8.74010769 10.6865627,8.71864615 C10.6171036,8.69753077 10.56867,8.66983846 10.5408864,8.63591538 C10.5131027,8.60164615 10.4992109,8.56322308 10.4992109,8.52064615 L10.4992109,1.00910769 C10.4992109,0.821492308 10.5510236,0.686146154 10.6554,0.603069231 C10.7594009,0.519646154 10.8874309,0.478107692 11.0402409,0.478107692 L13.3628027,0.478107692 C13.5985882,0.478107692 13.7926982,0.482607692 13.9451327,0.490915385 C14.0975673,0.499569231 14.23611,0.5103 14.3611364,0.523107692 C14.7215727,0.569838462 15.0463409,0.650838462 15.3354409,0.765761538 C15.6241655,0.881030769 15.8689618,1.03126154 16.0702055,1.21645385 C16.2714491,1.40199231 16.4246345,1.62145385 16.5312636,1.87483846 C16.6375173,2.12891538 16.6908318,2.41968462 16.6908318,2.74783846 C16.6908318,3.02510769 16.6525355,3.27745385 16.5763182,3.50522308 C16.5001009,3.73333846 16.38784,3.93687692 16.2399109,4.11583846 C16.0919818,4.2948 15.9095109,4.45056923 15.6924982,4.5828 C15.47511,4.71468462 15.2276855,4.8213 14.9506,4.9023 C15.0846373,4.96183846 15.2104145,5.03418462 15.3283073,5.11968462 C15.4462,5.20483846 15.5569591,5.30799231 15.66096,5.42949231 C15.7653364,5.55133846 15.86333,5.68945385 15.9556918,5.84522308 C16.0484291,6.00064615 16.1381627,6.17649231 16.2263945,6.37276154 L16.9818091,8.0028 C17.0512682,8.1648 17.0974491,8.28283846 17.1203518,8.35760769 C17.14363,8.43237692 17.1552691,8.49087692 17.1552691,8.53345385" id="Fill-4"></path>
                    <path d="M22.1504665,2.05719231 L22.1433329,2.05719231 L20.874672,5.57342308 L23.4191275,5.57342308 L22.1504665,2.05719231 Z M26.2688275,8.12423077 C26.3243947,8.27792308 26.3589365,8.39907692 26.3728284,8.48873077 C26.3867202,8.57803846 26.3679475,8.64519231 26.3172611,8.68984615 C26.2665747,8.73484615 26.1764656,8.76253846 26.0469338,8.77292308 C25.917402,8.784 25.7394365,8.78884615 25.5130375,8.78884615 C25.277252,8.78884615 25.0936547,8.78573077 24.9618702,8.7795 C24.8300856,8.77292308 24.7298393,8.76011538 24.6603802,8.74142308 C24.5909211,8.72203846 24.5424875,8.69538462 24.5147038,8.66111538 C24.4869202,8.62684615 24.463642,8.58253846 24.4452447,8.52680769 L23.8422647,6.86492308 L20.4725602,6.86492308 L19.904122,8.4825 C19.8853493,8.54169231 19.8613202,8.59188462 19.8312838,8.63238462 C19.8012475,8.67288462 19.7524384,8.70507692 19.6856075,8.72826923 C19.6184011,8.75180769 19.5237865,8.76773077 19.4013884,8.77638462 C19.2789902,8.78503846 19.1179202,8.78884615 18.9196802,8.78884615 C18.7067975,8.78884615 18.5404711,8.78296154 18.4203256,8.77015385 C18.3001802,8.757 18.2168293,8.72653846 18.1706484,8.67738462 C18.1244675,8.62823077 18.1083229,8.559 18.1222147,8.46934615 C18.1361065,8.38003846 18.1706484,8.26061538 18.2262156,8.11142308 L20.9925647,0.772269231 C21.0203484,0.699923077 21.0526375,0.641076923 21.089432,0.596423077 C21.126602,0.551769231 21.1855484,0.517846154 21.2666465,0.493961538 C21.3469938,0.470769231 21.4592547,0.455884615 21.6026784,0.449307692 C21.7457265,0.443076923 21.9353311,0.439961538 22.1711165,0.439961538 C22.4436965,0.439961538 22.6610847,0.443076923 22.8229056,0.449307692 C22.9847265,0.455884615 23.1108793,0.470769231 23.2006129,0.493961538 C23.2910975,0.517846154 23.3556756,0.552807692 23.3947229,0.599538462 C23.4341456,0.646615385 23.4675611,0.710307692 23.4957202,0.791653846 L26.2688275,8.12423077 Z" id="Fill-6"></path>
                    <path d="M34.1551375,7.49762308 C34.1551375,7.60458462 34.1517585,7.69493077 34.1450003,7.76935385 C34.1378666,7.84412308 34.1273539,7.90816154 34.1134621,7.96112308 C34.0999457,8.01443077 34.081173,8.06046923 34.0582703,8.09854615 C34.0349921,8.13696923 33.9981975,8.18093077 33.9471357,8.22973846 C33.8964494,8.27889231 33.7980803,8.34154615 33.6524039,8.41839231 C33.5067275,8.49523846 33.3287621,8.56862308 33.1185075,8.63889231 C32.908253,8.70916154 32.6679621,8.76766154 32.3976348,8.81473846 C32.1273075,8.86146923 31.8348285,8.88500769 31.520573,8.88500769 C30.9055785,8.88500769 30.3510321,8.79777692 29.8565585,8.62296923 C29.3617094,8.44816154 28.9412003,8.18716154 28.5946557,7.83962308 C28.2481112,7.49243077 27.9822894,7.0587 27.7971903,6.53877692 C27.6124666,6.01885385 27.5201048,5.41343077 27.5201048,4.7232 C27.5201048,4.01981538 27.6214775,3.39535385 27.8249739,2.84981538 C28.0284703,2.30462308 28.3126894,1.84631538 28.6780066,1.47558462 C29.0429485,1.10450769 29.4807285,0.823430769 29.9917221,0.631661538 C30.5023403,0.439892308 31.0651466,0.344007692 31.6801412,0.344007692 C31.929443,0.344007692 32.1697339,0.363392308 32.4010139,0.401469231 C32.6319185,0.439892308 32.8459275,0.490084615 33.0422903,0.552046154 C33.2390285,0.613661538 33.4154921,0.684969231 33.5728075,0.765969231 C33.7297475,0.846969231 33.8397557,0.9162 33.9020812,0.973661538 C33.9644066,1.03112308 34.0072085,1.07923846 34.0304866,1.11731538 C34.0533894,1.15608462 34.0717866,1.20489231 34.0856785,1.26443077 C34.0999457,1.32431538 34.110083,1.39458462 34.1168412,1.47558462 C34.1239748,1.55658462 34.1273539,1.65662308 34.1273539,1.77604615 C34.1273539,1.90377692 34.1228485,2.01246923 34.1134621,2.10212308 C34.1044512,2.19143077 34.0879312,2.26412308 34.0650285,2.31950769 C34.0417503,2.37489231 34.0143421,2.41504615 33.982053,2.44100769 C33.9493885,2.46662308 33.9125939,2.47943077 33.8709185,2.47943077 C33.8014594,2.47943077 33.713603,2.44204615 33.6077248,2.36762308 C33.5010957,2.29285385 33.3636794,2.20977692 33.1947248,2.11804615 C33.0261457,2.02631538 32.8252775,1.94323846 32.5917448,1.86846923 C32.3582121,1.79404615 32.0796248,1.75666154 31.7563585,1.75666154 C31.4004275,1.75666154 31.0824175,1.82381538 30.8027039,1.95812308 C30.5233657,2.09243077 30.2849521,2.2842 30.0885894,2.53343077 C29.8922266,2.78300769 29.7431712,3.08450769 29.6417985,3.43793077 C29.5400503,3.79204615 29.4889885,4.19046923 29.4889885,4.63389231 C29.4889885,5.11954615 29.5434294,5.54046923 29.6519357,5.89631538 C29.7604421,6.25216154 29.9155048,6.54500769 30.116373,6.7752 C30.3176166,7.00539231 30.5601603,7.17708462 30.8443794,7.28993077 C31.1285985,7.40312308 31.4488612,7.45954615 31.8047921,7.45954615 C32.1284339,7.45954615 32.4081475,7.42423846 32.643933,7.35396923 C32.879343,7.2837 33.081713,7.20581538 33.2502921,7.12031538 C33.4192466,7.03516154 33.5577894,6.95831538 33.6662957,6.89046923 C33.7748021,6.82227692 33.8592794,6.78800769 33.9193521,6.78800769 C33.965533,6.78800769 34.002703,6.79666154 34.0304866,6.81362308 C34.0582703,6.83058462 34.081173,6.86485385 34.0999457,6.91573846 C34.1179675,6.96731538 34.1318594,7.03862308 34.1412457,7.13000769 C34.1506321,7.22173846 34.1551375,7.34427692 34.1551375,7.49762308" id="Fill-8"></path>
                    <path d="M40.8211077,8.04762692 C40.8211077,8.17535769 40.8154759,8.28301154 40.8038368,8.37058846 C40.7921977,8.45781923 40.7749268,8.53051154 40.7516486,8.58797308 C40.7287459,8.64543462 40.6998359,8.68697308 40.6649186,8.71258846 C40.6303768,8.73785769 40.5898277,8.75066538 40.5440223,8.75066538 L36.4324195,8.75066538 C36.2796095,8.75066538 36.1515795,8.70912692 36.0475786,8.62605 C35.9435777,8.54297308 35.891765,8.40762692 35.891765,8.22001154 L35.891765,0.708473077 C35.891765,0.665896154 35.9064077,0.627473077 35.9364441,0.59355 C35.9664805,0.559280769 36.0164159,0.531588462 36.085875,0.510473077 C36.1549586,0.489011538 36.2484468,0.471703846 36.3663395,0.458896154 C36.4842323,0.446434615 36.631035,0.439857692 36.8067477,0.439857692 C36.9869659,0.439857692 37.134895,0.446434615 37.250535,0.458896154 C37.3657995,0.471703846 37.4585368,0.489011538 37.5279959,0.510473077 C37.5970795,0.531588462 37.6466395,0.559280769 37.6766759,0.59355 C37.7070877,0.627473077 37.7221059,0.665896154 37.7221059,0.708473077 L37.7221059,7.36328077 L40.5440223,7.36328077 C40.5898277,7.36328077 40.6303768,7.37539615 40.6649186,7.39858846 C40.6998359,7.42212692 40.7287459,7.46055 40.7516486,7.51385769 C40.7749268,7.56681923 40.7921977,7.63708846 40.8038368,7.72466538 C40.8154759,7.81189615 40.8211077,7.91955 40.8211077,8.04762692" id="Fill-10"></path>
                    <path d="M47.6395875,8.09224615 C47.6395875,8.21582308 47.6335803,8.31897692 47.6223166,8.4024 C47.6106775,8.48547692 47.5934066,8.55263077 47.5701285,8.60386154 C47.5472257,8.65474615 47.5183157,8.69213077 47.4837739,8.71566923 C47.4488566,8.73886154 47.4109357,8.75063077 47.3692603,8.75063077 L42.8626794,8.75063077 C42.7098694,8.75063077 42.5818394,8.70909231 42.4778385,8.62601538 C42.3738375,8.54293846 42.3216494,8.40759231 42.3216494,8.21997692 L42.3216494,1.0089 C42.3216494,0.821284615 42.3738375,0.685938462 42.4778385,0.602861538 C42.5818394,0.519784615 42.7098694,0.478246154 42.8626794,0.478246154 L47.3414766,0.478246154 C47.3827766,0.478246154 47.4199466,0.488976923 47.4526112,0.510438462 C47.4849003,0.531553846 47.5123085,0.568938462 47.5359621,0.622246154 C47.5584894,0.675207692 47.5761357,0.743746154 47.5873994,0.826823077 C47.5994139,0.9099 47.6050457,1.01547692 47.6050457,1.14320769 C47.6050457,1.26263077 47.5994139,1.36370769 47.5873994,1.44678462 C47.5761357,1.52986154 47.5584894,1.59701538 47.5359621,1.64824615 C47.5123085,1.69913077 47.4849003,1.73686154 47.4526112,1.76005385 C47.4199466,1.78324615 47.3827766,1.79536154 47.3414766,1.79536154 L44.1380985,1.79536154 L44.1380985,3.81551538 L46.8492557,3.81551538 C46.8909312,3.81551538 46.9288521,3.82728462 46.9633939,3.85047692 C46.9983112,3.87401538 47.0272212,3.91036154 47.0504994,3.95951538 C47.0734021,4.00832308 47.090673,4.07443846 47.1023121,4.15751538 C47.1139512,4.24059231 47.119583,4.34166923 47.119583,4.46109231 C47.119583,4.58466923 47.1139512,4.68713077 47.1023121,4.76778462 C47.090673,4.84913077 47.0734021,4.91386154 47.0504994,4.96301538 C47.0272212,5.01216923 46.9983112,5.04713077 46.9633939,5.06859231 C46.9288521,5.08970769 46.8909312,5.10009231 46.8492557,5.10009231 L44.1380985,5.10009231 L44.1380985,7.43386154 L47.3692603,7.43386154 C47.4109357,7.43386154 47.4488566,7.44563077 47.4837739,7.46882308 C47.5183157,7.49270769 47.5472257,7.52974615 47.5701285,7.58063077 C47.5934066,7.63186154 47.6106775,7.69901538 47.6223166,7.78209231 C47.6335803,7.86551538 47.6395875,7.96901538 47.6395875,8.09224615" id="Fill-12"></path>
                    <g id="Group-5" transform="translate(0.000000, 12.075000)">
                        <path d="M7.01592818,7.49762308 C7.01592818,7.60458462 7.01217364,7.69493077 7.00541545,7.76935385 C6.99828182,7.84412308 6.98814455,7.90816154 6.97425273,7.96112308 C6.96036091,8.01443077 6.94196364,8.06046923 6.91868545,8.09854615 C6.89578273,8.13696923 6.85861273,8.18093077 6.80755091,8.22973846 C6.75686455,8.27889231 6.65887091,8.34154615 6.51319455,8.41839231 C6.36751818,8.49523846 6.18955273,8.56862308 5.97929818,8.63889231 C5.76904364,8.70916154 5.52837727,8.76766154 5.25805,8.81473846 C4.98772273,8.86146923 4.69524364,8.88500769 4.38098818,8.88500769 C3.76636909,8.88500769 3.21144727,8.79777692 2.71734909,8.62296923 C2.22212455,8.44816154 1.80161545,8.18716154 1.45507091,7.83962308 C1.10852636,7.49243077 0.842704545,7.0587 0.657605455,6.53877692 C0.472881818,6.01885385 0.38052,5.41343077 0.38052,4.7232 C0.38052,4.01981538 0.482268182,3.39535385 0.685764545,2.84981538 C0.889260909,2.30462308 1.17310455,1.84631538 1.53842182,1.47558462 C1.90373909,1.10450769 2.34151909,0.823430769 2.85213727,0.631661538 C3.36313091,0.439892308 3.92593727,0.344007692 4.54055636,0.344007692 C4.79023364,0.344007692 5.03052455,0.363392308 5.26142909,0.401469231 C5.49270909,0.439892308 5.70671818,0.490084615 5.90308091,0.552046154 C6.09944364,0.613661538 6.27590727,0.684969231 6.43322273,0.765969231 C6.59053818,0.846969231 6.70017091,0.9162 6.76249636,0.973661538 C6.82519727,1.03112308 6.86762364,1.07923846 6.89090182,1.11731538 C6.91418,1.15608462 6.93257727,1.20489231 6.94646909,1.26443077 C6.96036091,1.32431538 6.97087364,1.39458462 6.97763182,1.47558462 C6.98476545,1.55658462 6.98814455,1.65662308 6.98814455,1.77604615 C6.98814455,1.90377692 6.98326364,2.01246923 6.97425273,2.10212308 C6.96486636,2.19143077 6.94872182,2.26412308 6.92581909,2.31950769 C6.90254091,2.37489231 6.87475727,2.41504615 6.84246818,2.44100769 C6.81017909,2.46662308 6.77338455,2.47943077 6.73133364,2.47943077 C6.66225,2.47943077 6.57439364,2.44204615 6.46814,2.36762308 C6.36188636,2.29285385 6.22447,2.20977692 6.05551545,2.11804615 C5.88656091,2.02631538 5.68569273,1.94323846 5.45216,1.86846923 C5.21900273,1.79404615 4.94041545,1.75666154 4.61677364,1.75666154 C4.26084273,1.75666154 3.94283273,1.82381538 3.66349455,1.95812308 C3.38378091,2.09243077 3.14574273,2.2842 2.94938,2.53343077 C2.75301727,2.78300769 2.60358636,3.08450769 2.50221364,3.43793077 C2.40046545,3.79204615 2.34940364,4.19046923 2.34940364,4.63389231 C2.34940364,5.11954615 2.40384455,5.54046923 2.51272636,5.89631538 C2.62123273,6.25216154 2.77592,6.54500769 2.97716364,6.7752 C3.17803182,7.00539231 3.42095091,7.17708462 3.70517,7.28993077 C3.98901364,7.40312308 4.30927636,7.45954615 4.66520727,7.45954615 C4.98884909,7.45954615 5.26856273,7.42423846 5.50434818,7.35396923 C5.74013364,7.2837 5.94250364,7.20581538 6.11108273,7.12031538 C6.27966182,7.03516154 6.41820455,6.95831538 6.52671091,6.89046923 C6.63559273,6.82227692 6.72007,6.78800769 6.78014273,6.78800769 C6.82632364,6.78800769 6.86349364,6.79666154 6.89090182,6.81362308 C6.91868545,6.83058462 6.94196364,6.86485385 6.96036091,6.91573846 C6.97875818,6.96731538 6.99265,7.03862308 7.00203636,7.13000769 C7.01104727,7.22173846 7.01592818,7.34427692 7.01592818,7.49762308" id="Fill-14"></path>
                        <path d="M15.7547829,8.52054231 C15.7547829,8.56311923 15.7397647,8.60154231 15.7097284,8.63581154 C15.679692,8.67008077 15.630132,8.69777308 15.5606729,8.71854231 C15.4915893,8.74035 15.398852,8.75731154 15.283212,8.77011923 C15.1679475,8.78292692 15.0222711,8.78881154 14.8465584,8.78881154 C14.6663402,8.78881154 14.5172847,8.78292692 14.399392,8.77011923 C14.2814993,8.75731154 14.1891375,8.74035 14.1219311,8.71854231 C14.0551002,8.69777308 14.0066665,8.67008077 13.9766302,8.63581154 C13.9465938,8.60154231 13.9315756,8.56311923 13.9315756,8.52054231 L13.9315756,5.17704231 L10.5757629,5.17704231 L10.5757629,8.52054231 C10.5757629,8.56311923 10.5618711,8.60154231 10.5340875,8.63581154 C10.5063038,8.67008077 10.4578702,8.69777308 10.3884111,8.71854231 C10.318952,8.74035 10.2265902,8.75731154 10.1113256,8.77011923 C9.99531018,8.78292692 9.84775655,8.78881154 9.66716291,8.78881154 C9.49145018,8.78881154 9.34502291,8.78292692 9.22713018,8.77011923 C9.10923745,8.75731154 9.01574927,8.74035 8.94629018,8.71854231 C8.87720655,8.69777308 8.82727109,8.67008077 8.79723473,8.63581154 C8.76719836,8.60154231 8.75218018,8.56311923 8.75218018,8.52054231 L8.75218018,0.708542308 C8.75218018,0.665965385 8.76719836,0.627542308 8.79723473,0.593619231 C8.82727109,0.55935 8.87720655,0.531657692 8.94629018,0.510196154 C9.01574927,0.489080769 9.10923745,0.471773077 9.22713018,0.458965385 C9.34502291,0.446503846 9.49145018,0.439926923 9.66716291,0.439926923 C9.84775655,0.439926923 9.99531018,0.446503846 10.1113256,0.458965385 C10.2265902,0.471773077 10.318952,0.489080769 10.3884111,0.510196154 C10.4578702,0.531657692 10.5063038,0.55935 10.5340875,0.593619231 C10.5618711,0.627542308 10.5757629,0.665965385 10.5757629,0.708542308 L10.5757629,3.74500385 L13.9315756,3.74500385 L13.9315756,0.708542308 C13.9315756,0.665965385 13.9465938,0.627542308 13.9766302,0.593619231 C14.0066665,0.55935 14.0551002,0.531657692 14.1219311,0.510196154 C14.1891375,0.489080769 14.2814993,0.471773077 14.399392,0.458965385 C14.5172847,0.446503846 14.6663402,0.439926923 14.8465584,0.439926923 C15.0222711,0.439926923 15.1679475,0.446503846 15.283212,0.458965385 C15.398852,0.471773077 15.4915893,0.489080769 15.5606729,0.510196154 C15.630132,0.531657692 15.679692,0.55935 15.7097284,0.593619231 C15.7397647,0.627542308 15.7547829,0.665965385 15.7547829,0.708542308 L15.7547829,8.52054231 Z" id="Fill-16"></path>
                        <path d="M21.3671525,2.05719231 L21.3600189,2.05719231 L20.0917335,5.57342308 L22.6361889,5.57342308 L21.3671525,2.05719231 Z M25.4858889,8.12423077 C25.5410807,8.27792308 25.575998,8.39907692 25.5895144,8.48873077 C25.6034062,8.57803846 25.5850089,8.64519231 25.5343225,8.68984615 C25.4832607,8.73484615 25.3931516,8.76253846 25.2639953,8.77292308 C25.1344635,8.784 24.956498,8.78884615 24.7300989,8.78884615 C24.4943135,8.78884615 24.3107162,8.78573077 24.1785562,8.7795 C24.0471471,8.77292308 23.9465253,8.76011538 23.8774416,8.74142308 C23.8079825,8.72203846 23.7591735,8.69538462 23.7317653,8.66111538 C23.7039816,8.62684615 23.6807035,8.58253846 23.6619307,8.52680769 L23.0589507,6.86492308 L19.6892462,6.86492308 L19.120808,8.4825 C19.1024107,8.54169231 19.0780062,8.59188462 19.0479698,8.63238462 C19.0179335,8.67288462 18.9691244,8.70507692 18.9026689,8.72826923 C18.8354625,8.75180769 18.7404725,8.76773077 18.6184498,8.77638462 C18.4956762,8.78503846 18.3349816,8.78884615 18.1363662,8.78884615 C17.9234835,8.78884615 17.7571571,8.78296154 17.6370116,8.77015385 C17.5168662,8.757 17.4335153,8.72653846 17.3873344,8.67738462 C17.3411535,8.62823077 17.3250089,8.559 17.3389007,8.46934615 C17.3527925,8.38003846 17.3873344,8.26061538 17.4429016,8.11142308 L20.2092507,0.772269231 C20.2370344,0.699923077 20.2693235,0.641076923 20.3064935,0.596423077 C20.343288,0.551769231 20.4026098,0.517846154 20.4833325,0.493961538 C20.5640553,0.470769231 20.6763162,0.455884615 20.8193644,0.449307692 C20.962788,0.443076923 21.1523925,0.439961538 21.388178,0.439961538 C21.660758,0.439961538 21.8777707,0.443076923 22.0399671,0.449307692 C22.201788,0.455884615 22.3275653,0.470769231 22.4176744,0.493961538 C22.5077835,0.517846154 22.5723616,0.552807692 22.6117844,0.599538462 C22.6512071,0.646615385 22.6846225,0.710307692 22.7124062,0.791653846 L25.4858889,8.12423077 Z" id="Fill-18"></path>
                        <path d="M28.996877,8.52054231 C28.996877,8.56311923 28.9818588,8.60154231 28.9521979,8.63581154 C28.9217861,8.67008077 28.8722261,8.69777308 28.802767,8.71854231 C28.7336834,8.74035 28.6413215,8.75731154 28.5256815,8.77011923 C28.4100415,8.78292692 28.2621125,8.78881154 28.0815188,8.78881154 C27.9061815,8.78881154 27.7593788,8.78292692 27.6418615,8.77011923 C27.5235934,8.75731154 27.4301052,8.74035 27.3610215,8.71854231 C27.2915625,8.69777308 27.241627,8.67008077 27.2115906,8.63581154 C27.1815543,8.60154231 27.1665361,8.56311923 27.1665361,8.52054231 L27.1665361,0.708542308 C27.1665361,0.665965385 27.1815543,0.627542308 27.2115906,0.593619231 C27.241627,0.55935 27.2926888,0.531657692 27.3640252,0.510196154 C27.4361125,0.489080769 27.5296006,0.471773077 27.6448652,0.458965385 C27.7605052,0.446503846 27.9061815,0.439926923 28.0815188,0.439926923 C28.2621125,0.439926923 28.4100415,0.446503846 28.5256815,0.458965385 C28.6413215,0.471773077 28.7336834,0.489080769 28.802767,0.510196154 C28.8722261,0.531657692 28.9217861,0.55935 28.9521979,0.593619231 C28.9818588,0.627542308 28.996877,0.665965385 28.996877,0.708542308 L28.996877,8.52054231 Z" id="Fill-20"></path>
                        <path d="M38.7759285,8.16255 C38.7759285,8.26051154 38.7575313,8.34808846 38.7207367,8.42458846 C38.6835667,8.50143462 38.6336313,8.56547308 38.5713058,8.61670385 C38.5089804,8.66758846 38.4350158,8.70497308 38.3494122,8.72851154 C38.264184,8.75170385 38.1770785,8.76347308 38.0895976,8.76347308 L37.3131576,8.76347308 C37.1513367,8.76347308 37.0116676,8.74858846 36.8933995,8.71847308 C36.7758822,8.68905 36.6670004,8.63470385 36.5675049,8.55578077 C36.4683849,8.47685769 36.372644,8.37058846 36.2802822,8.23628077 C36.1871695,8.10162692 36.083544,7.92820385 35.967904,7.71497308 L33.7354513,3.84739615 C33.6059195,3.61720385 33.4741349,3.36901154 33.3400976,3.10247308 C33.2060604,2.83628077 33.0859149,2.57735769 32.9796613,2.32605 L32.9657695,2.32605 C32.9841667,2.63239615 32.9980585,2.93839615 33.0074449,3.24301154 C33.0164558,3.54797308 33.0213367,3.86228077 33.0213367,4.18628077 L33.0213367,8.51424231 C33.0213367,8.55681923 33.0085713,8.59524231 32.9830404,8.62951154 C32.9575095,8.66343462 32.9139567,8.69216538 32.8516313,8.71570385 C32.7889304,8.73889615 32.7044531,8.75724231 32.5981995,8.77005 C32.4919458,8.78285769 32.3556558,8.78908846 32.1893295,8.78908846 C32.0271331,8.78908846 31.8934713,8.78285769 31.7872176,8.77005 C31.680964,8.75724231 31.5976131,8.73889615 31.5375404,8.71570385 C31.4774676,8.69216538 31.4357922,8.66343462 31.4128895,8.62951154 C31.3896113,8.59524231 31.3779722,8.55681923 31.3779722,8.51424231 L31.3779722,1.07920385 C31.3779722,0.878780769 31.441424,0.72855 31.5687031,0.628511538 C31.6959822,0.528126923 31.8517958,0.478280769 32.0368949,0.478280769 L33.0142031,0.478280769 C33.1899158,0.478280769 33.3378449,0.492126923 33.4579904,0.519819231 C33.5781358,0.547511538 33.6855158,0.59355 33.7805058,0.657242308 C33.8751204,0.721280769 33.9644785,0.809896154 34.047454,0.922396154 C34.1308049,1.03558846 34.2160331,1.17508846 34.3038895,1.34124231 L36.0512549,4.36524231 C36.1530031,4.54870385 36.2532495,4.72870385 36.3527449,4.90558846 C36.4522404,5.08247308 36.5479813,5.25901154 36.6407185,5.43589615 C36.7330804,5.61312692 36.8231895,5.78655 36.9106704,5.95720385 C36.9989022,6.12751154 37.0841304,6.29781923 37.1674813,6.46812692 L37.1742395,6.46812692 C37.1603476,6.17008846 37.1502104,5.85924231 37.1430767,5.53489615 C37.1363185,5.21124231 37.132564,4.90212692 37.132564,4.60789615 L37.132564,0.727511538 C37.132564,0.684934615 37.1464558,0.646511538 37.1742395,0.612242308 C37.2023985,0.578665385 37.248204,0.54855 37.3131576,0.523280769 C37.3777358,0.497319231 37.4633395,0.479319231 37.5695931,0.468588462 C37.6758467,0.457857692 37.8125122,0.452665385 37.9784631,0.452665385 C38.1357785,0.452665385 38.2675631,0.457857692 38.3738167,0.468588462 C38.4800704,0.479319231 38.5622949,0.497319231 38.6201149,0.523280769 C38.6775595,0.54855 38.7181085,0.578665385 38.7413867,0.612242308 C38.7646649,0.646511538 38.7759285,0.684934615 38.7759285,0.727511538 L38.7759285,8.16255 Z" id="Fill-22"></path>
                    </g>
                </g>
                <path d="M43.9331321,36.6969471 C41.37305,43.0760705 36.012667,47.4682538 29.8123626,47.4682538 C23.6118169,47.4682538 18.2516752,43.0760705 15.6911103,36.6969471 C17.4740419,44.382545 23.1193077,50 29.8123626,50 C36.5051762,50 42.150442,44.382545 43.9331321,36.6969471 M29.8123626,12.5317462 C36.012667,12.5317462 41.37305,16.9239295 43.9333735,23.3030529 C42.150442,15.617696 36.5051762,10 29.8123626,10 C23.1193077,10 17.4740419,15.617696 15.6911103,23.3030529 C18.2516752,16.9239295 25.8020342,12.5317462 29.8123626,12.5317462 M12.0581308,29.7467531 C12.0581308,22.4435556 15.1604558,15.8668466 20.1164502,11.246235 C12.9299204,14.7107299 8,21.8050167 8,30 C8,38.6315992 13.4675762,46.0444327 21.2827796,49.2778487 C17.8390781,46.4396039 12.0581308,35.8039565 12.0581308,29.7467531 M39.5080336,11.246235 C44.464028,15.8668466 47.566353,22.4435556 47.566353,29.7467531 C47.566353,37.6092142 43.9756231,44.6343462 38.3417043,49.2778487 C46.1569076,46.0444327 51.6242424,38.6315992 51.6242424,30 C51.6242424,21.8050167 46.6945635,14.7107299 39.5080336,11.246235" id="Fill-25" fill="#000000"></path>
            </g>
        </g>
    </g>
</svg>