<?xml version="1.0" encoding="UTF-8"?>
<svg width="140px" height="60px" viewBox="0 0 140 60" version="1.1" xmlns="http://www.w3.org/2000/svg" xmlns:xlink="http://www.w3.org/1999/xlink">
    <!-- Generator: Sketch 45.2 (43514) - http://www.bohemiancoding.com/sketch -->
    <title>partner_03</title>
    <desc>Created with Sketch.</desc>
    <defs>
        <polygon id="path-1" points="53.2656131 13.7191651 53.2656131 0.113557504 0.0266504357 0.113557504 0.0266504357 13.7191651"></polygon>
    </defs>
    <g id="Page-1" stroke="none" stroke-width="1" fill="none" fill-rule="evenodd">
        <g id="partner_03">
            <g id="Page-1" transform="translate(3.000000, 0.000000)">
                <g id="Group-3" transform="translate(0.000000, 0.010951)" fill="#000000">
                    <path d="M53.7148407,31.8567794 C54.46329,31.6167183 55.0434719,31.0185734 55.2576966,30.2586032 L55.855143,30.2586032 L57.2632878,30.2583599 C57.4134397,30.853098 57.7851111,31.3558512 58.2901564,31.6742697 L54.4612231,43.4675565 L53.7148407,31.8567794 Z M48.2814102,43.363161 C48.3014709,43.2395412 48.3194648,43.1150696 48.3194648,42.9857311 C48.3194648,42.2907343 48.0134468,41.672635 47.5357572,41.2408172 L50.2577004,36.0951401 L52.4694921,31.9144524 C52.5024404,31.9219962 52.5346592,31.9296616 52.5680938,31.9358669 L53.4465126,45.600486 L48.2814102,43.363161 Z M41.2079809,55.0991398 C41.1914459,55.0852691 41.174911,55.07152 41.1581329,55.0580143 L41.3067042,54.7234133 L45.5494973,45.3026302 C45.6840869,45.3265998 45.8209865,45.3443641 45.9626277,45.3443641 C46.7153323,45.3443641 47.3779458,44.9846984 47.8094348,44.434736 L52.9170297,46.6278936 L41.2079809,55.0991398 Z M40.1108388,54.5792307 C39.9762493,54.5552611 39.8393497,54.5374968 39.69783,54.5374968 C39.387192,54.5374968 39.0923594,54.6011318 38.8208702,54.7102726 L36.3349147,51.2868783 L32.7508444,46.3514523 C33.0330327,46.0134445 33.2191723,45.5987826 33.2763152,45.1394666 L41.3417194,44.138462 L43.770289,43.8371994 C43.9160639,44.2128043 44.1570364,44.5360897 44.4609875,44.7896564 L40.2598965,54.2482798 L40.1108388,54.5792307 Z M37.4198986,56.3211028 L24.4777808,56.3211028 C24.3902429,55.9732394 24.2246503,55.6599311 24.0019149,55.3928587 L30.0720623,47.0340384 C30.3435514,47.1431792 30.6382625,47.2066926 30.9487789,47.2066926 C31.2592954,47.2066926 31.5542496,47.1431792 31.8256172,47.0340384 L37.895643,55.3928587 C37.6729076,55.6599311 37.5074366,55.9732394 37.4198986,56.3211028 L37.4198986,56.3211028 Z M23.0768092,54.7102726 C22.8053201,54.6011318 22.5103659,54.5374968 22.1997278,54.5374968 C22.0583298,54.5374968 21.9214302,54.5552611 21.7868406,54.5792307 L20.8404583,52.4780579 L17.3955977,44.8288352 C17.7221628,44.5704015 17.9799134,44.2325153 18.1334695,43.8379295 L20.67596,44.1533061 L28.6212427,45.1394666 C28.6785071,45.5987826 28.8647684,46.0135662 29.1469566,46.351574 L28.1197233,47.7659021 L23.0768092,54.7102726 Z M20.6879965,55.1007216 L9.99244226,47.4089133 C10.1089163,47.1294301 10.174205,46.8233006 10.174205,46.501597 C10.174205,46.3722584 10.1562111,46.2476652 10.1361504,46.1240453 L14.0792477,44.4162417 C14.5100072,44.977033 15.1799155,45.3443641 15.9413739,45.3443641 C16.0808267,45.3443641 16.2156594,45.3264782 16.3484253,45.3032386 L20.7411271,55.0567976 C20.7231332,55.0710333 20.705504,55.0858775 20.6879965,55.1007216 L20.6879965,55.1007216 Z M8.5484312,44.2704773 L9.40022387,32.0003536 C9.44496547,31.9924449 9.48812653,31.9824677 9.5318955,31.9718821 L14.0466641,40.6124973 L14.372986,41.2369236 C13.8925001,41.6688631 13.5845368,42.2885442 13.5845368,42.9857311 C13.5845368,43.1115411 13.6025307,43.2326058 13.6214973,43.3530622 L9.66405345,45.052227 C9.37991993,44.6901278 8.99511779,44.4170934 8.5484312,44.2704773 L8.5484312,44.2704773 Z M6.70685205,29.1084274 L6.08277958,29.1083057 L4.65420923,29.1080624 C4.51730964,28.4915448 4.13992391,27.9685938 3.62503068,27.638008 L7.44922231,15.8590786 L8.25384176,27.4524565 C7.49201863,27.7026164 6.90442029,28.3237576 6.70685205,29.1084274 L6.70685205,29.1084274 Z M7.44922231,43.5066136 L3.59062341,31.622072 C4.08606377,31.3155774 4.45360148,30.8322919 4.61542507,30.2583599 L6.08277958,30.2584815 L6.70673047,30.2586032 C6.90429871,31.043273 7.49201863,31.6646576 8.25384176,31.9149391 L7.44922231,43.5066136 Z M9.67633308,14.2983778 L13.6227131,16.0128734 C13.6025307,16.137345 13.5845368,16.2627899 13.5845368,16.3929802 C13.5845368,17.0915054 13.8938375,17.7122816 14.3760256,18.1442211 L9.53347604,27.3960002 C9.48934234,27.385293 9.44557338,27.3750724 9.40022387,27.3669203 L8.5484312,15.0952149 C9.00131839,14.9464087 9.39110533,14.6680206 9.67633308,14.2983778 L9.67633308,14.2983778 Z M20.6922518,4.26849917 C20.7089083,4.28249157 20.7253217,4.29636231 20.7423429,4.30986802 L16.352559,14.0759593 C16.2185774,14.0522331 16.0822857,14.0343471 15.9413739,14.0343471 C15.1817392,14.0343471 14.5134115,14.4000965 14.0824088,14.9584543 L10.1359072,13.2439587 C10.1562111,13.1194871 10.174205,12.9941638 10.174205,12.8639736 C10.174205,12.555654 10.1112264,12.2630302 10.0037492,11.9931592 L20.6922518,4.26849917 Z M22.1997278,4.82807375 C22.5103659,4.82807375 22.8054417,4.76456039 23.0769308,4.65529795 L29.1221542,12.9801714 C28.8554067,13.3107572 28.6788718,13.7114267 28.6220938,14.1539518 L18.1292142,15.5267894 C17.9756581,15.1390172 17.7199744,14.8075797 17.3987588,14.5525529 L21.7885427,4.78658322 C21.922646,4.81018781 22.0589377,4.82807375 22.1997278,4.82807375 L22.1997278,4.82807375 Z M24.4777808,3.04446779 L37.4198986,3.04446779 C37.5060992,3.38685589 37.6679228,3.69554054 37.8853086,3.96005786 L31.7749181,12.2520796 C31.5169244,12.1549844 31.240572,12.0949996 30.9487789,12.0949996 C30.6388704,12.0949996 30.3445241,12.1583913 30.0735212,12.2672887 L24.006535,3.9671149 C24.2270819,3.70113751 24.3908508,3.38989772 24.4777808,3.04446779 L24.4777808,3.04446779 Z M38.8208702,4.65529795 C39.0922378,4.76456039 39.387192,4.82807375 39.69783,4.82807375 C39.8393497,4.82807375 39.9762493,4.81018781 40.1108388,4.78633988 L40.7425709,6.18886569 L44.5080392,14.5501194 C44.1880394,14.8036861 43.931991,15.1324469 43.7778269,15.5175422 L33.276072,14.1597921 C33.220145,13.7149553 33.0434886,13.312339 32.7755253,12.9802931 L38.8208702,4.65529795 Z M41.2054277,4.26849917 L51.8939302,11.9931592 C51.7864531,12.2630302 51.7234744,12.555654 51.7234744,12.8639736 C51.7234744,12.9933121 51.7415899,13.1177837 51.7615291,13.2414035 L47.8151491,14.9507889 C47.3839032,14.396933 46.7184934,14.0343471 45.9626277,14.0343471 C45.8230534,14.0343471 45.6879775,14.0522331 45.55509,14.0755943 L41.396309,4.84109277 L41.1565523,4.30877296 C41.1730873,4.29563227 41.1893791,4.28212655 41.2054277,4.26849917 L41.2054277,4.26849917 Z M41.1876769,31.4974787 C41.570169,31.1823454 41.8512631,30.7539344 41.9760046,30.2582382 L45.8904089,30.2584815 L50.7407396,30.2587249 C50.8657243,30.7017366 51.1132621,31.0887788 51.4490673,31.3846877 L46.5209252,40.7009536 C46.3412293,40.6570296 46.1559406,40.627098 45.9626277,40.627098 C45.8071263,40.627098 45.6560018,40.644254 45.509011,40.6729688 L41.1876769,31.4974787 Z M39.0573442,31.9429239 C39.2623289,32.0012053 39.4743652,32.0422092 39.69783,32.0422092 C39.8527235,32.0422092 40.0034833,32.0251749 40.1501093,31.9965818 L44.4726592,41.1720719 C44.018921,41.5459733 43.711444,42.0814566 43.6352131,42.6948107 L33.1412393,43.9968345 C33.0173488,43.6775643 32.8291422,43.3917542 32.5876835,43.1574118 L39.0573442,31.9429239 Z M23.8411855,31.3722771 C24.1490273,31.0725962 24.3698174,30.6882309 24.4779024,30.2581165 L37.4196555,30.2581165 C37.5277405,30.6882309 37.7486522,31.0724746 38.0563723,31.3721554 L31.5886569,42.5885901 C31.3837938,42.530552 31.1721222,42.4895482 30.9487789,42.4895482 C30.7254356,42.4895482 30.5137641,42.530552 30.3090226,42.5885901 L23.8411855,31.3722771 Z M21.7475701,31.9965818 C21.8940746,32.0251749 22.0449559,32.0422092 22.1997278,32.0422092 C22.4234359,32.0422092 22.635229,32.0012053 22.8402137,31.9429239 L29.309996,43.1574118 C29.0685372,43.3918759 28.8803307,43.6775643 28.7564402,43.9968345 L18.2689101,42.6956624 C18.1925576,42.0797532 17.8832569,41.5424448 17.4267223,41.1683 L21.7475701,31.9965818 Z M11.2628364,30.2587249 L15.7447783,30.2584815 L19.9216748,30.2582382 C20.0462948,30.7539344 20.327632,31.1824671 20.7101241,31.4974787 L16.3892763,40.6723604 C16.2441092,40.644254 16.0948084,40.627098 15.9413739,40.627098 C15.7501279,40.627098 15.5669061,40.6560562 15.3890339,40.6991285 L10.548916,31.4360338 C10.8939613,31.1274708 11.1461192,30.7220561 11.2628364,30.2587249 L11.2628364,30.2587249 Z M20.7104888,27.8695519 C20.3281183,28.1844419 20.0469027,28.6124879 19.9220396,29.1080624 L15.7473315,29.1083057 L11.2628364,29.1085491 C11.1462408,28.6457046 10.8946908,28.2408982 10.550375,27.9324569 L15.3926813,18.6807995 C15.5694593,18.7232634 15.7515868,18.7516132 15.9413739,18.7516132 C16.0967537,18.7516132 16.2479998,18.734579 16.3951122,18.7058641 L20.7104888,27.8695519 Z M22.8353504,27.42289 C22.6318248,27.3655819 22.4214906,27.3250648 22.1997278,27.3250648 C22.0445912,27.3250648 21.8933451,27.342099 21.7464759,27.3708139 L17.4307345,18.2070044 C17.8876338,17.8306695 18.1964482,17.2905626 18.2701259,16.6719766 L28.759966,15.3164166 C28.884586,15.632645 29.0732788,15.9148049 29.3132787,16.1470788 L22.8353504,27.42289 Z M38.0571018,27.9946319 C37.7493817,28.2940694 37.5283484,28.6780697 37.4200202,29.1079407 L24.4775376,29.1079407 C24.3689663,28.6770963 24.1473251,28.292731 23.8386324,27.9929284 L30.3401472,16.7229576 C30.5356485,16.7753987 30.7369858,16.8123873 30.9487789,16.8123873 C31.1606937,16.8123873 31.3620309,16.7753987 31.5574107,16.7229576 L38.0571018,27.9946319 Z M45.515698,18.7064725 C45.6606219,18.7344573 45.8095579,18.7516132 45.9626277,18.7516132 C46.1581291,18.7516132 46.3452414,18.7210732 46.526761,18.6760542 L51.4027452,27.8949816 C51.0578214,28.2146168 50.8073657,28.6326856 50.7018338,29.1085491 L46.460986,29.1083057 L41.9756399,29.1080624 C41.856491,28.6352407 41.5955794,28.2236206 41.239835,27.9129892 L45.515698,18.7064725 Z M40.1492583,27.3705705 C40.0028754,27.3422207 39.8523588,27.3250648 39.69783,27.3250648 C39.4746083,27.3250648 39.2629368,27.3660686 39.0581953,27.4241067 L32.5626379,16.1649648 C32.8002061,15.9407213 32.9938838,15.6715804 33.1222727,15.3658159 L43.6337541,16.6703948 C43.7070671,17.2873991 44.0135714,17.8265326 44.4682823,18.2029892 L40.1492583,27.3705705 Z M53.3606768,15.0988651 L52.5762397,27.3048671 C52.5201911,27.3150876 52.4666957,27.3307834 52.4122277,27.3448975 L47.5404989,18.1338789 C48.0155137,17.7024261 48.3194648,17.0856651 48.3194648,16.3929802 C48.3194648,16.2593831 48.3014709,16.1305313 48.2801943,16.0030179 L48.9130206,15.7287667 L52.2196442,14.2965527 C52.5074252,14.6702108 52.9019538,14.9507889 53.3606768,15.0988651 L53.3606768,15.0988651 Z M54.4612231,15.8982573 L58.2895484,27.6899624 C57.7841385,28.0087459 57.4121023,28.5123509 57.2624368,29.1080624 L55.855143,29.1084274 L55.296724,29.1084274 C55.1153259,28.2911492 54.5088826,27.6426316 53.7226218,27.3872397 L54.4612231,15.8982573 Z M62.9633443,50.6983455 C62.1319771,50.6983455 61.3801236,51.0069085 60.7871757,51.5001712 L54.7437761,46.3194523 L59.3848668,32.0248099 C59.4373895,32.0283384 59.4874807,32.0405058 59.5408545,32.0405058 C60.8424948,32.0405058 61.8976916,30.9846266 61.8976916,29.6818727 C61.8976916,28.3792405 60.8424948,27.3232397 59.5408545,27.3232397 C59.4872375,27.3232397 59.4369032,27.3355287 59.3842589,27.3391789 L55.3313744,14.8560056 C55.9936231,14.4384235 56.4371486,13.7052214 56.4371486,12.8639736 C56.4371486,11.5613414 55.3818303,10.5053406 54.0803115,10.5053406 C53.5036554,10.5053406 52.98244,10.7208236 52.5727139,11.0649151 L41.8840898,3.34013342 C41.9915669,3.07026249 42.0546672,2.77776035 42.0546672,2.46944072 C42.0546672,1.16680852 40.9994704,0.110807692 39.69783,0.110807692 C38.5957032,0.110807692 37.6775276,0.871142889 37.4198986,1.89429198 L24.4777808,1.89429198 C24.2201518,0.871142889 23.3020978,0.110807692 22.1997278,0.110807692 C20.8982091,0.110807692 19.8428907,1.16680852 19.8428907,2.46944072 C19.8428907,2.77776035 19.905991,3.07026249 20.0134681,3.34013342 L9.32496556,11.0650368 C8.91536101,10.7209453 8.39402402,10.5053406 7.81736792,10.5053406 C6.51572758,10.5053406 5.46053081,11.5613414 5.46053081,12.8639736 C5.46053081,13.7052214 5.90393473,14.4385452 6.56630504,14.8560056 L2.53250872,27.2799241 C2.47354219,27.2755438 2.41700728,27.2621598 2.35682496,27.2621598 C1.05518461,27.2621598 -1.21580455e-05,28.3181606 -1.21580455e-05,29.6207928 C-1.21580455e-05,30.923425 1.05518461,31.9794259 2.35682496,31.9794259 C2.40363343,31.9794259 2.44728082,31.9682319 2.49348139,31.9655551 L6.56630504,44.5094433 C5.90393473,44.9270254 5.46053081,45.6603491 5.46053081,46.501597 C5.46053081,47.8041075 6.51572758,48.86023 7.81736792,48.86023 C8.38052859,48.86023 8.8905586,48.6543591 9.29590784,48.3245033 L20.011766,56.0307907 C19.9056262,56.2993233 19.8428907,56.5898786 19.8428907,56.8961298 C19.8428907,58.198762 20.8982091,59.2547629 22.1997278,59.2547629 C23.3020978,59.2547629 24.2201518,58.4944277 24.4777808,57.4712786 L37.4198986,57.4712786 C37.6775276,58.4944277 38.5957032,59.2547629 39.69783,59.2547629 C40.9994704,59.2547629 42.0546672,58.198762 42.0546672,56.8961298 C42.0546672,56.5907303 41.9920532,56.3011484 41.8865214,56.0332242 L54.0461474,47.2361375 L60.0366596,52.3718373 C59.7286963,52.8859061 59.5408545,53.4804009 59.5408545,54.1233216 C59.5408545,56.0150949 61.0730114,57.548541 62.9633443,57.548541 C64.8535556,57.548541 66.3858341,56.0150949 66.3858341,54.1233216 C66.3858341,52.2317916 64.8535556,50.6983455 62.9633443,50.6983455 L62.9633443,50.6983455 Z" id="Fill-1"></path>
                </g>
                <g id="Group-6" transform="translate(73.191434, 40.528093)">
                    <mask id="mask-2" fill="white">
                        <use xlink:href="#path-1"></use>
                    </mask>
                    <g id="Clip-5"></g>
                    <path d="M8.56621842,2.32508776 C8.56621842,1.83060828 8.16561082,1.42969542 7.67150785,1.42969542 L2.24658796,1.42969542 C1.75248499,1.42969542 1.35187739,1.83060828 1.35187739,2.32508776 L1.35187739,11.4932775 C1.35187739,11.9878786 1.75248499,12.3886698 2.24658796,12.3886698 L8.56621842,12.3886698 L8.56621842,2.32508776 Z M9.89144538,2.0277187 L9.89144538,13.7048077 L1.93935415,13.7048077 C0.883063159,13.7048077 0.0266504357,12.8478641 0.0266504357,11.7906465 L0.0266504357,2.0277187 C0.0266504357,0.970501142 0.883063159,0.113557504 1.93935415,0.113557504 L7.97886324,0.113557504 C9.03515423,0.113557504 9.89144538,0.970501142 9.89144538,2.0277187 L9.89144538,2.0277187 Z M37.0618807,12.3886698 L30.6260193,12.3886698 C30.2014604,12.3886698 29.8556855,12.0427532 29.8556855,11.6178707 L29.8556855,5.633501 L28.5263248,5.633501 L28.5263248,11.6178707 C28.5263248,12.7763203 29.4684518,13.7191651 30.6260193,13.7191651 L38.3913629,13.7191651 L38.3913629,5.633501 L37.0618807,5.633501 L37.0618807,12.3886698 Z M13.5318074,6.55164621 C13.0218989,6.55164621 12.608647,6.96521307 12.608647,7.47551005 C12.608647,7.98568535 13.0218989,8.39937389 13.5318074,8.39937389 C14.0415942,8.39937389 14.4550893,7.98568535 14.4550893,7.47551005 C14.4550893,6.96521307 14.0415942,6.55164621 13.5318074,6.55164621 L13.5318074,6.55164621 Z M52.1721428,5.66732612 C51.5182831,5.40536394 50.7773718,5.56512072 50.2870378,6.07882454 L48.9823579,7.44472676 C48.6153066,7.82836204 48.1246078,8.04189833 47.6005961,8.04591354 C47.0812044,8.05187552 46.5830893,7.84271946 46.2119041,7.46419445 L44.7819964,6.00861916 C44.2813281,5.49880888 43.5613286,5.349881 42.903092,5.61975194 C42.2453418,5.88913618 41.8204181,6.52658155 41.8204181,7.24420949 L41.8204181,13.6936138 L43.1497788,13.6936138 L43.1497788,7.24420949 C43.1497788,6.98395073 43.3293531,6.88259704 43.4064351,6.85096203 C43.4790187,6.82066543 43.6668605,6.77004942 43.833912,6.94148682 L45.2633334,8.3970621 C45.8899591,9.03450747 46.7182867,9.36935184 47.6100794,9.37628721 C48.4972519,9.36971686 49.3259443,9.01029452 49.9430867,8.36372367 L51.2477666,6.99818648 C51.4153044,6.82236885 51.6042405,6.87347155 51.6770671,6.90206473 C51.7548786,6.93369974 51.9362767,7.03456674 51.9362767,7.29652892 L51.9362767,13.7191651 L53.2656374,13.7191651 L53.2656374,7.29652892 C53.2656374,6.57379071 52.8364584,5.93415523 52.1721428,5.66732612 L52.1721428,5.66732612 Z M18.1845698,6.81020154 L25.0972697,6.81020154 L25.0972697,8.14069688 L18.1845698,8.14069688 L18.1845698,11.6182357 C18.1845698,12.0431182 18.5303446,12.3886698 18.954782,12.3886698 L25.0972697,12.3886698 L25.0972697,13.7191651 L18.954782,13.7191651 C17.797336,13.7191651 16.8552091,12.7766853 16.8552091,11.6182357 L16.8552091,8.14069688 L16.8552091,6.81020154 L16.8552091,4.12864811 L18.1845698,4.12864811 L18.1845698,6.81020154 Z" id="Fill-4" fill="#000000" mask="url(#mask-2)"></path>
                </g>
            </g>
        </g>
    </g>
</svg>