<?xml version="1.0" encoding="UTF-8"?>
<svg width="340px" height="250px" viewBox="0 0 340 250" version="1.1" xmlns="http://www.w3.org/2000/svg" xmlns:xlink="http://www.w3.org/1999/xlink">
    <!-- Generator: Sketch 45.2 (43514) - http://www.bohemiancoding.com/sketch -->
    <title>ill_01</title>
    <desc>Created with Sketch.</desc>
    <defs></defs>
    <g id="Page-1" stroke="none" stroke-width="1" fill="none" fill-rule="evenodd">
        <g id="ill_01" fill="#26BDE9">
            <g id="ill_Qtum" transform="translate(0.000000, 21.000000)">
                <path d="M276.550693,190.622446 L272.439194,190.622446 L272.451513,210.03996 C272.761434,211.157925 272.869857,212.324752 272.763291,213.50238 C272.703077,214.16873 272.599239,214.81643 272.454941,215.442346 L272.459598,222.783777 L276.550693,222.783777 L276.550693,220.147381 C276.165912,220.42394 275.694013,220.586805 275.183947,220.586805 C273.888709,220.586805 272.838127,219.535139 272.838127,218.238566 C272.838127,216.941992 273.888709,215.891227 275.183947,215.891227 C275.694013,215.891227 276.165912,216.053953 276.550693,216.330348 L276.550693,190.622446 Z M283.590852,190.622446 L283.590852,222.783777 L296.292011,222.783777 L296.292011,225.243665 L44.0648095,225.243665 L44.0648095,225.243935 C44.0501317,225.243935 44.0354744,225.243845 44.0208383,225.243665 L27.9042857,225.243665 L27.9042857,222.783777 L40.7012946,222.783777 C40.5929143,222.444681 40.5343862,222.083514 40.5343862,221.708971 L40.5343862,117.040358 C40.5343862,115.092796 42.1183545,113.507194 44.0648095,113.507194 L60.5305238,113.507194 C62.4769788,113.507194 64.0609471,115.092796 64.0609471,117.040358 L64.0609471,126.592684 L61.6035926,126.592684 L61.6035926,117.040358 C61.6035926,116.449696 61.1214762,115.967083 60.5305238,115.967083 L44.0648095,115.967083 C43.4738571,115.967083 42.9917407,116.449696 42.9917407,117.040358 L42.9917407,121.29447 L49.13,121.29447 L49.13,123.754359 L42.9917407,123.754359 L42.9917407,130.364183 L48.8214815,130.364183 L48.8214815,132.824072 L42.9917407,132.824072 L42.9917407,139.434797 L54.6428571,139.434797 L54.6428571,141.894685 L42.9917407,141.894685 L42.9917407,148.50451 L48.203545,148.50451 L48.203545,150.963498 L42.9917407,150.963498 L42.9917407,157.573323 L48.203545,157.573323 L48.203545,160.033211 L42.9917407,160.033211 L42.9917407,166.645737 L48.203545,166.645737 L48.203545,169.104725 L42.9917407,169.104725 L42.9917407,175.71455 L54.6428571,175.71455 L54.6428571,178.174438 L42.9917407,178.174438 L42.9917407,184.784263 L48.203545,184.784263 L48.203545,187.244151 L42.9917407,187.244151 L42.9917407,193.854876 L48.203545,193.854876 L48.203545,196.314765 L42.9917407,196.314765 L42.9917407,202.92549 L48.203545,202.92549 L48.203545,205.384478 L42.9917407,205.384478 L42.9917407,211.994303 L54.6428571,211.994303 L54.6428571,214.454191 L42.9917407,214.454191 L42.9917407,221.708971 C42.9917407,222.293327 43.4607537,222.770819 44.0406135,222.783777 L56.0055556,222.783777 L56.0055556,134.101827 C56.0055556,130.717229 58.7561376,127.963811 62.1363492,127.963811 L134.580635,127.963811 C137.960847,127.963811 140.710529,130.717229 140.710529,134.101827 L140.710529,165.888592 L138.253175,165.888592 L138.253175,143.368637 L58.4629101,143.368637 L58.4629101,209.680618 C60.300057,206.717944 63.692636,204.581605 67.4478606,204.37754 C69.7000695,201.810622 73.0017674,200.187829 76.675127,200.187829 C78.2723135,200.187829 79.8142281,200.486232 81.2709407,201.076324 C82.3981382,199.130729 83.9419546,197.42062 85.8283512,196.088588 C85.3668518,194.802139 85.1263757,193.431628 85.1263757,192.024096 C85.1263757,185.413371 90.4998148,180.034391 97.1046296,180.034391 C99.8758995,180.034391 102.576111,181.00232 104.712354,182.760798 L103.149974,184.660638 C101.453571,183.26412 99.3074339,182.493379 97.1046296,182.493379 C91.8553175,182.493379 87.5837302,186.769371 87.5837302,192.024096 C87.5837302,194.570423 88.5740476,196.964582 90.3720899,198.765379 L88.6343122,200.504949 C87.9726396,199.842331 87.3979234,199.115853 86.9159032,198.339395 C83.5771077,200.851173 81.5974815,204.80256 81.5974815,208.992825 L79.140127,208.992825 C79.140127,207.020509 79.5103568,205.093075 80.2046123,203.299509 C79.0836351,202.866798 77.9001837,202.647717 76.675127,202.647717 C71.2585132,202.647717 66.8529048,207.057869 66.8529048,212.479167 L64.3955503,212.479167 C64.3955503,210.584826 64.8259039,208.78918 65.5938997,207.185055 C62.1775226,208.212043 59.4801217,211.269789 59.4801217,214.565751 C59.4801217,218.837241 62.9511799,222.311878 67.2173704,222.311878 L67.2173704,222.783777 L183.452366,222.783777 C182.981115,222.503753 182.534834,222.179872 182.116593,221.813327 C181.196434,221.009272 180.459767,220.048547 179.92818,218.956363 C179.415481,217.903798 179.114159,216.772897 179.035005,215.598778 C178.954952,214.424658 179.098868,213.264045 179.464053,212.151152 L181.799079,212.916491 C181.532836,213.72865 181.428497,214.575025 181.486063,215.433104 C181.544529,216.287582 181.763101,217.111447 182.13728,217.877686 C182.524053,218.673638 183.061037,219.374148 183.732942,219.960308 C184.402148,220.545567 185.168497,220.984061 186.011302,221.262284 L185.509544,222.783777 L261.401175,222.783777 L261.401175,222.311878 C265.517146,222.311878 268.907193,219.389947 269.997395,215.141071 L269.994392,210.40835 C269.656089,209.359243 269.077773,208.369221 268.279429,207.494922 C266.776019,205.846446 264.631186,204.777213 262.397661,204.528773 C262.892022,206.136158 263.073384,207.823626 262.919571,209.527571 C262.58227,213.257022 261.156608,216.785683 258.907032,219.461667 L257.027138,217.876065 C258.956503,215.582751 260.179783,212.540304 260.472111,209.306974 C260.74645,206.265428 259.695868,203.275205 257.51555,200.885547 C254.630528,197.725066 250.081132,196.088497 245.836054,196.642775 C244.320008,201.428813 241.123014,205.376876 236.920455,207.436486 L235.84019,205.226008 C240.512042,202.937195 243.742942,197.871554 244.271831,192.00996 C244.364479,190.985468 244.323581,189.966142 244.154934,188.968589 C243.681501,189.20541 243.197774,189.419022 242.706392,189.608147 L241.826709,187.311231 C242.390609,187.09408 242.942934,186.839099 243.478027,186.548594 C242.909272,185.110911 242.059034,183.754497 240.947386,182.536869 C237.378286,178.626438 231.55691,176.792327 226.385852,178.045681 L225.809291,175.653323 C226.455031,175.498027 227.109546,175.383762 227.768655,175.309142 C226.554058,173.925104 224.781471,173.09304 222.885651,173.09304 C222.785202,173.09304 222.685132,173.095268 222.585472,173.099723 C222.563202,173.425144 222.551947,173.751246 222.551947,174.076275 C222.552847,174.331988 222.560042,174.593104 222.574434,174.854219 L221.602449,174.906273 C221.905217,175.909587 222.120653,176.943081 222.244907,177.997414 L223.042159,177.782315 C223.300307,178.737637 223.659196,179.668649 224.108931,180.544737 L221.922317,181.668434 C221.669237,181.174268 221.440543,180.666448 221.237621,180.147751 L219.913349,180.147751 C219.913349,175.988811 218.296101,172.079281 215.358429,169.13858 C212.421656,166.198779 208.516153,164.578963 204.361497,164.578963 C200.207741,164.578963 196.302238,166.198779 193.364566,169.13858 C190.427794,172.079281 188.810545,175.988811 188.810545,180.147751 C188.810545,184.304891 190.427794,188.214421 193.364566,191.154222 L191.627688,192.893791 C188.225889,189.489385 186.352291,184.961281 186.352291,180.147751 C186.352291,175.33152 188.225889,170.804317 191.627688,167.399911 C195.028587,163.993704 199.552026,162.119074 204.361497,162.119074 C209.171868,162.119074 213.694407,163.993704 217.096206,167.399911 C218.223328,168.527299 219.182584,169.778147 219.961478,171.122125 C220.89936,170.797453 221.880128,170.632251 222.885651,170.632251 C226.143373,170.632251 229.136706,172.415807 230.705977,175.233506 C235.244823,175.503528 239.709543,177.532686 242.761619,180.877434 C245.686698,184.081052 247.091672,188.113936 246.72019,192.230558 C246.66272,192.866022 246.577051,193.493548 246.464425,194.111206 C251.20895,193.798987 256.12924,195.718267 259.329783,199.226113 C260.156444,200.132196 260.849267,201.111126 261.401175,202.142599 L261.401175,202.013296 C264.609063,202.013296 267.808236,203.397944 269.991421,205.724923 L269.981839,190.622446 L251.384127,190.622446 L251.384127,188.162558 L269.980279,188.162558 L269.944349,131.53101 C269.94345,130.317273 269.468529,129.176468 268.607735,128.320189 C267.754138,127.471113 266.623503,127.004707 265.42091,127.004707 L265.393026,127.004707 L265.111241,127.006035 C264.355575,127.068736 260.224397,127.613148 260.224397,131.865598 L260.224397,136.682729 L190.31572,136.682729 L190.31572,131.91692 C190.31572,127.850721 193.621275,124.541757 197.683286,124.541757 L265.113921,124.541757 L265.114067,124.54697 L265.380434,124.545719 C267.282815,124.569129 269.011598,125.255233 270.340116,126.575217 C271.668635,127.895201 272.400804,129.65548 272.401704,131.529209 L272.437633,188.162558 L276.550693,188.162558 L276.550693,143.502887 C276.550693,143.393939 276.574979,143.285891 276.619952,143.185947 L279.385825,137.188393 C279.655667,136.603134 280.485878,136.603134 280.75572,137.188393 L283.521593,143.185947 C283.566566,143.285891 283.590852,143.393939 283.590852,143.502887 L283.590852,188.162558 L304.399841,188.162558 L304.399841,190.622446 L283.590852,190.622446 Z M270.002244,222.783777 L270.000853,220.591987 C269.324977,221.43631 268.545497,222.17343 267.682158,222.783777 L270.002244,222.783777 Z M58.4629101,222.783777 L61.1787485,222.783777 C60.0874573,221.978179 59.1617238,220.96025 58.4629101,219.791368 L58.4629101,222.783777 Z M158.277613,210.601275 C158.487929,209.884171 158.78789,209.193626 159.174688,208.537853 C159.795323,207.485288 160.604847,206.584889 161.582571,205.86367 C162.527016,205.16316 163.582995,204.660738 164.719926,204.369909 C165.85236,204.075479 167.018974,204.005248 168.182889,204.164618 L167.85818,206.601997 C167.011778,206.489447 166.159979,206.539869 165.329767,206.754164 C164.500455,206.964857 163.731407,207.33222 163.043312,207.840945 C162.33273,208.366778 161.742677,209.021367 161.291143,209.788507 C161.06832,210.166286 160.885165,210.558741 160.742419,210.963442 C161.009601,211.039122 161.273909,211.127891 161.535169,211.231035 C162.628026,211.659625 163.612947,212.287202 164.462048,213.09486 L162.769243,214.878549 C162.151307,214.290589 161.43263,213.832286 160.633899,213.518947 C159.839667,213.202908 159.007656,213.041736 158.144164,213.057943 C157.260884,213.067848 156.398291,213.25333 155.58337,213.608087 C154.763952,213.965545 154.041677,214.471569 153.434534,215.110852 C152.84628,215.731226 152.38845,216.448844 152.075434,217.248398 C151.761519,218.047951 151.60681,218.887123 151.615804,219.7407 L149.15845,219.765912 C149.145857,218.593593 149.358132,217.443784 149.788079,216.3489 C150.217127,215.253115 150.844958,214.267178 151.652683,213.416302 C152.488291,212.537513 153.479508,211.843306 154.601148,211.353489 C155.72009,210.864573 156.903794,210.610661 158.118079,210.597155 C158.17134,210.598208 158.224518,210.599578 158.277613,210.601275 Z M148.013198,195.853851 L151.546725,195.853851 C153.486884,195.853851 155.064556,194.274552 155.064556,192.333293 L155.064556,112.521078 L157.52191,112.521078 L157.52191,192.333293 C157.52191,195.631453 154.841487,198.313739 151.546725,198.313739 L147.508759,198.313739 C146.436329,201.035393 143.783109,202.966098 140.687683,202.966098 L140.687683,200.50621 C143.373503,200.50621 145.560116,198.318241 145.560116,195.629652 C145.560116,193.127261 143.664615,191.058062 141.23552,190.784641 C139.520059,193.746932 137.037055,196.264787 133.972772,198.017418 L132.753989,195.880773 C138.10854,192.819418 141.435683,187.084781 141.435683,180.917952 C141.435683,171.422351 133.718222,163.697833 124.232402,163.697833 C114.746582,163.697833 107.030021,171.422351 107.030021,180.917952 L104.572667,180.917952 C104.572667,179.81723 104.663392,178.737339 104.837751,177.685377 C103.617757,177.5484 102.351273,177.776955 101.26864,178.355508 L100.108323,176.187349 C101.712187,175.32699 103.597391,175.012178 105.395696,175.275904 C107.824356,167.164693 115.349897,161.237944 124.232402,161.237944 C135.073725,161.237944 143.893037,170.06545 143.893037,180.917952 C143.893037,183.556205 143.360465,186.124822 142.373107,188.489839 C145.604682,189.253941 148.016571,192.165349 148.016571,195.629652 C148.016571,195.70465 148.015442,195.779388 148.013198,195.853851 Z M170.752317,190.961528 L170.752317,193.129335 C170.752317,195.33261 172.543164,197.142411 174.74237,197.164021 L174.851299,197.164021 C176.028919,194.968534 178.344963,193.472207 181.003677,193.472207 L181.003677,195.932096 C178.510344,195.932096 176.482937,197.963394 176.482937,200.458398 L174.025582,200.458398 C174.025582,200.162719 174.044026,199.871269 174.079823,199.58514 C173.538356,199.525501 173.01667,199.398811 172.523218,199.213663 C174.105084,201.010419 176.419955,202.145745 178.994709,202.145745 L178.994709,204.604733 C172.883704,204.604733 167.911429,199.628231 167.911429,193.510024 C167.911429,192.51274 168.044568,191.539865 168.295862,190.610899 L168.295862,112.521168 L170.752317,112.521168 L170.752317,186.091947 C172.141775,184.542601 173.97076,183.377293 176.079884,182.80343 L176.079884,181.411911 L173.807011,181.411911 C173.12881,181.411911 172.579233,180.861767 172.579233,180.181967 C172.579233,179.503066 173.12881,178.952923 173.807011,178.952923 L176.079884,178.952923 L176.079884,176.678156 C176.079884,175.999256 176.63036,175.447312 177.308561,175.447312 C177.986762,175.447312 178.537238,175.999256 178.537238,176.678156 L178.537238,178.952923 L180.809392,178.952923 C181.487593,178.952923 182.038069,179.503066 182.038069,180.181967 C182.038069,180.861767 181.487593,181.411911 180.809392,181.411911 L178.537238,181.411911 L178.537238,183.687758 C178.537238,184.367559 177.986762,184.917702 177.308561,184.917702 C177.078916,184.917702 176.863915,184.854625 176.679972,184.744795 L176.789206,185.160629 C173.858965,185.933202 171.613928,188.169556 170.752317,190.961528 Z M16.2165498,136.499869 L14.6096561,138.10842 C14.1293386,138.589233 14.1293386,139.367177 14.6096561,139.84799 C14.8498148,140.087496 15.1637302,140.208149 15.478545,140.208149 C15.7933598,140.208149 16.1072751,140.087496 16.3474339,139.84799 L17.9540238,138.239451 L19.5606138,139.84799 C19.8007725,140.087496 20.1146878,140.208149 20.4295026,140.208149 C20.743418,140.208149 21.0582328,140.087496 21.2983915,139.84799 C21.778709,139.367177 21.778709,138.589233 21.2983915,138.10842 L19.6914978,136.499869 L21.2981217,134.891296 C21.7784392,134.411384 21.7784392,133.631639 21.2981217,133.151727 C20.8187037,132.671814 20.0406614,132.671814 19.5612434,133.151727 L17.9540238,134.760604 L16.3468042,133.151727 C15.8673862,132.671814 15.0893439,132.671814 14.6099259,133.151727 C14.1296085,133.631639 14.1296085,134.411384 14.6099259,134.891296 L16.2165498,136.499869 Z M310.975152,189.393087 L309.368608,191.000704 C308.888291,191.480616 308.888291,192.25856 309.368608,192.740273 C309.608767,192.979779 309.922683,193.100433 310.237497,193.100433 C310.552312,193.100433 310.866228,192.979779 311.106386,192.740273 L312.713246,191.132341 L314.320106,192.740273 C314.560265,192.979779 314.875079,193.100433 315.188995,193.100433 C315.50381,193.100433 315.817725,192.979779 316.057884,192.740273 C316.538201,192.25856 316.538201,191.480616 316.057884,191.000704 L314.45134,189.393087 L316.057974,187.785381 C316.537392,187.304568 316.537392,186.525724 316.057974,186.045811 C315.577656,185.564998 314.800513,185.564998 314.320196,186.045811 L312.713246,187.653834 L311.106296,186.045811 C310.625979,185.564998 309.848836,185.564998 309.368519,186.045811 C308.889101,186.525724 308.889101,187.304568 309.368519,187.785381 L310.975152,189.393087 Z M294.019587,129.558147 L294.019587,131.832193 C294.019587,132.511093 293.469111,133.062137 292.79091,133.062137 C292.112709,133.062137 291.562233,132.511093 291.562233,131.832193 L291.562233,129.558147 L289.28936,129.558147 C288.611159,129.558147 288.060683,129.007103 288.060683,128.328202 C288.060683,127.649302 288.611159,127.098258 289.28936,127.098258 L291.562233,127.098258 L291.562233,124.824392 C291.562233,124.144591 292.112709,123.593547 292.79091,123.593547 C293.469111,123.593547 294.019587,124.144591 294.019587,124.824392 L294.019587,127.098258 L296.291741,127.098258 C296.969942,127.098258 297.520418,127.649302 297.520418,128.328202 C297.520418,129.007103 296.969942,129.558147 296.291741,129.558147 L294.019587,129.558147 Z M58.4629101,140.908749 L138.253175,140.908749 L138.253175,134.101827 C138.253175,132.07413 136.605344,130.4246 134.580635,130.4246 L62.1363492,130.4246 C60.1107407,130.4246 58.4629101,132.07413 58.4629101,134.101827 L58.4629101,140.908749 Z M201.315889,158.793813 L198.858534,158.793813 L198.858534,137.836139 L201.315889,137.836139 L201.315889,158.793813 Z M240.385757,160.37041 C239.433217,160.115598 238.448296,159.959829 237.458878,159.908506 L237.586603,157.452219 C238.746921,157.512546 239.901841,157.695327 241.018984,157.992458 L240.385757,160.37041 Z M231.641101,160.829614 L230.760519,158.532697 C231.839884,158.118514 232.96872,157.81688 234.117344,157.635 L234.503217,160.062474 C233.522794,160.219143 232.56036,160.477558 231.641101,160.829614 Z M245.631471,163.042793 C244.862423,162.417916 244.027714,161.876777 243.15073,161.430179 L244.264275,159.235908 C245.295069,159.760841 246.275492,160.398323 247.177661,161.131247 L245.631471,163.042793 Z M226.703005,164.045837 L224.941841,162.330578 C225.791841,161.479701 226.699407,160.741375 227.66454,160.115598 L229.002053,162.17841 C228.180836,162.711446 227.407291,163.339024 226.703005,164.045837 Z M249.345386,167.622219 C248.89655,166.744331 248.35237,165.907861 247.728138,165.140721 L249.635915,163.587534 C250.368085,164.490633 251.006709,165.471167 251.533799,166.503924 L249.345386,167.622219 Z M223.476603,169.02594 L221.179354,168.152554 C221.591312,167.066673 222.119302,166.021311 222.749831,165.04798 L224.813217,166.384171 C224.276233,167.213438 223.826497,168.102131 223.476603,169.02594 Z M250.872688,173.317239 C250.819619,172.326801 250.663111,171.342665 250.407661,170.389143 L252.781365,169.751661 C253.080889,170.869956 253.264381,172.024267 253.326444,173.18488 L250.872688,173.317239 Z M252.256974,180.018904 L249.961524,179.141916 C250.312317,178.22261 250.567767,177.258283 250.721577,176.277749 L253.148349,176.659518 C252.969354,177.809327 252.668931,178.940227 252.256974,180.018904 Z M248.498085,185.825574 L246.757608,184.090506 C247.457397,183.387295 248.084328,182.612052 248.621312,181.783685 L250.682,183.123478 C250.05327,184.094108 249.318402,185.00261 248.498085,185.825574 Z M226.28655,187.035709 C225.82872,186.665645 225.387979,186.270371 224.962529,185.84088 C224.559566,185.439303 224.17909,185.016116 223.825598,184.581223 L225.728878,183.027135 C226.032,183.3981 226.35581,183.757359 226.703005,184.104912 C227.065492,184.470474 227.441471,184.808124 227.829143,185.119661 L226.28655,187.035709 Z M232.450624,190.161892 C231.331683,189.865661 230.239725,189.449677 229.204434,188.923845 L230.314381,186.729574 C231.195862,187.176171 232.126815,187.531829 233.080254,187.784841 L232.450624,190.161892 Z M236.722212,190.719239 C236.443376,190.719239 236.162741,190.712936 235.884804,190.69853 L236.006233,188.241343 C236.992053,188.288163 237.989566,188.236841 238.965492,188.081072 L239.351365,190.513048 C238.484275,190.649008 237.599196,190.719239 236.722212,190.719239 Z M66.6795767,137.484534 L66.6795767,135.024645 L69.9707407,135.024645 L69.9707407,137.484534 L66.6795767,137.484534 Z M74.2980952,137.484534 L74.2980952,135.024645 L77.5892593,135.024645 L77.5892593,137.484534 L74.2980952,137.484534 Z M81.9166138,137.484534 L81.9166138,135.024645 L85.2077778,135.024645 L85.2077778,137.484534 L81.9166138,137.484534 Z M0,189.895825 L0,187.435936 L28.4997354,187.435936 L28.4997354,189.895825 L0,189.895825 Z M294.512857,143.368637 L294.512857,140.908749 L339.655503,140.908749 L339.655503,143.368637 L294.512857,143.368637 Z M159.281005,181.412271 L159.281005,178.953283 L165.129365,178.953283 L165.129365,181.412271 L159.281005,181.412271 Z M34.0120529,178.777615 C34.0120529,180.465862 32.6448571,181.835368 30.9574497,181.835368 C29.2709418,181.835368 27.903746,180.465862 27.903746,178.777615 C27.903746,177.089368 29.2709418,175.720763 30.9574497,175.720763 C32.6448571,175.720763 34.0120529,177.089368 34.0120529,178.777615 Z M300.558471,154.436065 C300.558471,155.379682 299.793921,156.14412 298.851275,156.14412 C297.90863,156.14412 297.144979,155.379682 297.144979,154.436065 C297.144979,153.492447 297.90863,152.728009 298.851275,152.728009 C299.793921,152.728009 300.558471,153.492447 300.558471,154.436065 Z M110.19436,200.920843 C110.182667,199.748524 110.394942,198.598716 110.823989,197.502931 C111.256635,196.406245 111.882667,195.420309 112.688593,194.570333 C113.524201,193.691544 114.516317,192.998237 115.637058,192.50752 C116.756,192.019504 117.939704,191.764692 119.154889,191.752086 C120.344889,191.752086 121.477323,191.951074 122.571079,192.385066 C123.664836,192.813656 124.650656,193.441233 125.498857,194.250692 L123.805153,196.030779 C123.188116,195.44372 122.469439,194.987218 121.670709,194.673879 C120.871979,194.356038 120.032772,194.217377 119.181873,194.211975 C118.296794,194.221879 117.435101,194.407361 116.62018,194.763018 C115.800762,195.120476 115.077587,195.6265 114.471344,196.264883 C113.88309,196.883457 113.426159,197.603775 113.111344,198.403329 C112.797429,199.202883 112.643619,200.041154 112.651714,200.895632 L110.19436,200.920843 Z M212.149476,213.867582 L209.713709,213.538036 C209.876513,212.335104 210.27318,211.191598 210.895614,210.137231 C211.517148,209.085566 212.326672,208.185167 213.303497,207.463948 C214.247042,206.763438 215.303021,206.262817 216.440852,205.970187 C217.574185,205.675757 218.739,205.605526 219.903815,205.763996 L219.579106,208.201375 C218.729106,208.089725 217.880905,208.139247 217.051593,208.353542 C216.220481,208.565135 215.452333,208.932498 214.764238,209.439422 C214.054556,209.966155 213.464503,210.621645 213.011169,211.390586 C212.557836,212.159526 212.267307,212.991494 212.149476,213.867582 Z M298.851005,225.243665 L298.851005,222.783777 L308.761376,222.783777 L308.761376,225.243665 L298.851005,225.243665 Z M20.4296825,225.243665 L20.4296825,222.783777 L24.9171429,222.783777 L24.9171429,225.243665 L20.4296825,225.243665 Z" id="Combined-Shape"></path>
                <path d="M203.195153,55.9087984 C204.512878,55.4865116 205.534677,54.4330454 205.911556,53.094153 L206.963037,53.094153 L209.442878,53.094153 C209.707323,54.1413163 210.361238,55.0273084 211.250815,55.5873562 L204.50928,76.3568462 L203.195153,55.9087984 Z M193.628381,76.1731649 C193.66436,75.9552685 193.695841,75.7364717 193.695841,75.5086709 C193.695841,74.2850295 193.157058,73.1955474 192.316053,72.4356112 L197.108434,63.3731012 L201.002243,56.0105434 C201.060709,56.0240494 201.117376,56.0375554 201.175841,56.0483602 L202.722931,80.1133084 L193.628381,76.1731649 Z M181.175206,96.8418104 C181.145524,96.8174996 181.116741,96.7931888 181.087058,96.7688781 L181.348804,96.1800175 L188.81891,79.5883761 C189.055471,79.6306948 189.296529,79.6622088 189.546582,79.6622088 C190.871503,79.6622088 192.038116,79.0292287 192.79727,78.0604 L201.79018,81.9231092 L181.175206,96.8418104 Z M179.243143,95.9261052 C179.006582,95.8837865 178.764624,95.8522725 178.51637,95.8522725 C177.969492,95.8522725 177.449598,95.9648223 176.971979,96.1566072 L172.595153,90.1275394 L166.284466,81.4359936 C166.781873,80.8408303 167.10928,80.1106072 167.210021,79.301149 L181.409968,77.5381689 L185.686053,77.0078343 C185.943302,77.6696271 186.366952,78.2386789 186.902138,78.6852765 L179.505788,95.3435474 L179.243143,95.9261052 Z M174.50563,98.9937625 L151.719333,98.9937625 C151.564624,98.3805912 151.273196,97.8295474 150.881026,97.358639 L161.56854,82.6380255 C162.046159,82.8298104 162.565153,82.9423602 163.112032,82.9423602 C163.65891,82.9423602 164.177905,82.8298104 164.655524,82.6380255 L175.343037,97.3595394 C174.950868,97.8295474 174.659439,98.3805912 174.50563,98.9937625 L174.50563,98.9937625 Z M149.252085,96.1566072 C148.774466,95.9648223 148.254571,95.8522725 147.708593,95.8522725 C147.459439,95.8522725 147.218381,95.8837865 146.980921,95.9261052 L145.315101,92.2254677 L139.249968,78.7546072 C139.82473,78.2990056 140.278063,77.7047426 140.548804,77.0096351 L145.025471,77.5642805 L159.014042,79.301149 C159.114783,80.1106072 159.44309,80.8408303 159.939598,81.4359936 L158.130762,83.927396 L149.252085,96.1566072 Z M145.046159,96.8445116 L126.214836,83.2980175 C126.419915,82.8064 126.535048,82.2670614 126.535048,81.7007108 C126.535048,81.47291 126.503566,81.2532127 126.468487,81.0353163 L133.410603,78.0279857 C134.168857,79.0157227 135.348063,79.6622088 136.689175,79.6622088 C136.93473,79.6622088 137.17219,79.6306948 137.406053,79.5901769 L145.139704,96.7670773 C145.108222,96.7922884 145.07764,96.8184 145.046159,96.8445116 L145.046159,96.8445116 Z M123.672931,77.7713721 L125.172349,56.1618104 C125.251503,56.1483044 125.327058,56.1302964 125.404413,56.1122884 L133.353037,71.3290215 L133.927799,72.428408 C133.081397,73.1892446 132.539915,74.2805275 132.539915,75.5086709 C132.539915,75.7301689 132.571397,75.9426629 132.604677,76.155157 L125.636476,79.1480813 C125.13637,78.5105992 124.459069,78.0288861 123.672931,77.7713721 L123.672931,77.7713721 Z M120.430339,51.069157 L119.331185,51.069157 L116.816265,51.0682566 C116.575206,49.9823761 115.910497,49.0612685 115.00473,48.4796112 L121.73727,27.7344319 L123.153937,48.1527665 C121.812825,48.5930614 120.778434,49.6870454 120.430339,51.069157 L120.430339,51.069157 Z M121.73727,76.4261769 L114.943566,55.4955155 C115.816053,54.9552765 116.462772,54.1053004 116.747905,53.094153 L119.331185,53.094153 L120.430339,53.094153 C120.778434,54.4762645 121.812825,55.571149 123.153937,56.0114438 L121.73727,76.4261769 Z M125.658063,24.9864159 L132.606476,28.0054518 C132.571397,28.225149 132.539915,28.446647 132.539915,28.6753482 C132.539915,29.9052924 133.084095,30.9983761 133.933196,31.7592127 L125.407111,48.0528223 C125.329757,48.0339139 125.252402,48.015906 125.172349,48.0014996 L123.672931,26.3901371 C124.470762,26.1272207 125.156159,25.637404 125.658063,24.9864159 L125.658063,24.9864159 Z M145.053354,7.3224 C145.083037,7.34671076 145.11182,7.37192191 145.141503,7.39533227 L137.413249,24.5947426 C137.177587,24.5533243 136.937429,24.5218104 136.689175,24.5218104 C135.351661,24.5218104 134.175153,25.1655952 133.416,26.1488303 L126.467587,23.1297944 C126.503566,22.9100972 126.535048,22.6894996 126.535048,22.4607984 C126.535048,21.9178582 126.424413,21.4019299 126.234624,20.9265195 L145.053354,7.3224 Z M147.708593,8.30833625 C148.254571,8.30833625 148.774466,8.19578645 149.252085,8.00400159 L159.895524,22.6651888 C159.426,23.2477466 159.115683,23.9527586 159.015841,24.7325036 L140.540709,27.1500733 C140.270868,26.4666709 139.820233,25.8832127 139.255365,25.4339139 L146.983619,8.23450359 C147.22018,8.27682231 147.460339,8.30833625 147.708593,8.30833625 L147.708593,8.30833625 Z M151.719333,5.16684622 L174.50563,5.16684622 C174.656741,5.77011315 174.941873,6.31305339 175.325048,6.77945976 L164.566476,21.3821211 C164.112243,21.2119458 163.62563,21.1065992 163.112032,21.1065992 C162.566952,21.1065992 162.047958,21.2182486 161.571238,21.4100335 L150.889122,6.79206534 C151.277693,6.32385817 151.565524,5.77551554 151.719333,5.16684622 L151.719333,5.16684622 Z M176.971979,8.00400159 C177.449598,8.19578645 177.969492,8.30833625 178.51637,8.30833625 C178.764624,8.30833625 179.006582,8.27682231 179.243143,8.23450359 L180.354889,10.7042964 L186.985788,25.429412 C186.42182,25.87691 185.971185,26.4558661 185.699545,27.1338661 L167.209122,24.742408 C167.111079,23.9590614 166.799862,23.2504478 166.32854,22.6651888 L176.971979,8.00400159 Z M181.170709,7.3224 L199.989439,20.9265195 C199.799651,21.4019299 199.689016,21.9178582 199.689016,22.4607984 C199.689016,22.6876988 199.720497,22.907396 199.755577,23.1252924 L192.808063,26.1353243 C192.048011,25.1601928 190.876899,24.5218104 189.546582,24.5218104 C189.300127,24.5218104 189.062667,24.5533243 188.828804,24.5938422 L181.506212,8.33084622 L181.08436,7.39353147 C181.113143,7.37012112 181.141926,7.34671076 181.170709,7.3224 L181.170709,7.3224 Z M181.139228,55.2758183 C181.812931,54.7211729 182.30764,53.966639 182.527111,53.094153 L189.418857,53.094153 L197.958434,53.0950534 C198.178804,53.8747984 198.614148,54.5564 199.206,55.0777307 L190.528804,71.4847904 C190.21219,71.4073562 189.886582,71.3542327 189.546582,71.3542327 C189.272243,71.3542327 189.006,71.3848462 188.747852,71.4352685 L181.139228,55.2758183 Z M177.388434,56.0609657 C177.749122,56.1636112 178.122402,56.235643 178.51637,56.235643 C178.78891,56.235643 179.054254,56.2059299 179.312402,56.1555076 L186.922825,72.3140574 C186.124095,72.973149 185.582614,73.9158661 185.448593,74.9963442 L166.972561,77.289659 C166.753989,76.72691 166.422984,76.2235873 165.997534,75.8112048 L177.388434,56.0609657 Z M150.597693,55.0561211 C151.140074,54.5275873 151.528646,53.851388 151.719333,53.094153 L174.50473,53.094153 C174.695418,53.851388 175.083989,54.5275873 175.62637,55.0552207 L164.238169,74.8090614 C163.878381,74.7064159 163.505101,74.6343841 163.112032,74.6343841 C162.718963,74.6343841 162.345683,74.7064159 161.985894,74.8090614 L150.597693,55.0561211 Z M146.911661,56.1555076 C147.16981,56.2059299 147.435153,56.235643 147.708593,56.235643 C148.101661,56.235643 148.474942,56.1636112 148.83563,56.0609657 L160.226529,75.8112048 C159.801079,76.2235873 159.470074,76.72691 159.252402,77.289659 L140.787164,74.998145 C140.653143,73.9131649 140.108063,72.9668462 139.303937,72.3077546 L146.911661,56.1555076 Z M128.45182,53.0950534 L136.342878,53.094153 L143.696952,53.094153 C143.916423,53.966639 144.411132,54.7211729 145.085735,55.2758183 L137.478011,71.4343681 C137.221661,71.3848462 136.959016,71.3542327 136.689175,71.3542327 C136.352772,71.3542327 136.029862,71.4055554 135.715947,71.4811888 L127.195259,55.1677705 C127.802402,54.6248303 128.246741,53.9108143 128.45182,53.0950534 L128.45182,53.0950534 Z M145.085735,48.8874916 C144.412032,49.4412367 143.917323,50.1957705 143.697852,51.0682566 L136.347376,51.069157 L128.45182,51.069157 C128.246741,50.2542964 127.804201,49.5411809 127.197058,48.9973402 L135.723143,32.7046311 C136.03436,32.7793641 136.354571,32.8288861 136.689175,32.8288861 C136.962614,32.8288861 137.228857,32.7991729 137.487905,32.7487506 L145.085735,48.8874916 Z M148.826635,48.1005434 C148.468646,47.9996988 148.098963,47.9276669 147.708593,47.9276669 C147.434254,47.9276669 147.168011,47.9582805 146.909862,48.0087028 L139.312032,31.8699618 C140.116159,31.2072685 140.659439,30.2564478 140.789862,29.1669657 L159.257799,26.7791092 C159.47727,27.3364558 159.810074,27.8325753 160.231926,28.2422566 L148.826635,48.1005434 Z M175.62727,49.1071888 C175.085788,49.6348223 174.696317,50.3110215 174.50563,51.0682566 L151.718434,51.0682566 C151.527746,50.3092207 151.137376,49.6321211 150.593196,49.1044876 L162.040762,29.2561052 C162.38436,29.3488462 162.738751,29.4136749 163.112032,29.4136749 C163.485312,29.4136749 163.839704,29.3488462 164.183302,29.2561052 L175.62727,49.1071888 Z M188.759545,32.749651 C189.014095,32.7982725 189.276741,32.8288861 189.546582,32.8288861 C189.89018,32.8288861 190.219386,32.7757625 190.539598,32.6965275 L199.125048,48.9316112 C198.517005,49.4943602 198.076265,50.2308861 197.890074,51.069157 L190.423566,51.069157 L182.526212,51.0682566 C182.316635,50.235388 181.857005,49.5105673 181.230974,48.9640255 L188.759545,32.749651 Z M179.310603,48.0087028 C179.053354,47.9582805 178.788011,47.9276669 178.51637,47.9276669 C178.122402,47.9276669 177.750021,48.0005992 177.390233,48.1023442 L165.95346,28.2737705 C166.371714,27.879396 166.712614,27.4048861 166.938381,26.8664478 L185.445894,29.1633641 C185.574519,30.250145 186.114201,31.2000653 186.91473,31.8627586 L179.310603,48.0087028 Z M202.57182,26.3964398 L201.190233,47.8925514 C201.09219,47.9105594 200.997746,47.9375713 200.901503,47.9627825 L192.324148,31.7412048 C193.160656,30.9812685 193.695841,29.895388 193.695841,28.6753482 C193.695841,28.4403442 193.66436,28.2134438 193.626582,27.9883442 L194.741026,27.5057307 L200.562402,24.9828143 C201.069704,25.6410056 201.764095,26.1353243 202.57182,26.3964398 L202.57182,26.3964398 Z M204.50928,27.8037625 L211.249915,48.5705514 C210.359439,49.1324 209.704624,50.018392 209.441079,51.0682566 L206.963037,51.069157 L205.979915,51.069157 C205.660603,49.6294199 204.592931,48.4868143 203.208646,48.0375155 L204.50928,27.8037625 Z M219.479175,89.0911809 C218.014836,89.0911809 216.690815,89.6350215 215.647429,90.5030056 L205.006688,81.3801689 L213.178381,56.2050295 C213.271026,56.2104319 213.358275,56.2329418 213.45272,56.2329418 C215.744571,56.2329418 217.602878,54.3727187 217.602878,52.0785036 C217.602878,49.7842884 215.744571,47.9249657 213.45272,47.9249657 C213.358275,47.9249657 213.270127,47.9465753 213.176582,47.9528781 L206.041079,25.9687506 C207.206794,25.2331251 207.988434,23.9419538 207.988434,22.4607984 C207.988434,20.1665833 206.130127,18.3063602 203.838275,18.3063602 C202.822772,18.3063602 201.905312,18.6863283 201.183937,19.2922964 L182.365206,5.68727649 C182.554995,5.21186614 182.66563,4.69773865 182.66563,4.15479841 C182.66563,1.86058327 180.807323,0.000360159363 178.51637,0.000360159363 C176.575312,0.000360159363 174.958963,1.33925259 174.50563,3.1418502 L151.719333,3.1418502 C151.265101,1.33925259 149.648751,0.000360159363 147.708593,0.000360159363 C145.416741,0.000360159363 143.558434,1.86058327 143.558434,4.15479841 C143.558434,4.69773865 143.669069,5.21276653 143.858857,5.68817689 L125.040127,19.2922964 C124.318751,18.6863283 123.401291,18.3063602 122.385788,18.3063602 C120.093937,18.3063602 118.23563,20.1665833 118.23563,22.4607984 C118.23563,23.9419538 119.01727,25.2331251 120.182984,25.9687506 L113.080762,47.8484319 C112.977323,47.8412287 112.877481,47.8169179 112.771344,47.8169179 C110.479492,47.8169179 108.622085,49.677141 108.622085,51.9713562 C108.622085,54.2646709 110.479492,56.124894 112.771344,56.124894 C112.854095,56.124894 112.93055,56.1050853 113.012402,56.1005833 L120.182984,78.1918582 C119.01727,78.9274837 118.23563,80.218655 118.23563,81.7007108 C118.23563,83.9940255 120.093937,85.8542486 122.385788,85.8542486 C123.377005,85.8542486 124.275577,85.491388 124.988857,84.9106311 L143.855259,98.4823363 C143.669069,98.9550454 143.558434,99.4664717 143.558434,100.006711 C143.558434,102.300025 145.416741,104.160249 147.708593,104.160249 C149.648751,104.160249 151.265101,102.821356 151.719333,101.019659 L174.50563,101.019659 C174.958963,102.821356 176.575312,104.160249 178.51637,104.160249 C180.807323,104.160249 182.66563,102.300025 182.66563,100.006711 C182.66563,99.4682725 182.555894,98.958647 182.369704,98.4868382 L203.778011,82.9945833 L214.326106,92.0381849 C213.782825,92.9439857 213.45272,93.991149 213.45272,95.1229498 C213.45272,98.4544239 216.150233,101.155619 219.479175,101.155619 C222.806317,101.155619 225.50473,98.4544239 225.50473,95.1229498 C225.50473,91.7923761 222.806317,89.0911809 219.479175,89.0911809 L219.479175,89.0911809 Z" id="Fill-70"></path>
                <path d="M252.56855,75.2559291 C252.56855,74.3852438 251.863365,73.6793315 250.993577,73.6793315 L241.442095,73.6793315 C240.572307,73.6793315 239.867122,74.3852438 239.867122,75.2559291 L239.867122,91.4018733 C239.867122,92.2725586 240.572307,92.9793713 241.442095,92.9793713 L252.56855,92.9793713 L252.56855,75.2559291 Z M254.901778,74.7318972 L254.901778,95.2969968 L240.900614,95.2969968 C239.041407,95.2969968 237.533894,93.7879291 237.533894,91.9259052 L237.533894,74.7318972 C237.533894,72.8707737 239.041407,71.3608056 240.900614,71.3608056 L251.535058,71.3608056 C253.394265,71.3608056 254.901778,72.8707737 254.901778,74.7318972 L254.901778,74.7318972 Z M302.739238,92.9793713 L291.408603,92.9793713 C290.661143,92.9793713 290.052201,92.3698016 290.052201,91.6215705 L290.052201,81.0824072 L287.711778,81.0824072 L287.711778,91.6215705 C287.711778,93.6618733 289.370402,95.322208 291.408603,95.322208 L305.080561,95.322208 L305.080561,81.0824072 L302.739238,81.0824072 L302.739238,92.9793713 Z M261.311407,82.6995227 C260.413735,82.6995227 259.686063,83.427945 259.686063,84.3265426 C259.686063,85.2251402 260.413735,85.9535625 261.311407,85.9535625 C262.209079,85.9535625 262.936751,85.2251402 262.936751,84.3265426 C262.936751,83.427945 262.209079,82.6995227 261.311407,82.6995227 L261.311407,82.6995227 Z M329.343788,81.1418335 C328.192466,80.6799291 326.887333,80.9617538 326.024741,81.8666542 L323.727492,84.2725187 C323.081672,84.9478175 322.21728,85.3241841 321.294423,85.3304869 C320.380561,85.3412916 319.503577,84.9730287 318.849661,84.3067339 L316.332042,81.7432996 C315.450561,80.8456024 314.182307,80.5826861 313.023788,81.0580964 C311.866169,81.5326064 311.11781,82.6554032 311.11781,83.9195625 L311.11781,95.277188 L313.458233,95.277188 L313.458233,83.9195625 C313.458233,83.4603594 313.774847,83.2820805 313.909767,83.2262558 C314.038392,83.1731323 314.369397,83.0839928 314.662624,83.3856263 L317.180243,85.9490606 C318.282995,87.0718574 319.741037,87.6616183 321.311513,87.6742239 C322.873894,87.6625187 324.332836,87.0295386 325.419397,85.8905347 L327.715746,83.4855705 C328.010772,83.1758335 328.343577,83.2658733 328.472201,83.3162956 C328.608921,83.3721203 328.928233,83.5494988 328.928233,84.0114032 L328.928233,95.322208 L331.268656,95.322208 L331.268656,84.0114032 C331.268656,82.7382398 330.513101,81.6118414 329.343788,81.1418335 L329.343788,81.1418335 Z M269.503788,83.1542239 L281.674529,83.1542239 L281.674529,85.497961 L269.503788,85.497961 L269.503788,91.6224709 C269.503788,92.370702 270.111831,92.9793713 270.859291,92.9793713 L281.674529,92.9793713 L281.674529,95.322208 L270.859291,95.322208 C268.82109,95.322208 267.162466,93.6618733 267.162466,91.6224709 L267.162466,85.497961 L267.162466,83.1542239 L267.162466,78.4316343 L269.503788,78.4316343 L269.503788,83.1542239 Z" id="Fill-71"></path>
            </g>
        </g>
    </g>
</svg>